<svg xmlns="http://www.w3.org/2000/svg" xmlns:xlink="http://www.w3.org/1999/xlink" width="500" zoomAndPan="magnify" viewBox="0 0 375 374.999991" height="500" preserveAspectRatio="xMidYMid meet" version="1.0"><defs><clipPath id="a472a8ac6a"><path d="M 39 13 L 331 13 L 331 361 L 39 361 Z M 39 13 " clip-rule="nonzero"/></clipPath><clipPath id="e3d8571007"><path d="M 20.6875 50.597656 L 20.6875 324.402344 C 20.6875 349.253906 40.835938 369.402344 65.6875 369.402344 L 309.3125 369.402344 C 334.164062 369.402344 354.3125 349.253906 354.3125 324.402344 L 354.3125 50.597656 C 354.3125 25.746094 334.164062 5.597656 309.3125 5.597656 L 65.6875 5.597656 C 40.835938 5.597656 20.6875 25.746094 20.6875 50.597656 Z M 20.6875 50.597656 " clip-rule="nonzero"/></clipPath><clipPath id="4740f32f42"><path d="M 56 33 L 314 33 L 314 343 L 56 343 Z M 56 33 " clip-rule="nonzero"/></clipPath><clipPath id="112ed9cc15"><path d="M 20.6875 50.597656 L 20.6875 324.402344 C 20.6875 349.253906 40.835938 369.402344 65.6875 369.402344 L 309.3125 369.402344 C 334.164062 369.402344 354.3125 349.253906 354.3125 324.402344 L 354.3125 50.597656 C 354.3125 25.746094 334.164062 5.597656 309.3125 5.597656 L 65.6875 5.597656 C 40.835938 5.597656 20.6875 25.746094 20.6875 50.597656 Z M 20.6875 50.597656 " clip-rule="nonzero"/></clipPath><clipPath id="e148fa14f1"><path d="M 150 52 L 268 52 L 268 132 L 150 132 Z M 150 52 " clip-rule="nonzero"/></clipPath><clipPath id="bb8ed871e3"><path d="M 20.6875 50.597656 L 20.6875 324.402344 C 20.6875 349.253906 40.835938 369.402344 65.6875 369.402344 L 309.3125 369.402344 C 334.164062 369.402344 354.3125 349.253906 354.3125 324.402344 L 354.3125 50.597656 C 354.3125 25.746094 334.164062 5.597656 309.3125 5.597656 L 65.6875 5.597656 C 40.835938 5.597656 20.6875 25.746094 20.6875 50.597656 Z M 20.6875 50.597656 " clip-rule="nonzero"/></clipPath><clipPath id="2c87df0e1e"><path d="M 78 118 L 291 118 L 291 265 L 78 265 Z M 78 118 " clip-rule="nonzero"/></clipPath><clipPath id="d5fd2cd37a"><path d="M 20.6875 50.597656 L 20.6875 324.402344 C 20.6875 349.253906 40.835938 369.402344 65.6875 369.402344 L 309.3125 369.402344 C 334.164062 369.402344 354.3125 349.253906 354.3125 324.402344 L 354.3125 50.597656 C 354.3125 25.746094 334.164062 5.597656 309.3125 5.597656 L 65.6875 5.597656 C 40.835938 5.597656 20.6875 25.746094 20.6875 50.597656 Z M 20.6875 50.597656 " clip-rule="nonzero"/></clipPath><clipPath id="639008cc43"><path d="M 142 192 L 227 192 L 227 241 L 142 241 Z M 142 192 " clip-rule="nonzero"/></clipPath><clipPath id="e8c1580bc5"><path d="M 20.6875 50.597656 L 20.6875 324.402344 C 20.6875 349.253906 40.835938 369.402344 65.6875 369.402344 L 309.3125 369.402344 C 334.164062 369.402344 354.3125 349.253906 354.3125 324.402344 L 354.3125 50.597656 C 354.3125 25.746094 334.164062 5.597656 309.3125 5.597656 L 65.6875 5.597656 C 40.835938 5.597656 20.6875 25.746094 20.6875 50.597656 Z M 20.6875 50.597656 " clip-rule="nonzero"/></clipPath><clipPath id="e97df05428"><path d="M 20.6875 5.597656 L 354.125 5.597656 L 354.125 369.050781 L 20.6875 369.050781 Z M 20.6875 5.597656 " clip-rule="nonzero"/></clipPath><clipPath id="18ab57e15a"><path d="M 20.6875 50.597656 L 20.6875 324.402344 C 20.6875 349.253906 40.835938 369.402344 65.6875 369.402344 L 309.3125 369.402344 C 334.164062 369.402344 354.3125 349.253906 354.3125 324.402344 L 354.3125 50.597656 C 354.3125 25.746094 334.164062 5.597656 309.3125 5.597656 L 65.6875 5.597656 C 40.835938 5.597656 20.6875 25.746094 20.6875 50.597656 Z M 20.6875 50.597656 " clip-rule="nonzero"/></clipPath><clipPath id="2f33933c6f"><path d="M 49 22 L 321 22 L 321 352 L 49 352 Z M 49 22 " clip-rule="nonzero"/></clipPath><clipPath id="a35d2f8863"><path d="M 20.6875 50.597656 L 20.6875 324.402344 C 20.6875 349.253906 40.835938 369.402344 65.6875 369.402344 L 309.3125 369.402344 C 334.164062 369.402344 354.3125 349.253906 354.3125 324.402344 L 354.3125 50.597656 C 354.3125 25.746094 334.164062 5.597656 309.3125 5.597656 L 65.6875 5.597656 C 40.835938 5.597656 20.6875 25.746094 20.6875 50.597656 Z M 20.6875 50.597656 " clip-rule="nonzero"/></clipPath><clipPath id="04da5e9c8d"><path d="M 66 42 L 304 42 L 304 334 L 66 334 Z M 66 42 " clip-rule="nonzero"/></clipPath><clipPath id="87e4d9a218"><path d="M 20.6875 50.597656 L 20.6875 324.402344 C 20.6875 349.253906 40.835938 369.402344 65.6875 369.402344 L 309.3125 369.402344 C 334.164062 369.402344 354.3125 349.253906 354.3125 324.402344 L 354.3125 50.597656 C 354.3125 25.746094 334.164062 5.597656 309.3125 5.597656 L 65.6875 5.597656 C 40.835938 5.597656 20.6875 25.746094 20.6875 50.597656 Z M 20.6875 50.597656 " clip-rule="nonzero"/></clipPath><clipPath id="5e85848aab"><path d="M 159 61 L 259 61 L 259 123 L 159 123 Z M 159 61 " clip-rule="nonzero"/></clipPath><clipPath id="f0c84dbd53"><path d="M 20.6875 50.597656 L 20.6875 324.402344 C 20.6875 349.253906 40.835938 369.402344 65.6875 369.402344 L 309.3125 369.402344 C 334.164062 369.402344 354.3125 349.253906 354.3125 324.402344 L 354.3125 50.597656 C 354.3125 25.746094 334.164062 5.597656 309.3125 5.597656 L 65.6875 5.597656 C 40.835938 5.597656 20.6875 25.746094 20.6875 50.597656 Z M 20.6875 50.597656 " clip-rule="nonzero"/></clipPath><clipPath id="4a484c35e2"><path d="M 88 127 L 282 127 L 282 256 L 88 256 Z M 88 127 " clip-rule="nonzero"/></clipPath><clipPath id="2c5a822af0"><path d="M 20.6875 50.597656 L 20.6875 324.402344 C 20.6875 349.253906 40.835938 369.402344 65.6875 369.402344 L 309.3125 369.402344 C 334.164062 369.402344 354.3125 349.253906 354.3125 324.402344 L 354.3125 50.597656 C 354.3125 25.746094 334.164062 5.597656 309.3125 5.597656 L 65.6875 5.597656 C 40.835938 5.597656 20.6875 25.746094 20.6875 50.597656 Z M 20.6875 50.597656 " clip-rule="nonzero"/></clipPath><clipPath id="674e21a79f"><path d="M 151 201 L 217 201 L 217 232 L 151 232 Z M 151 201 " clip-rule="nonzero"/></clipPath><clipPath id="9fd5f972e5"><path d="M 20.6875 50.597656 L 20.6875 324.402344 C 20.6875 349.253906 40.835938 369.402344 65.6875 369.402344 L 309.3125 369.402344 C 334.164062 369.402344 354.3125 349.253906 354.3125 324.402344 L 354.3125 50.597656 C 354.3125 25.746094 334.164062 5.597656 309.3125 5.597656 L 65.6875 5.597656 C 40.835938 5.597656 20.6875 25.746094 20.6875 50.597656 Z M 20.6875 50.597656 " clip-rule="nonzero"/></clipPath><clipPath id="f3c9a8afa9"><path d="M 79.789062 125.257812 L 295.585938 125.257812 L 295.585938 259.117188 L 79.789062 259.117188 Z M 79.789062 125.257812 " clip-rule="nonzero"/></clipPath><clipPath id="36d459a429"><path d="M 150 125.257812 L 269 125.257812 L 269 131 L 150 131 Z M 150 125.257812 " clip-rule="nonzero"/></clipPath><clipPath id="4d900442cd"><path d="M 79.789062 125.257812 L 292 125.257812 L 292 259.117188 L 79.789062 259.117188 Z M 79.789062 125.257812 " clip-rule="nonzero"/></clipPath><clipPath id="f68c8b8dbc"><path d="M 79.789062 125.257812 L 295.585938 125.257812 L 295.585938 259.117188 L 79.789062 259.117188 Z M 79.789062 125.257812 " clip-rule="nonzero"/></clipPath><clipPath id="8ce841e8d4"><rect x="0" width="375" y="0" height="375"/></clipPath></defs><g transform="matrix(1, 0, 0, 1, 0, 0)"><g clip-path="url(#8ce841e8d4)"><g clip-path="url(#a472a8ac6a)"><g clip-path="url(#e3d8571007)"><path stroke-linecap="butt" transform="matrix(0.811279, 0, 0, 0.811279, -334.731067, -239.17034)" fill="none" stroke-linejoin="miter" d="M 473.024053 525.682288 C 473.024053 580.606169 473.086647 610.84873 473.20702 616.419601 C 473.308134 621.364532 474.102597 627.209854 477.126371 630.744011 C 479.755322 633.835195 484.18987 637.123791 490.425202 640.609798 C 516.478776 655.17977 562.726157 682.648932 629.181789 723.017286 C 636.071951 727.191829 641.402076 730.576723 647.988897 726.628482 C 680.292247 707.291732 730.637131 677.347697 799.018735 636.791561 C 804.998875 633.238144 808.00339 628.129506 808.037095 621.465646 C 808.123763 603.053362 808.167098 571.125576 808.167098 525.682288 C 808.167098 480.243815 808.123763 448.316029 808.037095 429.898931 C 808.00339 423.239886 804.998875 418.131247 799.018735 414.577831 C 730.637131 374.021695 680.292247 344.077659 647.988897 324.736094 C 641.402076 320.792668 636.071951 324.172748 629.181789 328.352105 C 562.726157 368.715644 516.478776 396.184807 490.425202 410.759593 C 484.18987 414.245601 479.755322 417.534196 477.126371 420.62538 C 474.102597 424.159537 473.308134 430.004859 473.20702 434.94979 C 473.086647 440.515847 473.024053 470.763223 473.024053 525.682288 " stroke="#858c90" stroke-width="2" stroke-opacity="1" stroke-miterlimit="4"/></g></g><g clip-path="url(#4740f32f42)"><g clip-path="url(#112ed9cc15)"><path stroke-linecap="butt" transform="matrix(0.811279, 0, 0, 0.811279, -334.731067, -239.17034)" fill="none" stroke-linejoin="miter" d="M 574.267538 630.589934 C 574.103831 630.007327 574.127905 629.434351 574.349392 628.875819 C 574.566064 628.312473 574.931998 627.879129 575.447196 627.566159 L 588.567874 619.621528 C 589.487525 619.062997 590.48903 618.778916 591.562759 618.774101 C 592.641303 618.769286 593.642808 619.043737 594.562459 619.597454 L 687.090925 675.176164 C 687.726495 675.556544 688.400585 675.840625 689.10838 676.038037 C 689.820989 676.235449 690.548043 676.331747 691.284727 676.326932 C 692.021411 676.326932 692.748465 676.225819 693.456259 676.023592 C 694.168869 675.82618 694.838144 675.532469 695.468899 675.15209 L 782.69613 622.313073 C 783.37985 621.898989 784.000975 621.403052 784.554692 620.830075 C 785.108409 620.252284 785.585087 619.616713 785.975096 618.918549 C 786.365105 618.220384 786.658816 617.4837 786.861043 616.708497 C 787.058455 615.933294 787.159568 615.143646 787.154753 614.344368 C 787.068084 506.788512 786.976601 447.743053 786.875487 437.203176 C 786.822523 430.770433 779.084934 427.106273 774.419269 424.390654 C 733.814984 400.64343 690.72138 375.105053 645.143275 347.775523 C 644.623262 347.462553 644.064731 347.221807 643.47731 347.058099 C 642.889888 346.894392 642.292837 346.812538 641.681342 346.807723 C 641.069846 346.807723 640.46798 346.884762 639.875744 347.043654 C 639.288322 347.202547 638.729791 347.438479 638.200149 347.746634 C 598.703297 370.877547 553.024077 397.658175 501.162491 428.078888 C 496.429417 430.847472 494.065287 434.444223 494.065287 438.869141 C 494.098992 532.312444 494.23381 589.951944 494.474556 611.782826 C 494.551595 619.034107 500.035797 621.542684 506.160386 625.134621 C 551.464041 651.732281 596.493245 678.522539 641.247998 705.515024 C 641.647637 705.760585 642.085795 705.880959 642.562473 705.876144 C 643.039151 705.871329 643.47731 705.741326 643.891393 705.490949 L 668.230853 690.757271 C 668.380116 690.665787 668.490859 690.550229 668.577528 690.400966 C 668.659382 690.251703 668.702716 690.092811 668.702716 689.924288 C 668.702716 689.750951 668.659382 689.592058 668.577528 689.44761 C 668.490859 689.298348 668.380116 689.177974 668.230853 689.091306 C 619.513414 659.845435 589.78605 642.333542 579.058391 636.560444 C 576.617223 635.260414 575.018667 633.271848 574.267538 630.589934 " stroke="#858c90" stroke-width="2" stroke-opacity="1" stroke-miterlimit="4"/></g></g><g clip-path="url(#e148fa14f1)"><g clip-path="url(#bb8ed871e3)"><path stroke-linecap="butt" transform="matrix(0.811279, 0, 0, 0.811279, -334.731067, -239.17034)" fill="none" stroke-linejoin="miter" d="M 630.592563 371.551637 C 629.947363 371.166442 629.254013 370.954586 628.502884 370.916066 C 627.756571 370.872732 627.043961 371.00755 626.360241 371.32052 L 611.578413 378.114383 C 610.81284 378.465873 610.191714 378.9907 609.719851 379.688864 C 609.247988 380.387029 608.992797 381.157417 608.949463 382.00003 C 608.906128 382.842642 609.084281 383.63229 609.48392 384.373789 C 609.878744 385.120103 610.44209 385.702709 611.169144 386.136053 L 711.589277 445.224846 C 712.277812 445.624485 713.024126 445.831527 713.823404 445.841157 C 714.622682 445.850786 715.37381 445.663004 716.071975 445.272995 L 728.682271 438.329869 C 729.028946 438.137272 729.341916 437.901341 729.630811 437.62689 C 729.914892 437.352439 730.160454 437.044284 730.36268 436.702424 C 730.569722 436.365379 730.728615 436.004259 730.834543 435.62388 C 730.945287 435.238686 731.003066 434.853492 731.012696 434.453853 C 731.022326 434.059028 730.978991 433.664204 730.882693 433.27901 C 730.786394 432.893816 730.646761 432.527881 730.454164 432.181207 C 730.261567 431.834532 730.03045 431.516747 729.756 431.227851 C 729.481549 430.94377 729.173393 430.693394 728.836348 430.491167 L 630.592563 371.551637 " stroke="#858c90" stroke-width="2" stroke-opacity="1" stroke-miterlimit="4"/></g></g><g clip-path="url(#2c87df0e1e)"><g clip-path="url(#d5fd2cd37a)"><path stroke-linecap="butt" transform="matrix(0.811279, 0, 0, 0.811279, -334.731067, -239.17034)" fill="none" stroke-linejoin="miter" d="M 738.72621 486.146917 L 738.72621 592.229404 C 738.72621 593.447581 738.885103 594.646498 739.207703 595.821341 C 739.525488 596.996183 739.997351 598.108431 740.618477 599.158085 C 741.234787 600.20774 741.985916 601.161095 742.857418 602.008523 C 743.733735 602.860765 744.70635 603.583004 745.770449 604.170425 C 746.540838 604.598954 748.856818 605.870095 752.71839 607.988663 C 757.345536 610.550204 759.661516 609.18758 759.661516 603.891159 C 759.627811 562.87279 759.598922 519.124357 759.584477 472.641044 C 759.584477 465.697919 759.916707 461.138182 754.432504 456.140287 C 753.979901 455.726203 753.479149 455.398788 752.920617 455.153227 C 752.362085 454.902851 751.779479 454.753588 751.167983 454.695809 C 750.561302 454.63803 749.959436 454.676549 749.3672 454.816182 C 748.770149 454.951 748.216433 455.182116 747.691605 455.499902 L 644.377701 518.074702 C 643.453235 518.638049 642.45173 518.926945 641.368371 518.93176 C 640.285012 518.936574 639.283508 518.657309 638.354226 518.098777 L 530.143541 453.116512 C 529.82094 452.923915 529.483896 452.769838 529.127591 452.644649 C 528.771286 452.524276 528.410167 452.437608 528.034602 452.389458 C 527.663853 452.346124 527.293103 452.336494 526.917539 452.365384 C 526.541975 452.394273 526.17604 452.461682 525.814921 452.562796 C 525.453801 452.668724 525.111941 452.808357 524.779711 452.986509 C 524.447481 453.159847 524.134511 453.366889 523.845615 453.607635 C 523.556719 453.843566 523.296713 454.113202 523.060782 454.402098 C 522.829665 454.695809 522.627438 455.008779 522.454101 455.345824 C 521.51519 457.209201 521.052957 460.127047 521.072217 464.108992 C 521.293703 504.356973 521.337038 546.993158 521.197405 592.027177 C 521.1637 599.028082 524.360812 603.992273 530.783926 606.914934 L 533.369542 608.089776 C 539.248569 610.776506 542.185675 608.893869 542.185675 602.456311 L 542.185675 485.737648 C 542.18086 485.535421 542.262714 485.381343 542.436051 485.28023 C 542.609389 485.174301 542.782726 485.174301 542.956063 485.275415 C 571.908224 502.647674 600.918163 519.952524 629.976252 537.189966 C 635.383416 540.367818 638.715346 544.157166 645.297352 540.237815 C 676.218818 521.89294 706.995836 503.649179 737.623592 485.506531 C 737.73915 485.443937 737.859523 485.410233 737.989526 485.415048 C 738.119529 485.415048 738.244717 485.448752 738.355461 485.511346 C 738.466204 485.578755 738.557687 485.670239 738.625096 485.780982 C 738.687691 485.891725 738.721395 486.016914 738.72621 486.146917 " stroke="#858c90" stroke-width="2" stroke-opacity="1" stroke-miterlimit="4"/></g></g><g clip-path="url(#639008cc43)"><g clip-path="url(#e8c1580bc5)"><path stroke-linecap="butt" transform="matrix(0.811279, 0, 0, 0.811279, -334.731067, -239.17034)" fill="none" stroke-linejoin="miter" d="M 639.43277 580.471351 C 641.055401 580.485796 642.46136 580.143936 643.660277 579.445771 C 654.898318 573.037102 666.155619 566.334723 677.43218 559.329003 C 677.778855 559.112331 678.101455 558.85714 678.385536 558.56343 C 678.674431 558.269719 678.924808 557.947119 679.136664 557.595629 C 679.348521 557.24414 679.517044 556.87339 679.642232 556.478566 C 679.76742 556.088557 679.844459 555.688918 679.873348 555.274834 C 679.902238 554.865565 679.882978 554.461111 679.810754 554.051842 C 679.743345 553.647389 679.632602 553.257379 679.468894 552.877 C 679.310002 552.501436 679.107775 552.145131 678.862213 551.812901 C 678.616652 551.485486 678.337386 551.18696 678.019601 550.922139 C 676.75809 549.862855 674.042471 547.960959 669.872743 545.211635 C 666.07858 542.698243 662.337381 542.765652 658.649147 545.413862 C 654.77313 548.201705 649.577823 551.461411 643.068041 555.20261 C 641.430965 556.127076 640.251308 556.589309 639.533884 556.589309 C 638.81646 556.589309 637.646432 556.117446 636.023801 555.178536 C 629.547724 551.384372 624.381306 548.081332 620.519734 545.259784 C 616.865204 542.57787 613.124005 542.476756 609.296138 544.951629 C 605.111965 547.672063 602.377086 549.549885 601.096316 550.589909 C 600.77853 550.85473 600.499265 551.148441 600.253703 551.475856 C 600.003327 551.803271 599.8011 552.159576 599.637393 552.53514 C 599.473685 552.910705 599.358127 553.305529 599.285903 553.709983 C 599.218494 554.114437 599.194419 554.51889 599.223309 554.928159 C 599.247383 555.342243 599.324422 555.741882 599.444795 556.136706 C 599.565169 556.526715 599.728876 556.897465 599.940733 557.253769 C 600.147775 557.605259 600.398151 557.932674 600.682232 558.226385 C 600.971128 558.520095 601.288913 558.775287 601.635588 558.996773 C 612.839924 566.103607 624.039446 572.911914 635.229338 579.416882 C 636.408996 580.119861 637.81014 580.471351 639.43277 580.471351 " stroke="#858c90" stroke-width="2" stroke-opacity="1" stroke-miterlimit="4"/></g></g><g clip-path="url(#e97df05428)"><g clip-path="url(#18ab57e15a)"><path fill="#ffffff" d="M 704.695312 -239.171875 L 704.695312 800.253906 L -334.730469 800.253906 L -334.730469 -239.171875 Z M 49.023438 187.304688 C 49.023438 231.863281 49.074219 256.398438 49.171875 260.917969 C 49.253906 264.929688 49.898438 269.671875 52.351562 272.539062 C 54.484375 275.046875 58.082031 277.714844 63.140625 280.542969 C 84.277344 292.363281 121.796875 314.648438 175.710938 347.398438 C 181.300781 350.785156 185.625 353.53125 190.96875 350.328125 C 217.175781 334.640625 258.019531 310.347656 313.496094 277.445312 C 318.347656 274.5625 320.785156 270.417969 320.8125 265.011719 C 320.882812 250.074219 320.917969 224.171875 320.917969 187.304688 C 320.917969 150.441406 320.882812 124.539062 320.8125 109.597656 C 320.785156 104.195312 318.347656 100.050781 313.496094 97.167969 C 258.019531 64.265625 217.175781 39.972656 190.96875 24.28125 C 185.625 21.082031 181.300781 23.824219 175.710938 27.214844 C 121.796875 59.960938 84.277344 82.246094 63.140625 94.070312 C 58.082031 96.898438 54.484375 99.566406 52.351562 102.074219 C 49.898438 104.941406 49.253906 109.683594 49.171875 113.695312 C 49.074219 118.210938 49.023438 142.75 49.023438 187.304688 Z M -36.167969 470.175781 C -34.15625 470.175781 -32.5 469.175781 -31.199219 467.183594 C -19.125 448.707031 -11.710938 437.667969 -8.953125 434.066406 C -8.425781 433.386719 -8.15625 433.476562 -8.144531 434.335938 C -7.628906 455.664062 -7.5 472.136719 -7.75 483.75 C -7.761719 484.320312 -7.726562 485.414062 -7.644531 487.035156 C -7.640625 487.277344 -7.546875 487.484375 -7.371094 487.652344 C -7.191406 487.824219 -6.976562 487.910156 -6.730469 487.90625 L 4.453125 487.90625 C 5.035156 487.90625 5.328125 487.617188 5.328125 487.035156 L 5.328125 406.605469 C 5.328125 406.160156 5.105469 405.9375 4.664062 405.9375 L -5.566406 405.9375 C -6.328125 405.9375 -6.910156 406.257812 -7.3125 406.894531 C -26.089844 436.84375 -35.507812 451.859375 -35.5625 451.945312 C -35.730469 452.207031 -35.9375 452.339844 -36.1875 452.339844 C -36.449219 452.339844 -36.664062 452.207031 -36.832031 451.945312 C -36.886719 451.859375 -46.339844 436.867188 -65.1875 406.957031 C -65.589844 406.320312 -66.171875 406 -66.933594 406 L -77.160156 406.042969 C -77.605469 406.042969 -77.828125 406.265625 -77.828125 406.707031 L -77.640625 487.140625 C -77.640625 487.722656 -77.347656 488.011719 -76.765625 488.011719 L -65.582031 487.96875 C -65.332031 487.96875 -65.121094 487.886719 -64.941406 487.714844 C -64.765625 487.546875 -64.671875 487.339844 -64.667969 487.097656 C -64.585938 485.476562 -64.550781 484.382812 -64.5625 483.8125 C -64.839844 472.199219 -64.75 455.726562 -64.292969 434.398438 C -64.28125 433.539062 -64.007812 433.449219 -63.484375 434.128906 C -60.710938 437.730469 -53.269531 448.757812 -41.15625 467.203125 C -39.851562 469.183594 -38.191406 470.175781 -36.167969 470.175781 Z M 66.445312 441.507812 C 59.015625 441.507812 51.636719 441.460938 44.304688 441.363281 C 44.105469 441.363281 43.933594 441.292969 43.792969 441.148438 C 43.648438 441.007812 43.578125 440.835938 43.578125 440.636719 L 43.578125 407.414062 C 43.578125 406.457031 43.101562 405.980469 42.144531 405.980469 L 31.6875 405.980469 C 30.71875 405.980469 30.230469 406.464844 30.230469 407.4375 C 30.230469 420.699219 30.246094 433.871094 30.273438 446.953125 C 30.273438 460.039062 30.28125 473.210938 30.292969 486.472656 C 30.308594 487.445312 30.800781 487.921875 31.769531 487.90625 L 42.226562 487.90625 C 43.183594 487.894531 43.65625 487.410156 43.640625 486.453125 L 43.597656 453.234375 C 43.597656 453.035156 43.667969 452.867188 43.804688 452.726562 C 43.941406 452.585938 44.109375 452.511719 44.304688 452.503906 C 51.636719 452.394531 59.023438 452.339844 66.464844 452.339844 C 73.894531 452.324219 81.273438 452.367188 88.605469 452.464844 C 88.808594 452.464844 88.980469 452.535156 89.121094 452.675781 C 89.261719 452.820312 89.332031 452.992188 89.332031 453.191406 L 89.332031 486.410156 C 89.332031 487.367188 89.8125 487.847656 90.769531 487.847656 L 101.226562 487.847656 C 102.195312 487.847656 102.679688 487.359375 102.679688 486.390625 C 102.679688 473.128906 102.667969 459.960938 102.636719 446.890625 C 102.636719 433.808594 102.625 420.636719 102.597656 407.375 C 102.597656 406.402344 102.113281 405.917969 101.140625 405.917969 L 90.683594 405.9375 C 89.730469 405.9375 89.25 406.417969 89.25 407.375 L 89.3125 440.59375 C 89.3125 440.792969 89.242188 440.964844 89.101562 441.109375 C 88.957031 441.25 88.785156 441.320312 88.585938 441.320312 C 81.253906 441.433594 73.875 441.496094 66.445312 441.507812 Z M 269.375 407.089844 C 269.375 406.945312 269.347656 406.804688 269.292969 406.671875 C 269.234375 406.535156 269.15625 406.417969 269.050781 406.3125 C 268.949219 406.210938 268.828125 406.128906 268.695312 406.074219 C 268.558594 406.019531 268.417969 405.992188 268.273438 405.992188 L 257.378906 406.011719 C 257.234375 406.011719 257.09375 406.039062 256.957031 406.09375 C 256.824219 406.152344 256.703125 406.230469 256.601562 406.335938 C 256.496094 406.4375 256.417969 406.558594 256.363281 406.691406 C 256.308594 406.828125 256.277344 406.96875 256.28125 407.113281 L 256.417969 486.777344 C 256.417969 486.921875 256.445312 487.0625 256.503906 487.199219 C 256.558594 487.332031 256.640625 487.453125 256.742188 487.554688 C 256.847656 487.65625 256.964844 487.738281 257.101562 487.792969 C 257.234375 487.847656 257.375 487.875 257.523438 487.875 L 268.414062 487.855469 C 268.5625 487.855469 268.703125 487.828125 268.835938 487.773438 C 268.972656 487.714844 269.089844 487.636719 269.195312 487.53125 C 269.296875 487.429688 269.375 487.308594 269.433594 487.175781 C 269.488281 487.039062 269.515625 486.898438 269.515625 486.753906 Z M 179.890625 458.511719 L 197.871094 458.511719 C 198.570312 458.511719 199.230469 458.671875 199.847656 458.992188 C 200.46875 459.3125 200.980469 459.753906 201.382812 460.320312 L 220.675781 487.386719 C 220.882812 487.679688 221.160156 487.828125 221.507812 487.824219 C 228.976562 487.90625 233.917969 487.941406 236.328125 487.929688 C 236.402344 487.9375 236.457031 487.90625 236.492188 487.84375 C 236.527344 487.777344 236.523438 487.714844 236.476562 487.660156 C 231.941406 481.378906 224.820312 471.671875 215.105469 458.535156 C 214.605469 457.867188 214.75 457.417969 215.542969 457.183594 C 226.976562 453.59375 233.113281 446.546875 233.960938 436.039062 C 234.984375 423.222656 230.472656 414.261719 220.425781 409.160156 C 216.296875 407.054688 209.511719 406.042969 200.074219 406.125 C 196 406.167969 184.746094 406.195312 166.3125 406.210938 C 166.125 406.210938 165.960938 406.277344 165.828125 406.410156 C 165.695312 406.542969 165.628906 406.707031 165.628906 406.894531 L 165.628906 486.347656 C 165.628906 487.445312 166.175781 487.992188 167.269531 487.992188 L 177.082031 487.992188 C 178.136719 487.992188 178.664062 487.464844 178.664062 486.410156 L 178.664062 459.738281 C 178.664062 458.921875 179.070312 458.511719 179.890625 458.511719 Z M 294.121094 407.289062 L 294.414062 486.496094 C 294.414062 486.65625 294.445312 486.8125 294.507812 486.964844 C 294.566406 487.113281 294.65625 487.246094 294.773438 487.363281 C 294.886719 487.476562 295.019531 487.566406 295.167969 487.628906 C 295.320312 487.691406 295.476562 487.722656 295.640625 487.722656 L 329.503906 487.597656 C 330.828125 487.589844 332.148438 487.523438 333.464844 487.390625 C 334.785156 487.261719 336.09375 487.066406 337.390625 486.8125 C 338.6875 486.554688 339.96875 486.238281 341.238281 485.859375 C 342.503906 485.480469 343.746094 485.039062 344.96875 484.542969 C 346.191406 484.046875 347.382812 483.488281 348.550781 482.878906 C 349.714844 482.265625 350.847656 481.601562 351.945312 480.878906 C 353.046875 480.160156 354.105469 479.386719 355.125 478.566406 C 356.148438 477.746094 357.125 476.875 358.058594 475.960938 C 358.992188 475.046875 359.875 474.089844 360.714844 473.089844 C 361.550781 472.089844 362.335938 471.050781 363.066406 469.976562 C 363.800781 468.902344 364.476562 467.796875 365.097656 466.65625 C 365.71875 465.515625 366.277344 464.351562 366.78125 463.15625 C 367.285156 461.964844 367.726562 460.75 368.105469 459.515625 C 368.488281 458.277344 368.804688 457.027344 369.058594 455.761719 C 369.3125 454.496094 369.503906 453.222656 369.628906 451.9375 C 369.753906 450.652344 369.816406 449.367188 369.8125 448.078125 L 369.8125 445.207031 C 369.808594 443.917969 369.738281 442.628906 369.605469 441.347656 C 369.472656 440.0625 369.273438 438.789062 369.011719 437.523438 C 368.75 436.257812 368.421875 435.007812 368.035156 433.773438 C 367.644531 432.539062 367.195312 431.328125 366.683594 430.136719 C 366.171875 428.945312 365.605469 427.78125 364.976562 426.644531 C 364.347656 425.511719 363.664062 424.40625 362.921875 423.335938 C 362.183594 422.265625 361.390625 421.230469 360.546875 420.238281 C 359.703125 419.242188 358.808594 418.289062 357.871094 417.378906 C 356.929688 416.472656 355.945312 415.609375 354.917969 414.792969 C 353.890625 413.976562 352.824219 413.214844 351.71875 412.5 C 350.617188 411.785156 349.476562 411.128906 348.308594 410.523438 C 347.136719 409.917969 345.9375 409.371094 344.710938 408.882812 C 343.484375 408.394531 342.238281 407.964844 340.964844 407.59375 C 339.695312 407.222656 338.410156 406.914062 337.109375 406.667969 C 335.808594 406.421875 334.5 406.234375 333.179688 406.113281 C 331.859375 405.992188 330.539062 405.933594 329.210938 405.9375 L 295.347656 406.0625 C 295.183594 406.0625 295.027344 406.09375 294.878906 406.15625 C 294.726562 406.21875 294.597656 406.308594 294.480469 406.421875 C 294.367188 406.539062 294.277344 406.671875 294.214844 406.820312 C 294.152344 406.972656 294.121094 407.128906 294.121094 407.289062 Z M 404.363281 440.074219 C 404.21875 440.074219 404.082031 440.046875 403.949219 439.992188 C 403.816406 439.9375 403.699219 439.859375 403.597656 439.757812 C 403.496094 439.65625 403.417969 439.539062 403.363281 439.40625 C 403.308594 439.273438 403.28125 439.136719 403.28125 438.992188 L 403.15625 418.164062 C 403.15625 418.019531 403.183594 417.882812 403.238281 417.75 C 403.292969 417.617188 403.371094 417.5 403.472656 417.398438 C 403.574219 417.296875 403.691406 417.21875 403.824219 417.164062 C 403.957031 417.109375 404.09375 417.082031 404.238281 417.082031 L 448.289062 416.976562 C 448.433594 416.976562 448.570312 416.949219 448.703125 416.894531 C 448.835938 416.839844 448.953125 416.761719 449.054688 416.660156 C 449.15625 416.558594 449.234375 416.441406 449.289062 416.308594 C 449.34375 416.179688 449.371094 416.039062 449.371094 415.898438 L 449.308594 407.3125 C 449.308594 407.167969 449.28125 407.03125 449.226562 406.898438 C 449.171875 406.765625 449.09375 406.648438 448.992188 406.546875 C 448.890625 406.445312 448.773438 406.367188 448.640625 406.3125 C 448.507812 406.257812 448.371094 406.230469 448.226562 406.230469 L 391.265625 406.148438 C 391.125 406.148438 390.984375 406.175781 390.851562 406.230469 C 390.71875 406.285156 390.601562 406.363281 390.503906 406.464844 C 390.402344 406.566406 390.324219 406.683594 390.269531 406.8125 C 390.210938 406.945312 390.183594 407.085938 390.183594 407.226562 L 390.394531 486.765625 C 390.394531 486.90625 390.421875 487.046875 390.476562 487.179688 C 390.53125 487.3125 390.609375 487.425781 390.710938 487.527344 C 390.8125 487.628906 390.929688 487.707031 391.058594 487.761719 C 391.191406 487.816406 391.332031 487.84375 391.472656 487.847656 L 448.246094 487.804688 C 448.390625 487.804688 448.527344 487.777344 448.65625 487.722656 C 448.789062 487.671875 448.902344 487.59375 449.003906 487.496094 C 449.105469 487.394531 449.183594 487.28125 449.242188 487.152344 C 449.296875 487.019531 449.324219 486.886719 449.328125 486.742188 L 449.472656 478.035156 C 449.476562 477.886719 449.453125 477.75 449.398438 477.613281 C 449.34375 477.480469 449.265625 477.359375 449.164062 477.253906 C 449.0625 477.152344 448.945312 477.070312 448.8125 477.015625 C 448.679688 476.960938 448.539062 476.933594 448.394531 476.933594 L 404.550781 476.828125 C 404.40625 476.828125 404.269531 476.800781 404.136719 476.746094 C 404.003906 476.691406 403.886719 476.613281 403.785156 476.511719 C 403.683594 476.410156 403.605469 476.292969 403.550781 476.160156 C 403.496094 476.027344 403.46875 475.890625 403.46875 475.746094 L 403.34375 451.964844 C 403.34375 451.820312 403.371094 451.683594 403.425781 451.550781 C 403.480469 451.417969 403.558594 451.300781 403.660156 451.199219 C 403.761719 451.097656 403.878906 451.019531 404.011719 450.964844 C 404.144531 450.910156 404.28125 450.882812 404.425781 450.882812 L 443.632812 451.027344 C 443.777344 451.027344 443.914062 451 444.046875 450.945312 C 444.179688 450.890625 444.296875 450.8125 444.398438 450.710938 C 444.5 450.613281 444.578125 450.496094 444.632812 450.363281 C 444.6875 450.230469 444.714844 450.089844 444.714844 449.949219 L 444.796875 441.257812 C 444.796875 441.113281 444.769531 440.976562 444.714844 440.84375 C 444.660156 440.710938 444.582031 440.59375 444.480469 440.496094 C 444.378906 440.394531 444.261719 440.316406 444.128906 440.261719 C 443.996094 440.207031 443.859375 440.175781 443.714844 440.175781 Z M 404.363281 440.074219 " fill-opacity="1" fill-rule="nonzero"/></g></g><g clip-path="url(#2f33933c6f)"><g clip-path="url(#a35d2f8863)"><path fill="#000000" d="M 320.917969 187.304688 C 320.917969 224.171875 320.882812 250.074219 320.8125 265.011719 C 320.785156 270.417969 318.347656 274.5625 313.496094 277.445312 C 258.019531 310.347656 217.175781 334.640625 190.96875 350.328125 C 185.625 353.53125 181.300781 350.785156 175.710938 347.398438 C 121.796875 314.648438 84.277344 292.363281 63.140625 280.542969 C 58.082031 277.714844 54.484375 275.046875 52.351562 272.539062 C 49.898438 269.671875 49.253906 264.929688 49.171875 260.917969 C 49.074219 256.398438 49.023438 231.863281 49.023438 187.304688 C 49.023438 142.75 49.074219 118.210938 49.171875 113.695312 C 49.253906 109.683594 49.898438 104.941406 52.351562 102.074219 C 54.484375 99.566406 58.082031 96.898438 63.140625 94.070312 C 84.277344 82.246094 121.796875 59.960938 175.710938 27.214844 C 181.300781 23.824219 185.625 21.082031 190.96875 24.28125 C 217.175781 39.972656 258.019531 64.265625 313.496094 97.167969 C 318.347656 100.050781 320.785156 104.195312 320.8125 109.597656 C 320.882812 124.539062 320.917969 150.441406 320.917969 187.304688 Z M 131.160156 272.414062 C 131.027344 271.941406 131.046875 271.476562 131.226562 271.023438 C 131.402344 270.566406 131.699219 270.214844 132.117188 269.960938 L 142.761719 263.515625 C 143.507812 263.0625 144.320312 262.832031 145.191406 262.828125 C 146.066406 262.824219 146.878906 263.046875 147.625 263.496094 L 222.691406 308.585938 C 223.207031 308.894531 223.753906 309.125 224.328125 309.285156 C 224.90625 309.445312 225.496094 309.523438 226.09375 309.519531 C 226.691406 309.519531 227.28125 309.4375 227.855469 309.273438 C 228.433594 309.113281 228.976562 308.875 229.488281 308.566406 L 300.253906 265.699219 C 300.808594 265.363281 301.3125 264.960938 301.761719 264.496094 C 302.210938 264.027344 302.597656 263.511719 302.914062 262.945312 C 303.230469 262.378906 303.46875 261.78125 303.632812 261.152344 C 303.792969 260.523438 303.875 259.882812 303.871094 259.234375 C 303.800781 171.976562 303.726562 124.074219 303.644531 115.523438 C 303.601562 110.304688 297.324219 107.332031 293.539062 105.128906 C 260.597656 85.863281 225.636719 65.144531 188.660156 42.972656 C 188.238281 42.71875 187.785156 42.523438 187.308594 42.390625 C 186.832031 42.257812 186.347656 42.191406 185.851562 42.1875 C 185.355469 42.1875 184.867188 42.25 184.386719 42.378906 C 183.910156 42.507812 183.457031 42.699219 183.027344 42.949219 C 150.984375 61.714844 113.925781 83.441406 71.851562 108.121094 C 68.011719 110.367188 66.09375 113.285156 66.09375 116.875 C 66.121094 192.683594 66.230469 239.445312 66.425781 257.15625 C 66.488281 263.039062 70.9375 265.074219 75.90625 267.988281 C 112.660156 289.566406 149.191406 311.300781 185.5 333.199219 C 185.824219 333.398438 186.179688 333.496094 186.566406 333.492188 C 186.953125 333.488281 187.308594 333.382812 187.644531 333.179688 L 207.390625 321.226562 C 207.511719 321.152344 207.601562 321.058594 207.671875 320.9375 C 207.738281 320.816406 207.773438 320.6875 207.773438 320.550781 C 207.773438 320.410156 207.738281 320.28125 207.671875 320.164062 C 207.601562 320.042969 207.511719 319.945312 207.390625 319.875 C 167.867188 296.148438 143.75 281.941406 135.046875 277.257812 C 133.066406 276.203125 131.769531 274.589844 131.160156 272.414062 Z M 131.160156 272.414062 " fill-opacity="1" fill-rule="nonzero"/></g></g><g clip-path="url(#04da5e9c8d)"><g clip-path="url(#87e4d9a218)"><path fill="#ffffff" d="M 131.160156 272.414062 C 131.769531 274.589844 133.066406 276.203125 135.046875 277.257812 C 143.75 281.941406 167.867188 296.148438 207.390625 319.875 C 207.511719 319.945312 207.601562 320.042969 207.671875 320.164062 C 207.738281 320.28125 207.773438 320.410156 207.773438 320.550781 C 207.773438 320.6875 207.738281 320.816406 207.671875 320.9375 C 207.601562 321.058594 207.511719 321.152344 207.390625 321.226562 L 187.644531 333.179688 C 187.308594 333.382812 186.953125 333.488281 186.566406 333.492188 C 186.179688 333.496094 185.824219 333.398438 185.5 333.199219 C 149.191406 311.300781 112.660156 289.566406 75.90625 267.988281 C 70.9375 265.074219 66.488281 263.039062 66.425781 257.15625 C 66.230469 239.445312 66.121094 192.683594 66.09375 116.875 C 66.09375 113.285156 68.011719 110.367188 71.851562 108.121094 C 113.925781 83.441406 150.984375 61.714844 183.027344 42.949219 C 183.457031 42.699219 183.910156 42.507812 184.386719 42.378906 C 184.867188 42.25 185.355469 42.1875 185.851562 42.1875 C 186.347656 42.191406 186.832031 42.257812 187.308594 42.390625 C 187.785156 42.523438 188.238281 42.71875 188.660156 42.972656 C 225.636719 65.144531 260.597656 85.863281 293.539062 105.128906 C 297.324219 107.332031 303.601562 110.304688 303.644531 115.523438 C 303.726562 124.074219 303.800781 171.976562 303.871094 259.234375 C 303.875 259.882812 303.792969 260.523438 303.632812 261.152344 C 303.46875 261.78125 303.230469 262.378906 302.914062 262.945312 C 302.597656 263.511719 302.210938 264.027344 301.761719 264.496094 C 301.3125 264.960938 300.808594 265.363281 300.253906 265.699219 L 229.488281 308.566406 C 228.976562 308.875 228.433594 309.113281 227.855469 309.273438 C 227.28125 309.4375 226.691406 309.519531 226.09375 309.519531 C 225.496094 309.523438 224.90625 309.445312 224.328125 309.285156 C 223.753906 309.125 223.207031 308.894531 222.691406 308.585938 L 147.625 263.496094 C 146.878906 263.046875 146.066406 262.824219 145.191406 262.828125 C 144.320312 262.832031 143.507812 263.0625 142.761719 263.515625 L 132.117188 269.960938 C 131.699219 270.214844 131.402344 270.566406 131.226562 271.023438 C 131.046875 271.476562 131.027344 271.941406 131.160156 272.414062 Z M 176.855469 62.261719 C 176.332031 61.949219 175.769531 61.777344 175.160156 61.746094 C 174.554688 61.710938 173.976562 61.820312 173.421875 62.074219 L 161.429688 67.585938 C 160.808594 67.871094 160.304688 68.296875 159.921875 68.863281 C 159.539062 69.429688 159.332031 70.054688 159.296875 70.738281 C 159.261719 71.421875 159.40625 72.0625 159.730469 72.664062 C 160.050781 73.269531 160.507812 73.742188 161.097656 74.09375 L 242.566406 122.03125 C 243.125 122.355469 243.730469 122.523438 244.378906 122.53125 C 245.027344 122.539062 245.636719 122.386719 246.203125 122.070312 L 256.433594 116.4375 C 256.714844 116.28125 256.96875 116.089844 257.203125 115.867188 C 257.433594 115.644531 257.632812 115.394531 257.796875 115.117188 C 257.964844 114.84375 258.09375 114.550781 258.179688 114.242188 C 258.269531 113.929688 258.316406 113.617188 258.324219 113.292969 C 258.332031 112.972656 258.296875 112.652344 258.21875 112.339844 C 258.140625 112.027344 258.027344 111.730469 257.871094 111.449219 C 257.714844 111.167969 257.527344 110.910156 257.304688 110.675781 C 257.082031 110.445312 256.832031 110.242188 256.558594 110.078125 Z M 264.582031 155.230469 L 264.582031 241.292969 C 264.582031 242.28125 264.710938 243.253906 264.972656 244.207031 C 265.230469 245.160156 265.613281 246.0625 266.117188 246.914062 C 266.617188 247.765625 267.226562 248.539062 267.933594 249.226562 C 268.644531 249.917969 269.433594 250.503906 270.296875 250.980469 C 270.921875 251.328125 272.800781 252.359375 275.933594 254.078125 C 279.6875 256.15625 281.566406 255.050781 281.566406 250.753906 C 281.539062 217.476562 281.515625 181.984375 281.503906 144.273438 C 281.503906 138.640625 281.773438 134.941406 277.324219 130.886719 C 276.957031 130.550781 276.550781 130.285156 276.097656 130.085938 C 275.644531 129.882812 275.171875 129.761719 274.675781 129.714844 C 274.183594 129.667969 273.695312 129.699219 273.214844 129.8125 C 272.730469 129.921875 272.28125 130.109375 271.855469 130.367188 L 188.039062 181.132812 C 187.289062 181.589844 186.476562 181.824219 185.597656 181.828125 C 184.71875 181.832031 183.90625 181.605469 183.152344 181.152344 L 95.363281 128.433594 C 95.101562 128.277344 94.828125 128.152344 94.539062 128.050781 C 94.25 127.953125 93.957031 127.882812 93.652344 127.84375 C 93.351562 127.808594 93.050781 127.800781 92.746094 127.824219 C 92.441406 127.847656 92.144531 127.902344 91.851562 127.984375 C 91.558594 128.070312 91.28125 128.183594 91.011719 128.328125 C 90.742188 128.46875 90.488281 128.636719 90.253906 128.832031 C 90.019531 129.023438 89.808594 129.242188 89.617188 129.476562 C 89.429688 129.714844 89.265625 129.96875 89.125 130.242188 C 88.363281 131.753906 87.988281 134.121094 88.003906 137.351562 C 88.183594 170.003906 88.21875 204.59375 88.105469 241.128906 C 88.078125 246.808594 90.671875 250.835938 95.882812 253.207031 L 97.980469 254.160156 C 102.75 256.335938 105.132812 254.8125 105.132812 249.589844 L 105.132812 154.898438 C 105.128906 154.734375 105.195312 154.609375 105.335938 154.527344 C 105.476562 154.441406 105.617188 154.441406 105.757812 154.523438 C 129.246094 168.617188 152.78125 182.65625 176.355469 196.640625 C 180.742188 199.21875 183.445312 202.292969 188.785156 199.113281 C 213.871094 184.230469 238.839844 169.429688 263.6875 154.710938 C 263.78125 154.660156 263.878906 154.632812 263.984375 154.636719 C 264.089844 154.636719 264.191406 154.664062 264.28125 154.714844 C 264.371094 154.769531 264.445312 154.84375 264.5 154.933594 C 264.550781 155.023438 264.578125 155.125 264.582031 155.230469 Z M 184.027344 231.753906 C 185.34375 231.765625 186.484375 231.488281 187.457031 230.921875 C 196.574219 225.722656 205.707031 220.285156 214.855469 214.601562 C 215.136719 214.425781 215.398438 214.21875 215.628906 213.980469 C 215.863281 213.742188 216.066406 213.480469 216.238281 213.195312 C 216.410156 212.910156 216.546875 212.609375 216.648438 212.289062 C 216.75 211.972656 216.8125 211.648438 216.835938 211.3125 C 216.859375 210.980469 216.839844 210.652344 216.785156 210.320312 C 216.730469 209.992188 216.640625 209.675781 216.507812 209.367188 C 216.378906 209.0625 216.214844 208.773438 216.015625 208.503906 C 215.816406 208.238281 215.589844 207.996094 215.332031 207.78125 C 214.308594 206.921875 212.105469 205.378906 208.722656 203.148438 C 205.644531 201.109375 202.609375 201.164062 199.617188 203.3125 C 196.472656 205.574219 192.257812 208.21875 186.976562 211.253906 C 185.648438 212.003906 184.691406 212.378906 184.109375 212.378906 C 183.527344 212.378906 182.578125 211.996094 181.261719 211.234375 C 176.007812 208.15625 171.816406 205.476562 168.683594 203.1875 C 165.71875 201.011719 162.683594 200.929688 159.578125 202.9375 C 156.183594 205.144531 153.964844 206.667969 152.925781 207.511719 C 152.667969 207.726562 152.441406 207.964844 152.242188 208.230469 C 152.039062 208.496094 151.875 208.785156 151.742188 209.089844 C 151.609375 209.394531 151.515625 209.714844 151.457031 210.042969 C 151.402344 210.371094 151.382812 210.699219 151.40625 211.03125 C 151.425781 211.367188 151.488281 211.691406 151.585938 212.011719 C 151.683594 212.328125 151.816406 212.628906 151.988281 212.917969 C 152.15625 213.203125 152.359375 213.46875 152.589844 213.707031 C 152.824219 213.945312 153.082031 214.152344 153.363281 214.332031 C 162.453125 220.097656 171.539062 225.621094 180.617188 230.898438 C 181.574219 231.46875 182.710938 231.753906 184.027344 231.753906 Z M 184.027344 231.753906 " fill-opacity="1" fill-rule="nonzero"/></g></g><g clip-path="url(#5e85848aab)"><g clip-path="url(#f0c84dbd53)"><path fill="#000000" d="M 176.855469 62.261719 L 256.558594 110.078125 C 256.832031 110.242188 257.082031 110.445312 257.304688 110.675781 C 257.527344 110.910156 257.714844 111.167969 257.871094 111.449219 C 258.027344 111.730469 258.140625 112.027344 258.21875 112.339844 C 258.296875 112.652344 258.332031 112.972656 258.324219 113.292969 C 258.316406 113.617188 258.269531 113.929688 258.179688 114.242188 C 258.09375 114.550781 257.964844 114.84375 257.796875 115.117188 C 257.632812 115.394531 257.433594 115.644531 257.203125 115.867188 C 256.96875 116.089844 256.714844 116.28125 256.433594 116.4375 L 246.203125 122.070312 C 245.636719 122.386719 245.027344 122.539062 244.378906 122.53125 C 243.730469 122.523438 243.125 122.355469 242.566406 122.03125 L 161.097656 74.09375 C 160.507812 73.742188 160.050781 73.269531 159.730469 72.664062 C 159.40625 72.0625 159.261719 71.421875 159.296875 70.738281 C 159.332031 70.054688 159.539062 69.429688 159.921875 68.863281 C 160.304688 68.296875 160.808594 67.871094 161.429688 67.585938 L 173.421875 62.074219 C 173.976562 61.820312 174.554688 61.710938 175.160156 61.746094 C 175.769531 61.777344 176.332031 61.949219 176.855469 62.261719 Z M 176.855469 62.261719 " fill-opacity="1" fill-rule="nonzero"/></g></g><g clip-path="url(#4a484c35e2)"><g clip-path="url(#2c5a822af0)"><path fill="#000000" d="M 264.582031 155.230469 C 264.578125 155.125 264.550781 155.023438 264.5 154.933594 C 264.445312 154.84375 264.371094 154.769531 264.28125 154.714844 C 264.191406 154.664062 264.089844 154.636719 263.984375 154.636719 C 263.878906 154.632812 263.78125 154.660156 263.6875 154.710938 C 238.839844 169.429688 213.871094 184.230469 188.785156 199.113281 C 183.445312 202.292969 180.742188 199.21875 176.355469 196.640625 C 152.78125 182.65625 129.246094 168.617188 105.757812 154.523438 C 105.617188 154.441406 105.476562 154.441406 105.335938 154.527344 C 105.195312 154.609375 105.128906 154.734375 105.132812 154.898438 L 105.132812 249.589844 C 105.132812 254.8125 102.75 256.335938 97.980469 254.160156 L 95.882812 253.207031 C 90.671875 250.835938 88.078125 246.808594 88.105469 241.128906 C 88.21875 204.59375 88.183594 170.003906 88.003906 137.351562 C 87.988281 134.121094 88.363281 131.753906 89.125 130.242188 C 89.265625 129.96875 89.429688 129.714844 89.617188 129.476562 C 89.808594 129.242188 90.019531 129.023438 90.253906 128.832031 C 90.488281 128.636719 90.742188 128.46875 91.011719 128.328125 C 91.28125 128.183594 91.558594 128.070312 91.851562 127.984375 C 92.144531 127.902344 92.441406 127.847656 92.746094 127.824219 C 93.050781 127.800781 93.351562 127.808594 93.652344 127.84375 C 93.957031 127.882812 94.25 127.953125 94.539062 128.050781 C 94.828125 128.152344 95.101562 128.277344 95.363281 128.433594 L 183.152344 181.152344 C 183.90625 181.605469 184.71875 181.832031 185.597656 181.828125 C 186.476562 181.824219 187.289062 181.589844 188.039062 181.132812 L 271.855469 130.367188 C 272.28125 130.109375 272.730469 129.921875 273.214844 129.8125 C 273.695312 129.699219 274.183594 129.667969 274.675781 129.714844 C 275.171875 129.761719 275.644531 129.882812 276.097656 130.085938 C 276.550781 130.285156 276.957031 130.550781 277.324219 130.886719 C 281.773438 134.941406 281.503906 138.640625 281.503906 144.273438 C 281.515625 181.984375 281.539062 217.476562 281.566406 250.753906 C 281.566406 255.050781 279.6875 256.15625 275.933594 254.078125 C 272.800781 252.359375 270.921875 251.328125 270.296875 250.980469 C 269.433594 250.503906 268.644531 249.917969 267.933594 249.226562 C 267.226562 248.539062 266.617188 247.765625 266.117188 246.914062 C 265.613281 246.0625 265.230469 245.160156 264.972656 244.207031 C 264.710938 243.253906 264.582031 242.28125 264.582031 241.292969 Z M 264.582031 155.230469 " fill-opacity="1" fill-rule="nonzero"/></g></g><g clip-path="url(#674e21a79f)"><g clip-path="url(#9fd5f972e5)"><path fill="#000000" d="M 184.109375 212.378906 C 184.691406 212.378906 185.648438 212.003906 186.976562 211.253906 C 192.257812 208.21875 196.472656 205.574219 199.617188 203.3125 C 202.609375 201.164062 205.644531 201.109375 208.722656 203.148438 C 212.105469 205.378906 214.308594 206.921875 215.332031 207.78125 C 215.589844 207.996094 215.816406 208.238281 216.015625 208.503906 C 216.214844 208.773438 216.378906 209.0625 216.507812 209.367188 C 216.640625 209.675781 216.730469 209.992188 216.785156 210.320312 C 216.84375 210.652344 216.859375 210.980469 216.835938 211.3125 C 216.8125 211.648438 216.75 211.972656 216.648438 212.289062 C 216.546875 212.609375 216.410156 212.910156 216.238281 213.195312 C 216.066406 213.480469 215.863281 213.742188 215.628906 213.980469 C 215.398438 214.21875 215.136719 214.425781 214.855469 214.601562 C 205.707031 220.285156 196.574219 225.722656 187.457031 230.921875 C 186.484375 231.488281 185.34375 231.765625 184.027344 231.753906 C 182.710938 231.753906 181.574219 231.46875 180.617188 230.898438 C 171.539062 225.621094 162.453125 220.097656 153.363281 214.332031 C 153.082031 214.152344 152.824219 213.945312 152.589844 213.707031 C 152.359375 213.46875 152.15625 213.203125 151.988281 212.917969 C 151.816406 212.628906 151.683594 212.328125 151.585938 212.011719 C 151.488281 211.691406 151.425781 211.367188 151.40625 211.03125 C 151.382812 210.699219 151.402344 210.371094 151.457031 210.042969 C 151.515625 209.714844 151.609375 209.394531 151.742188 209.089844 C 151.875 208.785156 152.039062 208.496094 152.242188 208.230469 C 152.441406 207.964844 152.667969 207.726562 152.925781 207.511719 C 153.964844 206.667969 156.183594 205.144531 159.578125 202.9375 C 162.683594 200.929688 165.71875 201.011719 168.683594 203.1875 C 171.816406 205.476562 176.007812 208.15625 181.261719 211.234375 C 182.578125 211.996094 183.527344 212.378906 184.109375 212.378906 Z M 184.109375 212.378906 " fill-opacity="1" fill-rule="nonzero"/></g></g><g clip-path="url(#f3c9a8afa9)"><path stroke-linecap="butt" transform="matrix(0.811279, 0, 0, 0.811279, -334.178705, -240.543587)" fill="none" stroke-linejoin="miter" d="M 473.026919 525.684942 C 473.026919 580.604007 473.084698 610.851383 473.205071 616.422255 C 473.306185 621.367185 474.100648 627.207693 477.124422 630.74185 C 479.758188 633.837848 484.187921 637.126444 490.423253 640.607637 C 516.476827 655.182423 562.729023 682.651586 629.17984 723.015125 C 636.074817 727.194482 641.404942 730.574561 647.986948 726.631136 C 680.295113 707.294386 730.635182 677.345535 799.021601 636.789399 C 804.996926 633.235982 808.006256 628.132159 808.039961 621.468299 C 808.126629 603.0512 808.165149 571.123415 808.165149 525.684942 C 808.165149 480.241654 808.126629 448.313868 808.039961 429.901584 C 808.006256 423.237724 804.996926 418.129086 799.021601 414.575669 C 730.635182 374.019533 680.295113 344.075497 647.986948 324.738748 C 641.404942 320.790507 636.074817 324.175401 629.17984 328.349943 C 562.729023 368.718297 516.476827 396.18746 490.423253 410.757431 C 484.187921 414.243439 479.758188 417.532035 477.124422 420.623218 C 474.100648 424.16219 473.306185 430.002698 473.205071 434.947628 C 473.084698 440.5185 473.026919 470.761061 473.026919 525.684942 " stroke="#858c90" stroke-width="2" stroke-opacity="1" stroke-miterlimit="4"/><path stroke-linecap="butt" transform="matrix(0.811279, 0, 0, 0.811279, -334.178705, -240.543587)" fill="none" stroke-linejoin="miter" d="M 574.265589 630.592587 C 574.101882 630.009981 574.130771 629.437004 574.347443 628.873658 C 574.56893 628.315126 574.934864 627.876968 575.445247 627.568812 L 588.565925 619.624182 C 589.490391 619.060835 590.487081 618.781569 591.565625 618.776754 C 592.639354 618.771939 593.640859 619.04639 594.56051 619.595292 L 687.093791 675.178818 C 687.724547 675.554382 688.398636 675.843278 689.111246 676.035875 C 689.823855 676.233287 690.546094 676.329586 691.287593 676.329586 C 692.024277 676.324771 692.746516 676.223657 693.459125 676.026245 C 694.16692 675.824018 694.84101 675.535122 695.471765 675.149928 L 782.698996 622.315726 C 783.377901 621.901642 783.999027 621.405705 784.557558 620.827914 C 785.111275 620.254937 785.583138 619.619367 785.973147 618.921202 C 786.363156 618.223038 786.661682 617.486354 786.859094 616.71115 C 787.061321 615.935947 787.157619 615.146299 787.152804 614.342206 C 787.07095 506.791165 786.974652 447.740891 786.873538 437.201015 C 786.820574 430.773086 779.082985 427.108926 774.422135 424.393307 C 733.813035 400.646083 690.724246 375.107707 645.146141 347.773362 C 644.621313 347.460392 644.067597 347.219645 643.480176 347.055938 C 642.892754 346.89223 642.290888 346.810376 641.679393 346.810376 C 641.067897 346.805561 640.466031 346.8826 639.87861 347.046308 C 639.286374 347.2052 638.727842 347.436317 638.203015 347.749287 C 598.706163 370.8802 553.026943 397.656013 501.160542 428.081541 C 496.427468 430.850125 494.063338 434.442061 494.063338 438.86698 C 494.097043 532.310282 494.236676 589.949782 494.472607 611.780664 C 494.549646 619.031945 500.033849 621.545338 506.158437 625.132459 C 551.462092 651.73012 596.491296 678.525193 641.250864 705.517677 C 641.650503 705.758424 642.088661 705.878797 642.560524 705.873982 C 643.037202 705.869167 643.480176 705.743979 643.889444 705.488788 L 668.233719 690.755109 C 668.378167 690.66844 668.493725 690.548067 668.575579 690.403619 C 668.662248 690.254357 668.700767 690.095464 668.700767 689.922126 C 668.700767 689.753604 668.662248 689.594711 668.575579 689.445449 C 668.493725 689.296186 668.378167 689.180628 668.233719 689.089144 C 619.511465 659.843273 589.788916 642.336196 579.061257 636.563097 C 576.615274 635.263067 575.021533 633.274502 574.265589 630.592587 " stroke="#858c90" stroke-width="2" stroke-opacity="1" stroke-miterlimit="4"/></g><g clip-path="url(#36d459a429)"><path stroke-linecap="butt" transform="matrix(0.811279, 0, 0, 0.811279, -334.178705, -240.543587)" fill="none" stroke-linejoin="miter" d="M 630.590614 371.55429 C 629.950229 371.169096 629.252064 370.957239 628.50575 370.913905 C 627.754622 370.875385 627.042012 371.010203 626.363107 371.323173 L 611.576464 378.112221 C 610.810891 378.468526 610.19458 378.993353 609.722717 379.691518 C 609.250854 380.389682 608.990848 381.160071 608.947514 381.997868 C 608.90418 382.840481 609.082332 383.634944 609.481971 384.376442 C 609.88161 385.117941 610.440141 385.705363 611.167196 386.133891 L 711.587328 445.222684 C 712.280678 445.627138 713.026992 445.83418 713.82627 445.84381 C 714.625548 445.85344 715.371862 445.660843 716.074841 445.275648 L 728.680322 438.332523 C 729.026997 438.139926 729.344782 437.903994 729.628863 437.629543 C 729.912943 437.350277 730.158505 437.042122 730.365547 436.705077 C 730.567773 436.363217 730.726666 436.002098 730.837409 435.621718 C 730.948153 435.241339 731.005932 434.85133 731.015562 434.456506 C 731.020377 434.056867 730.977042 433.666858 730.880744 433.281663 C 730.78926 432.896469 730.644812 432.530535 730.452215 432.179045 C 730.264433 431.83237 730.028502 431.514585 729.754051 431.230504 C 729.4796 430.941609 729.171444 430.696047 728.834399 430.489005 L 630.590614 371.55429 " stroke="#858c90" stroke-width="2" stroke-opacity="1" stroke-miterlimit="4"/></g><g clip-path="url(#4d900442cd)"><path stroke-linecap="butt" transform="matrix(0.811279, 0, 0, 0.811279, -334.178705, -240.543587)" fill="none" stroke-linejoin="miter" d="M 738.724261 486.144755 L 738.724261 592.232058 C 738.724261 593.450234 738.883154 594.644337 739.205754 595.819179 C 739.528354 596.998836 739.995402 598.111084 740.616528 599.160739 C 741.237653 600.210393 741.983967 601.158934 742.860284 602.011176 C 743.731786 602.858603 744.704401 603.580842 745.773315 604.173079 C 746.538889 604.596792 748.854869 605.872748 752.716441 607.991316 C 757.343587 610.552858 759.659567 609.185418 759.659567 603.888998 C 759.625862 562.875443 759.601788 519.122195 759.582528 472.643698 C 759.582528 465.695757 759.914758 461.13602 754.430555 456.138125 C 753.982767 455.728857 753.4772 455.401441 752.918668 455.151065 C 752.360136 454.905504 751.77753 454.751426 751.170849 454.693647 C 750.564168 454.635868 749.962302 454.679202 749.365251 454.81402 C 748.773015 454.953653 748.214484 455.179955 747.694471 455.49774 L 644.375752 518.072541 C 643.456101 518.640702 642.449781 518.924783 641.371237 518.929598 C 640.287878 518.934413 639.281559 518.659962 638.352278 518.10143 L 530.141592 453.114351 C 529.818992 452.926569 529.481947 452.767676 529.125642 452.647303 C 528.774152 452.522115 528.408218 452.440261 528.037468 452.392112 C 527.666719 452.343962 527.291154 452.334332 526.91559 452.363222 C 526.544841 452.392112 526.174091 452.459521 525.817787 452.565449 C 525.456667 452.666562 525.109992 452.81101 524.777762 452.984348 C 524.445532 453.157685 524.137377 453.369542 523.848481 453.605473 C 523.559585 453.84622 523.294764 454.111041 523.063648 454.404751 C 522.827716 454.698462 522.625489 455.011432 522.456967 455.343662 C 521.518056 457.207039 521.055823 460.1297 521.070268 464.106831 C 521.291755 504.354812 521.335089 546.995812 521.200271 592.025016 C 521.166566 599.030736 524.358863 603.990111 530.781977 606.912772 L 533.372408 608.09243 C 539.24662 610.774344 542.188541 608.896523 542.188541 602.454149 L 542.188541 485.735486 C 542.178911 485.533259 542.260765 485.383996 542.434102 485.278068 C 542.60744 485.176955 542.780777 485.17214 542.954114 485.273253 C 571.91109 502.645512 600.916214 519.950363 629.974303 537.187804 C 635.381467 540.365656 638.713397 544.159819 645.300218 540.240468 C 676.216869 521.890778 706.993887 503.647017 737.621643 485.50437 C 737.737201 485.441776 737.857574 485.412886 737.992392 485.412886 C 738.122395 485.412886 738.242768 485.44659 738.353512 485.513999 C 738.46907 485.576594 738.555739 485.668077 738.623148 485.77882 C 738.690557 485.894379 738.724261 486.014752 738.724261 486.144755 " stroke="#858c90" stroke-width="2" stroke-opacity="1" stroke-miterlimit="4"/></g><path stroke-linecap="butt" transform="matrix(0.811279, 0, 0, 0.811279, -334.178705, -240.543587)" fill="none" stroke-linejoin="miter" d="M 639.430821 580.469189 C 641.053452 580.483634 642.464226 580.146589 643.658328 579.44361 C 654.901184 573.039756 666.158485 566.332561 677.430231 559.326842 C 677.781721 559.11017 678.099506 558.854979 678.388402 558.561268 C 678.677297 558.272372 678.927674 557.949772 679.13953 557.598283 C 679.351387 557.241978 679.51991 556.871228 679.640283 556.481219 C 679.765471 556.086395 679.84251 555.686756 679.871399 555.277487 C 679.900289 554.868219 679.881029 554.45895 679.81362 554.054496 C 679.746211 553.650042 679.630653 553.255218 679.47176 552.879653 C 679.308053 552.499274 679.105826 552.147784 678.860265 551.815554 C 678.614703 551.483324 678.335437 551.189614 678.022467 550.924793 C 676.756141 549.865509 674.040522 547.958797 669.870794 545.209473 C 666.081446 542.700896 662.340248 542.768305 658.647198 545.416515 C 654.771181 548.199544 649.575874 551.464065 643.070907 555.205263 C 641.429016 556.124915 640.249359 556.587148 639.531935 556.587148 C 638.814511 556.587148 637.644483 556.115285 636.021853 555.176374 C 629.55059 551.387026 624.379357 548.07917 620.517785 545.262438 C 616.863255 542.580523 613.122056 542.474595 609.294189 544.954282 C 605.110016 547.669902 602.379952 549.547723 601.094367 550.592563 C 600.781396 550.852569 600.497316 551.146279 600.251754 551.478509 C 600.006193 551.805924 599.799151 552.157414 599.640259 552.537794 C 599.476551 552.913358 599.356178 553.303367 599.288769 553.707821 C 599.216545 554.112275 599.197285 554.521544 599.22136 554.930813 C 599.250249 555.340081 599.322473 555.73972 599.442847 556.134545 C 599.56322 556.524554 599.731742 556.900118 599.938784 557.251608 C 600.150641 557.607912 600.396202 557.930513 600.685098 558.224223 C 600.969179 558.517934 601.286964 558.77794 601.633639 558.994612 C 612.84279 566.101445 624.037497 572.909753 635.227389 579.419535 C 636.407047 580.1177 637.808191 580.469189 639.430821 580.469189 " stroke="#858c90" stroke-width="2" stroke-opacity="1" stroke-miterlimit="4"/><g clip-path="url(#f68c8b8dbc)"><path fill="#ffffff" d="M 705.246094 -240.542969 L 705.246094 798.882812 L -334.179688 798.882812 L -334.179688 -240.542969 Z M 49.578125 185.933594 C 49.578125 230.488281 49.625 255.027344 49.722656 259.546875 C 49.804688 263.558594 50.449219 268.296875 52.902344 271.164062 C 55.039062 273.675781 58.632812 276.34375 63.691406 279.167969 C 84.828125 290.992188 122.351562 313.277344 176.261719 346.023438 C 181.855469 349.414062 186.179688 352.15625 191.519531 348.957031 C 217.730469 333.269531 258.570312 308.972656 314.050781 276.070312 C 318.898438 273.1875 321.339844 269.046875 321.367188 263.640625 C 321.4375 248.699219 321.46875 222.796875 321.46875 185.933594 C 321.46875 149.066406 321.4375 123.164062 321.367188 108.226562 C 321.339844 102.820312 318.898438 98.675781 314.050781 95.792969 C 258.570312 62.890625 217.730469 38.597656 191.519531 22.910156 C 186.179688 19.707031 181.855469 22.453125 176.261719 25.839844 C 122.351562 58.589844 84.828125 80.875 63.691406 92.695312 C 58.632812 95.523438 55.039062 98.191406 52.902344 100.699219 C 50.449219 103.570312 49.804688 108.308594 49.722656 112.320312 C 49.625 116.839844 49.578125 141.375 49.578125 185.933594 Z M -35.613281 468.800781 C -33.605469 468.800781 -31.949219 467.804688 -30.644531 465.808594 C -18.574219 447.335938 -11.160156 436.296875 -8.402344 432.691406 C -7.875 432.011719 -7.605469 432.105469 -7.589844 432.960938 C -7.078125 454.292969 -6.945312 470.761719 -7.195312 482.378906 C -7.210938 482.945312 -7.175781 484.039062 -7.09375 485.660156 C -7.085938 485.90625 -6.996094 486.109375 -6.816406 486.28125 C -6.640625 486.449219 -6.425781 486.535156 -6.175781 486.535156 L 5.007812 486.535156 C 5.589844 486.535156 5.878906 486.242188 5.878906 485.660156 L 5.878906 405.230469 C 5.878906 404.789062 5.65625 404.566406 5.214844 404.566406 L -5.011719 404.566406 C -5.777344 404.566406 -6.359375 404.882812 -6.757812 405.523438 C -25.539062 435.472656 -34.957031 450.488281 -35.011719 450.570312 C -35.175781 450.835938 -35.386719 450.964844 -35.636719 450.964844 C -35.898438 450.964844 -36.113281 450.835938 -36.277344 450.570312 C -36.335938 450.488281 -45.785156 435.492188 -64.632812 405.585938 C -65.035156 404.945312 -65.617188 404.628906 -66.382812 404.628906 L -76.609375 404.667969 C -77.050781 404.667969 -77.273438 404.890625 -77.273438 405.335938 L -77.085938 485.765625 C -77.085938 486.347656 -76.796875 486.640625 -76.214844 486.640625 L -65.03125 486.597656 C -64.78125 486.597656 -64.566406 486.511719 -64.390625 486.34375 C -64.210938 486.171875 -64.121094 485.96875 -64.113281 485.722656 C -64.03125 484.101562 -63.996094 483.007812 -64.011719 482.441406 C -64.289062 470.824219 -64.199219 454.355469 -63.742188 433.023438 C -63.726562 432.164062 -63.457031 432.074219 -62.929688 432.753906 C -60.160156 436.359375 -52.714844 447.382812 -40.601562 465.828125 C -39.300781 467.8125 -37.636719 468.800781 -35.613281 468.800781 Z M 67 440.136719 C 59.570312 440.136719 52.191406 440.085938 44.859375 439.988281 C 44.65625 439.988281 44.484375 439.917969 44.34375 439.777344 C 44.203125 439.632812 44.128906 439.460938 44.128906 439.261719 L 44.128906 406.042969 C 44.128906 405.085938 43.652344 404.605469 42.695312 404.605469 L 32.238281 404.605469 C 31.269531 404.605469 30.785156 405.09375 30.785156 406.0625 C 30.785156 419.324219 30.796875 432.5 30.824219 445.582031 C 30.824219 458.664062 30.832031 471.835938 30.847656 485.101562 C 30.859375 486.070312 31.351562 486.546875 32.324219 486.535156 L 42.78125 486.535156 C 43.734375 486.519531 44.207031 486.035156 44.191406 485.078125 L 44.152344 451.859375 C 44.152344 451.664062 44.21875 451.492188 44.355469 451.351562 C 44.496094 451.210938 44.660156 451.136719 44.859375 451.132812 C 52.191406 451.019531 59.578125 450.964844 67.019531 450.964844 C 74.449219 450.953125 81.828125 450.992188 89.160156 451.089844 C 89.359375 451.089844 89.53125 451.160156 89.671875 451.304688 C 89.816406 451.445312 89.886719 451.617188 89.886719 451.816406 L 89.886719 485.039062 C 89.886719 485.996094 90.363281 486.472656 91.320312 486.472656 L 101.777344 486.472656 C 102.746094 486.472656 103.234375 485.988281 103.234375 485.015625 C 103.234375 471.753906 103.21875 458.589844 103.191406 445.519531 C 103.191406 432.4375 103.175781 419.261719 103.148438 406 C 103.148438 405.03125 102.664062 404.546875 101.695312 404.546875 L 91.238281 404.566406 C 90.28125 404.566406 89.804688 405.042969 89.804688 406 L 89.867188 439.21875 C 89.867188 439.421875 89.792969 439.59375 89.652344 439.734375 C 89.511719 439.875 89.339844 439.949219 89.136719 439.949219 C 81.804688 440.058594 74.425781 440.121094 67 440.136719 Z M 269.929688 405.71875 C 269.929688 405.574219 269.898438 405.433594 269.84375 405.296875 C 269.789062 405.160156 269.707031 405.042969 269.605469 404.941406 C 269.5 404.835938 269.382812 404.757812 269.246094 404.703125 C 269.113281 404.644531 268.972656 404.617188 268.824219 404.617188 L 257.929688 404.636719 C 257.785156 404.636719 257.644531 404.667969 257.511719 404.722656 C 257.375 404.777344 257.257812 404.859375 257.152344 404.960938 C 257.050781 405.066406 256.96875 405.183594 256.914062 405.320312 C 256.859375 405.453125 256.832031 405.59375 256.832031 405.742188 L 256.96875 485.402344 C 256.972656 485.550781 257 485.691406 257.054688 485.824219 C 257.113281 485.960938 257.191406 486.078125 257.292969 486.179688 C 257.398438 486.285156 257.515625 486.363281 257.652344 486.417969 C 257.789062 486.476562 257.929688 486.503906 258.074219 486.503906 L 268.96875 486.484375 C 269.113281 486.484375 269.253906 486.457031 269.390625 486.398438 C 269.523438 486.34375 269.644531 486.261719 269.746094 486.160156 C 269.847656 486.054688 269.929688 485.9375 269.984375 485.800781 C 270.039062 485.667969 270.066406 485.527344 270.066406 485.378906 Z M 180.441406 457.140625 L 198.421875 457.140625 C 199.121094 457.140625 199.78125 457.300781 200.402344 457.621094 C 201.019531 457.9375 201.53125 458.382812 201.9375 458.949219 L 221.226562 486.015625 C 221.4375 486.308594 221.710938 486.453125 222.058594 486.453125 C 229.53125 486.535156 234.46875 486.570312 236.882812 486.554688 C 236.957031 486.5625 237.007812 486.535156 237.042969 486.46875 C 237.078125 486.402344 237.074219 486.34375 237.027344 486.285156 C 232.496094 480.007812 225.371094 470.300781 215.65625 457.160156 C 215.15625 456.496094 215.304688 456.046875 216.09375 455.808594 C 227.527344 452.21875 233.667969 445.171875 234.511719 434.667969 C 235.539062 421.847656 231.027344 412.886719 220.980469 407.789062 C 216.847656 405.679688 210.066406 404.667969 200.625 404.753906 C 196.550781 404.792969 185.296875 404.820312 166.867188 404.835938 C 166.675781 404.835938 166.515625 404.902344 166.382812 405.035156 C 166.246094 405.171875 166.179688 405.332031 166.179688 405.523438 L 166.179688 484.976562 C 166.179688 486.070312 166.726562 486.617188 167.824219 486.617188 L 177.632812 486.617188 C 178.6875 486.617188 179.214844 486.089844 179.214844 485.039062 L 179.214844 458.367188 C 179.214844 457.546875 179.625 457.140625 180.441406 457.140625 Z M 294.675781 405.917969 L 294.964844 485.121094 C 294.964844 485.285156 294.996094 485.441406 295.058594 485.589844 C 295.121094 485.742188 295.210938 485.875 295.324219 485.988281 C 295.4375 486.101562 295.570312 486.191406 295.722656 486.253906 C 295.871094 486.316406 296.027344 486.347656 296.191406 486.347656 L 330.054688 486.222656 C 331.378906 486.21875 332.703125 486.148438 334.019531 486.019531 C 335.335938 485.886719 336.644531 485.695312 337.941406 485.4375 C 339.242188 485.179688 340.523438 484.863281 341.789062 484.484375 C 343.054688 484.105469 344.296875 483.667969 345.519531 483.167969 C 346.742188 482.671875 347.9375 482.117188 349.101562 481.503906 C 350.269531 480.894531 351.402344 480.226562 352.5 479.507812 C 353.597656 478.785156 354.65625 478.015625 355.679688 477.195312 C 356.699219 476.371094 357.675781 475.503906 358.609375 474.589844 C 359.542969 473.671875 360.429688 472.714844 361.265625 471.714844 C 362.101562 470.714844 362.886719 469.679688 363.621094 468.605469 C 364.351562 467.527344 365.027344 466.421875 365.648438 465.28125 C 366.269531 464.144531 366.832031 462.976562 367.335938 461.785156 C 367.835938 460.589844 368.277344 459.375 368.660156 458.140625 C 369.039062 456.90625 369.359375 455.65625 369.613281 454.390625 C 369.867188 453.125 370.054688 451.847656 370.183594 450.566406 C 370.308594 449.28125 370.367188 447.992188 370.363281 446.703125 L 370.363281 443.835938 C 370.359375 442.542969 370.292969 441.257812 370.160156 439.972656 C 370.023438 438.6875 369.828125 437.414062 369.5625 436.148438 C 369.300781 434.882812 368.976562 433.632812 368.585938 432.402344 C 368.199219 431.167969 367.75 429.953125 367.238281 428.761719 C 366.726562 427.574219 366.15625 426.410156 365.527344 425.273438 C 364.898438 424.136719 364.214844 423.03125 363.476562 421.960938 C 362.734375 420.890625 361.941406 419.859375 361.097656 418.863281 C 360.253906 417.867188 359.363281 416.917969 358.421875 416.007812 C 357.480469 415.097656 356.496094 414.234375 355.46875 413.421875 C 354.441406 412.605469 353.378906 411.839844 352.273438 411.128906 C 351.167969 410.414062 350.03125 409.753906 348.859375 409.152344 C 347.6875 408.546875 346.488281 408 345.261719 407.507812 C 344.035156 407.019531 342.789062 406.589844 341.519531 406.21875 C 340.25 405.851562 338.964844 405.542969 337.664062 405.292969 C 336.363281 405.046875 335.050781 404.863281 333.734375 404.742188 C 332.414062 404.621094 331.089844 404.5625 329.765625 404.566406 L 295.902344 404.691406 C 295.738281 404.691406 295.582031 404.722656 295.429688 404.785156 C 295.28125 404.847656 295.148438 404.933594 295.03125 405.050781 C 294.917969 405.164062 294.828125 405.296875 294.765625 405.449219 C 294.703125 405.597656 294.675781 405.753906 294.675781 405.917969 Z M 404.914062 438.699219 C 404.773438 438.699219 404.632812 438.671875 404.5 438.617188 C 404.371094 438.5625 404.253906 438.484375 404.152344 438.382812 C 404.050781 438.28125 403.972656 438.164062 403.917969 438.03125 C 403.863281 437.902344 403.835938 437.761719 403.835938 437.621094 L 403.710938 416.789062 C 403.710938 416.644531 403.738281 416.507812 403.792969 416.375 C 403.847656 416.242188 403.925781 416.125 404.027344 416.023438 C 404.128906 415.921875 404.246094 415.84375 404.378906 415.789062 C 404.507812 415.734375 404.648438 415.707031 404.789062 415.707031 L 448.839844 415.605469 C 448.984375 415.605469 449.121094 415.578125 449.253906 415.523438 C 449.386719 415.46875 449.503906 415.390625 449.605469 415.289062 C 449.707031 415.1875 449.785156 415.070312 449.839844 414.9375 C 449.894531 414.804688 449.921875 414.667969 449.921875 414.523438 L 449.859375 405.9375 C 449.859375 405.792969 449.832031 405.65625 449.777344 405.523438 C 449.722656 405.390625 449.644531 405.273438 449.542969 405.171875 C 449.441406 405.070312 449.324219 404.992188 449.191406 404.9375 C 449.058594 404.882812 448.921875 404.855469 448.777344 404.855469 L 391.820312 404.773438 C 391.675781 404.773438 391.539062 404.800781 391.40625 404.855469 C 391.273438 404.910156 391.15625 404.988281 391.054688 405.089844 C 390.953125 405.191406 390.875 405.308594 390.820312 405.441406 C 390.765625 405.574219 390.738281 405.710938 390.738281 405.855469 L 390.945312 485.390625 C 390.945312 485.535156 390.972656 485.671875 391.027344 485.804688 C 391.082031 485.9375 391.160156 486.054688 391.261719 486.15625 C 391.363281 486.257812 391.480469 486.335938 391.613281 486.390625 C 391.746094 486.445312 391.882812 486.472656 392.027344 486.472656 L 448.800781 486.429688 C 448.941406 486.429688 449.078125 486.402344 449.207031 486.351562 C 449.339844 486.296875 449.457031 486.222656 449.558594 486.121094 C 449.660156 486.023438 449.738281 485.90625 449.792969 485.777344 C 449.847656 485.648438 449.878906 485.511719 449.882812 485.371094 L 450.027344 476.660156 C 450.03125 476.515625 450.003906 476.375 449.949219 476.242188 C 449.898438 476.105469 449.820312 475.984375 449.71875 475.882812 C 449.617188 475.777344 449.496094 475.699219 449.363281 475.644531 C 449.230469 475.585938 449.089844 475.558594 448.945312 475.558594 L 405.101562 475.453125 C 404.960938 475.453125 404.820312 475.425781 404.6875 475.371094 C 404.554688 475.316406 404.441406 475.238281 404.339844 475.136719 C 404.238281 475.035156 404.160156 474.917969 404.105469 474.789062 C 404.050781 474.65625 404.023438 474.515625 404.023438 474.375 L 403.898438 450.589844 C 403.898438 450.449219 403.925781 450.308594 403.980469 450.179688 C 404.035156 450.046875 404.113281 449.929688 404.214844 449.828125 C 404.316406 449.726562 404.433594 449.648438 404.5625 449.59375 C 404.695312 449.539062 404.835938 449.511719 404.976562 449.511719 L 444.183594 449.65625 C 444.328125 449.65625 444.464844 449.628906 444.597656 449.574219 C 444.730469 449.519531 444.847656 449.441406 444.949219 449.339844 C 445.050781 449.238281 445.128906 449.121094 445.183594 448.988281 C 445.238281 448.855469 445.265625 448.71875 445.265625 448.574219 L 445.347656 439.886719 C 445.347656 439.742188 445.320312 439.605469 445.265625 439.472656 C 445.210938 439.339844 445.132812 439.222656 445.03125 439.121094 C 444.929688 439.019531 444.8125 438.941406 444.683594 438.886719 C 444.550781 438.832031 444.410156 438.804688 444.269531 438.804688 Z M 404.914062 438.699219 " fill-opacity="1" fill-rule="nonzero"/><path fill="#000000" d="M 321.46875 185.933594 C 321.46875 222.796875 321.4375 248.699219 321.367188 263.640625 C 321.339844 269.046875 318.898438 273.1875 314.050781 276.070312 C 258.570312 308.972656 217.730469 333.269531 191.519531 348.957031 C 186.179688 352.15625 181.855469 349.414062 176.261719 346.023438 C 122.351562 313.277344 84.828125 290.992188 63.691406 279.167969 C 58.632812 276.34375 55.039062 273.675781 52.902344 271.164062 C 50.449219 268.296875 49.804688 263.558594 49.722656 259.546875 C 49.625 255.027344 49.578125 230.488281 49.578125 185.933594 C 49.578125 141.375 49.625 116.839844 49.722656 112.320312 C 49.804688 108.308594 50.449219 103.570312 52.902344 100.699219 C 55.039062 98.191406 58.632812 95.523438 63.691406 92.695312 C 84.828125 80.875 122.351562 58.589844 176.261719 25.839844 C 181.855469 22.453125 186.179688 19.707031 191.519531 22.910156 C 217.730469 38.597656 258.570312 62.890625 314.050781 95.792969 C 318.898438 98.675781 321.339844 102.820312 321.367188 108.226562 C 321.4375 123.164062 321.46875 149.066406 321.46875 185.933594 Z M 131.710938 271.042969 C 131.578125 270.570312 131.601562 270.105469 131.777344 269.648438 C 131.957031 269.195312 132.253906 268.839844 132.667969 268.589844 L 143.3125 262.144531 C 144.0625 261.6875 144.871094 261.460938 145.746094 261.457031 C 146.617188 261.453125 147.429688 261.675781 148.175781 262.121094 L 223.246094 307.214844 C 223.757812 307.519531 224.304688 307.753906 224.882812 307.910156 C 225.460938 308.070312 226.046875 308.148438 226.644531 308.148438 C 227.246094 308.144531 227.832031 308.0625 228.410156 307.902344 C 228.984375 307.738281 229.53125 307.503906 230.042969 307.191406 L 300.804688 264.328125 C 301.359375 263.992188 301.863281 263.589844 302.3125 263.121094 C 302.765625 262.65625 303.148438 262.140625 303.464844 261.574219 C 303.78125 261.007812 304.023438 260.410156 304.183594 259.78125 C 304.347656 259.152344 304.425781 258.511719 304.421875 257.859375 C 304.355469 170.605469 304.277344 122.699219 304.195312 114.148438 C 304.152344 108.933594 297.875 105.960938 294.09375 103.753906 C 261.148438 84.492188 226.191406 63.773438 189.214844 41.597656 C 188.789062 41.34375 188.339844 41.148438 187.863281 41.015625 C 187.386719 40.882812 186.898438 40.816406 186.402344 40.816406 C 185.90625 40.8125 185.417969 40.875 184.941406 41.007812 C 184.460938 41.136719 184.007812 41.324219 183.582031 41.578125 C 151.539062 60.34375 114.480469 82.066406 72.402344 106.75 C 68.5625 108.996094 66.644531 111.910156 66.644531 115.5 C 66.671875 191.308594 66.785156 238.070312 66.976562 255.78125 C 67.039062 261.664062 71.488281 263.703125 76.457031 266.613281 C 113.210938 288.191406 149.742188 309.929688 186.054688 331.828125 C 186.378906 332.023438 186.734375 332.121094 187.117188 332.117188 C 187.503906 332.113281 187.863281 332.011719 188.195312 331.804688 L 207.945312 319.851562 C 208.0625 319.78125 208.15625 319.683594 208.222656 319.566406 C 208.292969 319.445312 208.324219 319.316406 208.324219 319.175781 C 208.324219 319.039062 208.292969 318.910156 208.222656 318.789062 C 208.15625 318.667969 208.0625 318.574219 207.945312 318.5 C 168.417969 294.773438 144.304688 280.570312 135.601562 275.886719 C 133.617188 274.832031 132.324219 273.21875 131.710938 271.042969 Z M 131.710938 271.042969 " fill-opacity="1" fill-rule="nonzero"/><path fill="#ffffff" d="M 131.710938 271.042969 C 132.324219 273.21875 133.617188 274.832031 135.601562 275.886719 C 144.304688 280.570312 168.417969 294.773438 207.945312 318.5 C 208.0625 318.574219 208.15625 318.667969 208.222656 318.789062 C 208.292969 318.910156 208.324219 319.039062 208.324219 319.175781 C 208.324219 319.316406 208.292969 319.445312 208.222656 319.566406 C 208.15625 319.683594 208.0625 319.78125 207.945312 319.851562 L 188.195312 331.804688 C 187.863281 332.011719 187.503906 332.113281 187.117188 332.117188 C 186.734375 332.121094 186.378906 332.023438 186.054688 331.828125 C 149.742188 309.929688 113.210938 288.191406 76.457031 266.613281 C 71.488281 263.703125 67.039062 261.664062 66.976562 255.78125 C 66.785156 238.070312 66.671875 191.308594 66.644531 115.5 C 66.644531 111.910156 68.5625 108.996094 72.402344 106.75 C 114.480469 82.066406 151.539062 60.34375 183.582031 41.578125 C 184.007812 41.324219 184.460938 41.136719 184.941406 41.007812 C 185.417969 40.875 185.90625 40.8125 186.402344 40.816406 C 186.898438 40.816406 187.386719 40.882812 187.863281 41.015625 C 188.339844 41.148438 188.789062 41.34375 189.214844 41.597656 C 226.191406 63.773438 261.148438 84.492188 294.09375 103.753906 C 297.875 105.960938 304.152344 108.933594 304.195312 114.148438 C 304.277344 122.699219 304.355469 170.605469 304.421875 257.859375 C 304.425781 258.511719 304.347656 259.152344 304.183594 259.78125 C 304.023438 260.410156 303.78125 261.007812 303.464844 261.574219 C 303.148438 262.140625 302.765625 262.65625 302.3125 263.121094 C 301.863281 263.589844 301.359375 263.992188 300.804688 264.328125 L 230.042969 307.191406 C 229.53125 307.503906 228.984375 307.738281 228.410156 307.902344 C 227.832031 308.0625 227.246094 308.144531 226.644531 308.148438 C 226.046875 308.148438 225.460938 308.070312 224.882812 307.910156 C 224.304688 307.753906 223.757812 307.519531 223.246094 307.214844 L 148.175781 262.121094 C 147.429688 261.675781 146.617188 261.453125 145.746094 261.457031 C 144.871094 261.460938 144.0625 261.6875 143.3125 262.144531 L 132.667969 268.589844 C 132.253906 268.839844 131.957031 269.195312 131.777344 269.648438 C 131.601562 270.105469 131.578125 270.570312 131.710938 271.042969 Z M 177.40625 60.890625 C 176.882812 60.578125 176.320312 60.40625 175.714844 60.371094 C 175.105469 60.339844 174.527344 60.449219 173.976562 60.703125 L 161.980469 66.210938 C 161.359375 66.5 160.859375 66.925781 160.476562 67.492188 C 160.09375 68.058594 159.882812 68.683594 159.847656 69.363281 C 159.8125 70.046875 159.957031 70.691406 160.28125 71.292969 C 160.605469 71.894531 161.058594 72.371094 161.648438 72.71875 L 243.117188 120.65625 C 243.679688 120.984375 244.28125 121.152344 244.933594 121.160156 C 245.582031 121.167969 246.1875 121.011719 246.757812 120.699219 L 256.984375 115.066406 C 257.265625 114.910156 257.523438 114.71875 257.753906 114.496094 C 257.984375 114.269531 258.183594 114.019531 258.351562 113.746094 C 258.515625 113.46875 258.644531 113.175781 258.734375 112.867188 C 258.824219 112.558594 258.871094 112.242188 258.875 111.921875 C 258.882812 111.597656 258.847656 111.28125 258.769531 110.96875 C 258.695312 110.65625 258.578125 110.359375 258.421875 110.074219 C 258.265625 109.792969 258.078125 109.535156 257.855469 109.304688 C 257.632812 109.070312 257.382812 108.871094 257.109375 108.703125 Z M 265.132812 153.855469 L 265.132812 239.921875 C 265.132812 240.910156 265.261719 241.878906 265.523438 242.832031 C 265.785156 243.789062 266.164062 244.691406 266.667969 245.542969 C 267.171875 246.394531 267.777344 247.164062 268.488281 247.855469 C 269.195312 248.542969 269.984375 249.128906 270.851562 249.609375 C 271.472656 249.953125 273.351562 250.988281 276.484375 252.707031 C 280.238281 254.785156 282.117188 253.675781 282.117188 249.378906 C 282.089844 216.105469 282.070312 180.609375 282.054688 142.902344 C 282.054688 137.265625 282.324219 133.566406 277.875 129.511719 C 277.511719 129.179688 277.101562 128.914062 276.648438 128.710938 C 276.195312 128.511719 275.722656 128.386719 275.230469 128.339844 C 274.738281 128.292969 274.25 128.328125 273.765625 128.4375 C 273.285156 128.550781 272.832031 128.734375 272.410156 128.992188 L 188.589844 179.757812 C 187.84375 180.21875 187.027344 180.449219 186.152344 180.453125 C 185.273438 180.457031 184.457031 180.234375 183.703125 179.78125 L 95.914062 127.058594 C 95.652344 126.90625 95.378906 126.777344 95.089844 126.679688 C 94.804688 126.578125 94.507812 126.511719 94.207031 126.472656 C 93.90625 126.433594 93.601562 126.425781 93.296875 126.449219 C 92.996094 126.472656 92.695312 126.527344 92.40625 126.613281 C 92.113281 126.695312 91.832031 126.8125 91.5625 126.953125 C 91.292969 127.09375 91.042969 127.261719 90.808594 127.457031 C 90.574219 127.652344 90.359375 127.867188 90.171875 128.105469 C 89.980469 128.34375 89.816406 128.597656 89.679688 128.867188 C 88.917969 130.378906 88.542969 132.75 88.554688 135.976562 C 88.734375 168.628906 88.769531 203.222656 88.660156 239.753906 C 88.632812 245.4375 91.222656 249.460938 96.433594 251.832031 L 98.535156 252.789062 C 103.300781 254.964844 105.6875 253.441406 105.6875 248.214844 L 105.6875 153.523438 C 105.679688 153.359375 105.746094 153.238281 105.886719 153.152344 C 106.027344 153.070312 106.167969 153.066406 106.308594 153.148438 C 129.800781 167.242188 153.332031 181.28125 176.90625 195.265625 C 181.292969 197.84375 183.996094 200.921875 189.339844 197.742188 C 214.421875 182.855469 239.390625 168.054688 264.238281 153.335938 C 264.332031 153.285156 264.429688 153.261719 264.539062 153.261719 C 264.644531 153.261719 264.742188 153.289062 264.832031 153.34375 C 264.925781 153.394531 264.996094 153.46875 265.050781 153.558594 C 265.105469 153.652344 265.132812 153.75 265.132812 153.855469 Z M 184.578125 230.378906 C 185.894531 230.394531 187.039062 230.117188 188.007812 229.546875 C 197.128906 224.351562 206.261719 218.910156 215.40625 213.226562 C 215.691406 213.050781 215.949219 212.84375 216.183594 212.609375 C 216.417969 212.371094 216.621094 212.109375 216.792969 211.824219 C 216.964844 211.535156 217.101562 211.234375 217.199219 210.917969 C 217.300781 210.597656 217.363281 210.273438 217.386719 209.941406 C 217.410156 209.609375 217.394531 209.277344 217.339844 208.949219 C 217.285156 208.621094 217.191406 208.300781 217.0625 207.996094 C 216.929688 207.6875 216.765625 207.402344 216.566406 207.132812 C 216.367188 206.863281 216.140625 206.625 215.886719 206.410156 C 214.859375 205.550781 212.65625 204.003906 209.273438 201.773438 C 206.199219 199.738281 203.164062 199.792969 200.167969 201.941406 C 197.023438 204.199219 192.808594 206.847656 187.53125 209.882812 C 186.199219 210.628906 185.242188 211.003906 184.660156 211.003906 C 184.078125 211.003906 183.128906 210.621094 181.8125 209.859375 C 176.5625 206.785156 172.367188 204.101562 169.234375 201.816406 C 166.269531 199.640625 163.234375 199.554688 160.128906 201.566406 C 156.734375 203.769531 154.519531 205.292969 153.476562 206.140625 C 153.222656 206.351562 152.992188 206.589844 152.792969 206.859375 C 152.59375 207.125 152.425781 207.410156 152.296875 207.71875 C 152.164062 208.023438 152.066406 208.339844 152.011719 208.667969 C 151.953125 208.996094 151.9375 209.328125 151.957031 209.660156 C 151.980469 209.992188 152.039062 210.316406 152.136719 210.636719 C 152.234375 210.953125 152.371094 211.257812 152.539062 211.542969 C 152.710938 211.832031 152.910156 212.09375 153.144531 212.332031 C 153.375 212.570312 153.632812 212.78125 153.914062 212.957031 C 163.007812 218.722656 172.089844 224.246094 181.167969 229.527344 C 182.125 230.09375 183.261719 230.378906 184.578125 230.378906 Z M 184.578125 230.378906 " fill-opacity="1" fill-rule="nonzero"/></g><path fill="#000000" d="M 265.132812 153.855469 C 265.132812 153.75 265.105469 153.652344 265.050781 153.558594 C 264.996094 153.46875 264.925781 153.394531 264.832031 153.34375 C 264.742188 153.289062 264.644531 153.261719 264.539062 153.261719 C 264.429688 153.261719 264.332031 153.285156 264.238281 153.335938 C 239.390625 168.054688 214.421875 182.855469 189.339844 197.742188 C 183.996094 200.921875 181.292969 197.84375 176.90625 195.265625 C 153.332031 181.28125 129.800781 167.242188 106.308594 153.148438 C 106.167969 153.066406 106.027344 153.070312 105.886719 153.152344 C 105.746094 153.238281 105.679688 153.359375 105.6875 153.523438 L 105.6875 248.214844 C 105.6875 253.441406 103.300781 254.964844 98.535156 252.789062 L 96.433594 251.832031 C 91.222656 249.460938 88.632812 245.4375 88.660156 239.753906 C 88.769531 203.222656 88.734375 168.628906 88.554688 135.976562 C 88.542969 132.75 88.917969 130.378906 89.679688 128.867188 C 89.816406 128.597656 89.980469 128.34375 90.171875 128.105469 C 90.359375 127.867188 90.574219 127.652344 90.808594 127.457031 C 91.042969 127.261719 91.292969 127.09375 91.5625 126.953125 C 91.832031 126.8125 92.113281 126.695312 92.40625 126.613281 C 92.695312 126.527344 92.996094 126.472656 93.296875 126.449219 C 93.601562 126.425781 93.90625 126.433594 94.207031 126.472656 C 94.507812 126.511719 94.804688 126.578125 95.089844 126.679688 C 95.378906 126.777344 95.652344 126.90625 95.914062 127.058594 L 183.703125 179.78125 C 184.457031 180.234375 185.273438 180.457031 186.152344 180.453125 C 187.027344 180.449219 187.84375 180.21875 188.589844 179.757812 L 272.410156 128.992188 C 272.832031 128.734375 273.285156 128.550781 273.765625 128.4375 C 274.25 128.328125 274.738281 128.292969 275.230469 128.339844 C 275.722656 128.386719 276.195312 128.511719 276.648438 128.710938 C 277.101562 128.914062 277.511719 129.179688 277.875 129.511719 C 282.324219 133.566406 282.054688 137.265625 282.054688 142.902344 C 282.070312 180.609375 282.089844 216.105469 282.117188 249.378906 C 282.117188 253.675781 280.238281 254.785156 276.484375 252.707031 C 273.351562 250.988281 271.472656 249.953125 270.851562 249.609375 C 269.984375 249.128906 269.195312 248.542969 268.488281 247.855469 C 267.777344 247.164062 267.171875 246.394531 266.667969 245.542969 C 266.164062 244.691406 265.785156 243.789062 265.523438 242.832031 C 265.261719 241.878906 265.132812 240.910156 265.132812 239.921875 Z M 265.132812 153.855469 " fill-opacity="1" fill-rule="nonzero"/><path fill="#000000" d="M 184.660156 211.003906 C 185.242188 211.003906 186.199219 210.628906 187.53125 209.882812 C 192.808594 206.847656 197.023438 204.199219 200.167969 201.941406 C 203.164062 199.792969 206.199219 199.738281 209.273438 201.773438 C 212.65625 204.003906 214.859375 205.550781 215.886719 206.410156 C 216.140625 206.625 216.367188 206.863281 216.566406 207.132812 C 216.765625 207.402344 216.929688 207.6875 217.0625 207.996094 C 217.191406 208.300781 217.285156 208.621094 217.339844 208.949219 C 217.394531 209.277344 217.410156 209.609375 217.386719 209.941406 C 217.363281 210.273438 217.300781 210.597656 217.199219 210.917969 C 217.101562 211.234375 216.964844 211.535156 216.792969 211.824219 C 216.621094 212.109375 216.417969 212.371094 216.183594 212.609375 C 215.949219 212.84375 215.691406 213.050781 215.40625 213.226562 C 206.261719 218.910156 197.128906 224.351562 188.007812 229.546875 C 187.039062 230.117188 185.894531 230.394531 184.578125 230.378906 C 183.261719 230.378906 182.125 230.09375 181.167969 229.527344 C 172.089844 224.246094 163.007812 218.722656 153.914062 212.957031 C 153.632812 212.78125 153.375 212.570312 153.144531 212.332031 C 152.910156 212.09375 152.710938 211.832031 152.539062 211.542969 C 152.371094 211.257812 152.234375 210.953125 152.136719 210.636719 C 152.039062 210.316406 151.980469 209.992188 151.957031 209.660156 C 151.9375 209.328125 151.953125 208.996094 152.011719 208.667969 C 152.066406 208.339844 152.164062 208.023438 152.296875 207.71875 C 152.425781 207.410156 152.59375 207.125 152.792969 206.859375 C 152.992188 206.589844 153.222656 206.351562 153.476562 206.140625 C 154.519531 205.292969 156.734375 203.769531 160.128906 201.566406 C 163.234375 199.554688 166.269531 199.640625 169.234375 201.816406 C 172.367188 204.101562 176.5625 206.785156 181.8125 209.859375 C 183.128906 210.621094 184.078125 211.003906 184.660156 211.003906 Z M 184.660156 211.003906 " fill-opacity="1" fill-rule="nonzero"/></g></g></svg>