<svg xmlns="http://www.w3.org/2000/svg" xmlns:xlink="http://www.w3.org/1999/xlink" width="500" zoomAndPan="magnify" viewBox="0 0 375 374.999991" height="500" preserveAspectRatio="xMidYMid meet" version="1.0"><defs><clipPath id="41fa2f383e"><path d="M 51 26 L 320 26 L 320 348 L 51 348 Z M 51 26 " clip-rule="nonzero"/></clipPath><clipPath id="de76ed7f54"><path d="M 33.289062 49.339844 L 33.289062 325.660156 C 33.289062 342.230469 46.71875 355.660156 63.289062 355.660156 L 311.710938 355.660156 C 328.28125 355.660156 341.710938 342.230469 341.710938 325.660156 L 341.710938 49.339844 C 341.710938 32.769531 328.28125 19.339844 311.710938 19.339844 L 63.289062 19.339844 C 46.71875 19.339844 33.289062 32.769531 33.289062 49.339844 Z M 33.289062 49.339844 " clip-rule="nonzero"/></clipPath><clipPath id="125f90176f"><path d="M 66 44 L 304 44 L 304 331 L 66 331 Z M 66 44 " clip-rule="nonzero"/></clipPath><clipPath id="7667760079"><path d="M 33.289062 49.339844 L 33.289062 325.660156 C 33.289062 342.230469 46.71875 355.660156 63.289062 355.660156 L 311.710938 355.660156 C 328.28125 355.660156 341.710938 342.230469 341.710938 325.660156 L 341.710938 49.339844 C 341.710938 32.769531 328.28125 19.339844 311.710938 19.339844 L 63.289062 19.339844 C 46.71875 19.339844 33.289062 32.769531 33.289062 49.339844 Z M 33.289062 49.339844 " clip-rule="nonzero"/></clipPath><clipPath id="2799e1452a"><path d="M 152 62 L 262 62 L 262 136 L 152 136 Z M 152 62 " clip-rule="nonzero"/></clipPath><clipPath id="d2bd8bd330"><path d="M 33.289062 49.339844 L 33.289062 325.660156 C 33.289062 342.230469 46.71875 355.660156 63.289062 355.660156 L 311.710938 355.660156 C 328.28125 355.660156 341.710938 342.230469 341.710938 325.660156 L 341.710938 49.339844 C 341.710938 32.769531 328.28125 19.339844 311.710938 19.339844 L 63.289062 19.339844 C 46.71875 19.339844 33.289062 32.769531 33.289062 49.339844 Z M 33.289062 49.339844 " clip-rule="nonzero"/></clipPath><clipPath id="62529f7be3"><path d="M 87 123 L 283 123 L 283 259 L 87 259 Z M 87 123 " clip-rule="nonzero"/></clipPath><clipPath id="89dbe8fb49"><path d="M 33.289062 49.339844 L 33.289062 325.660156 C 33.289062 342.230469 46.71875 355.660156 63.289062 355.660156 L 311.710938 355.660156 C 328.28125 355.660156 341.710938 342.230469 341.710938 325.660156 L 341.710938 49.339844 C 341.710938 32.769531 328.28125 19.339844 311.710938 19.339844 L 63.289062 19.339844 C 46.71875 19.339844 33.289062 32.769531 33.289062 49.339844 Z M 33.289062 49.339844 " clip-rule="nonzero"/></clipPath><clipPath id="2674466602"><path d="M 145 191 L 224 191 L 224 237 L 145 237 Z M 145 191 " clip-rule="nonzero"/></clipPath><clipPath id="3b6b7ac43e"><path d="M 33.289062 49.339844 L 33.289062 325.660156 C 33.289062 342.230469 46.71875 355.660156 63.289062 355.660156 L 311.710938 355.660156 C 328.28125 355.660156 341.710938 342.230469 341.710938 325.660156 L 341.710938 49.339844 C 341.710938 32.769531 328.28125 19.339844 311.710938 19.339844 L 63.289062 19.339844 C 46.71875 19.339844 33.289062 32.769531 33.289062 49.339844 Z M 33.289062 49.339844 " clip-rule="nonzero"/></clipPath><clipPath id="50a70dfa50"><path d="M 33.289062 19.339844 L 341.539062 19.339844 L 341.539062 355.339844 L 33.289062 355.339844 Z M 33.289062 19.339844 " clip-rule="nonzero"/></clipPath><clipPath id="2cd599c3b2"><path d="M 33.289062 49.339844 L 33.289062 325.660156 C 33.289062 342.230469 46.71875 355.660156 63.289062 355.660156 L 311.710938 355.660156 C 328.28125 355.660156 341.710938 342.230469 341.710938 325.660156 L 341.710938 49.339844 C 341.710938 32.769531 328.28125 19.339844 311.710938 19.339844 L 63.289062 19.339844 C 46.71875 19.339844 33.289062 32.769531 33.289062 49.339844 Z M 33.289062 49.339844 " clip-rule="nonzero"/></clipPath><clipPath id="997b329466"><path d="M 59 35 L 311 35 L 311 340 L 59 340 Z M 59 35 " clip-rule="nonzero"/></clipPath><clipPath id="bf6ea5cfc2"><path d="M 33.289062 49.339844 L 33.289062 325.660156 C 33.289062 342.230469 46.71875 355.660156 63.289062 355.660156 L 311.710938 355.660156 C 328.28125 355.660156 341.710938 342.230469 341.710938 325.660156 L 341.710938 49.339844 C 341.710938 32.769531 328.28125 19.339844 311.710938 19.339844 L 63.289062 19.339844 C 46.71875 19.339844 33.289062 32.769531 33.289062 49.339844 Z M 33.289062 49.339844 " clip-rule="nonzero"/></clipPath><clipPath id="c38f03c797"><path d="M 75 53 L 296 53 L 296 323 L 75 323 Z M 75 53 " clip-rule="nonzero"/></clipPath><clipPath id="fab93a480b"><path d="M 33.289062 49.339844 L 33.289062 325.660156 C 33.289062 342.230469 46.71875 355.660156 63.289062 355.660156 L 311.710938 355.660156 C 328.28125 355.660156 341.710938 342.230469 341.710938 325.660156 L 341.710938 49.339844 C 341.710938 32.769531 328.28125 19.339844 311.710938 19.339844 L 63.289062 19.339844 C 46.71875 19.339844 33.289062 32.769531 33.289062 49.339844 Z M 33.289062 49.339844 " clip-rule="nonzero"/></clipPath><clipPath id="488c556861"><path d="M 161 71 L 253 71 L 253 128 L 161 128 Z M 161 71 " clip-rule="nonzero"/></clipPath><clipPath id="09416cea85"><path d="M 33.289062 49.339844 L 33.289062 325.660156 C 33.289062 342.230469 46.71875 355.660156 63.289062 355.660156 L 311.710938 355.660156 C 328.28125 355.660156 341.710938 342.230469 341.710938 325.660156 L 341.710938 49.339844 C 341.710938 32.769531 328.28125 19.339844 311.710938 19.339844 L 63.289062 19.339844 C 46.71875 19.339844 33.289062 32.769531 33.289062 49.339844 Z M 33.289062 49.339844 " clip-rule="nonzero"/></clipPath><clipPath id="ab083cbfbf"><path d="M 95 132 L 275 132 L 275 251 L 95 251 Z M 95 132 " clip-rule="nonzero"/></clipPath><clipPath id="3556471149"><path d="M 33.289062 49.339844 L 33.289062 325.660156 C 33.289062 342.230469 46.71875 355.660156 63.289062 355.660156 L 311.710938 355.660156 C 328.28125 355.660156 341.710938 342.230469 341.710938 325.660156 L 341.710938 49.339844 C 341.710938 32.769531 328.28125 19.339844 311.710938 19.339844 L 63.289062 19.339844 C 46.71875 19.339844 33.289062 32.769531 33.289062 49.339844 Z M 33.289062 49.339844 " clip-rule="nonzero"/></clipPath><clipPath id="6c362a4d8c"><path d="M 154 200 L 215 200 L 215 229 L 154 229 Z M 154 200 " clip-rule="nonzero"/></clipPath><clipPath id="f7a30bca2e"><path d="M 33.289062 49.339844 L 33.289062 325.660156 C 33.289062 342.230469 46.71875 355.660156 63.289062 355.660156 L 311.710938 355.660156 C 328.28125 355.660156 341.710938 342.230469 341.710938 325.660156 L 341.710938 49.339844 C 341.710938 32.769531 328.28125 19.339844 311.710938 19.339844 L 63.289062 19.339844 C 46.71875 19.339844 33.289062 32.769531 33.289062 49.339844 Z M 33.289062 49.339844 " clip-rule="nonzero"/></clipPath><clipPath id="b5200708f8"><path d="M 87.921875 129.957031 L 287.421875 129.957031 L 287.421875 253.707031 L 87.921875 253.707031 Z M 87.921875 129.957031 " clip-rule="nonzero"/></clipPath><clipPath id="8f3eabe1d9"><path d="M 153 129.957031 L 262 129.957031 L 262 135 L 153 135 Z M 153 129.957031 " clip-rule="nonzero"/></clipPath><clipPath id="7115e55d28"><path d="M 87.921875 129.957031 L 284 129.957031 L 284 253.707031 L 87.921875 253.707031 Z M 87.921875 129.957031 " clip-rule="nonzero"/></clipPath><clipPath id="beabf80245"><path d="M 87.921875 129.957031 L 287.421875 129.957031 L 287.421875 253.707031 L 87.921875 253.707031 Z M 87.921875 129.957031 " clip-rule="nonzero"/></clipPath></defs><g clip-path="url(#41fa2f383e)"><g clip-path="url(#de76ed7f54)"><path stroke-linecap="butt" transform="matrix(0.75, 0, 0, 0.75, -295.284879, -206.942242)" fill="none" stroke-linejoin="miter" d="M 473.025702 525.683441 C 473.025702 580.60532 473.088202 610.850113 473.202786 616.417822 C 473.306952 621.365739 474.103827 627.209489 477.124661 630.745948 C 479.75487 633.83449 484.187161 637.126157 490.426745 640.610532 C 516.47883 655.18345 562.728833 682.652201 629.181963 723.016787 C 636.072588 727.193871 641.405922 730.57408 647.989256 726.631371 C 680.291341 707.292828 730.635094 677.344909 799.020515 636.792823 C 804.999683 633.235531 808.004891 628.131364 808.041349 621.469906 C 808.124683 603.053238 808.166349 571.126152 808.166349 525.683441 C 808.166349 480.245938 808.124683 448.313644 808.041349 429.902185 C 808.004891 423.235518 804.999683 418.131351 799.020515 414.579267 C 730.635094 374.021973 680.291341 344.074054 647.989256 324.735511 C 641.405922 320.792803 636.072588 324.173011 629.181963 328.350095 C 562.728833 368.719889 516.47883 396.188641 490.426745 410.75635 C 484.187161 414.245934 479.75487 417.532392 477.124661 420.626143 C 474.103827 424.162601 473.306952 430.001143 473.202786 434.94906 C 473.088202 440.516769 473.025702 470.761562 473.025702 525.683441 " stroke="#858c90" stroke-width="2" stroke-opacity="1" stroke-miterlimit="4"/></g></g><g clip-path="url(#125f90176f)"><g clip-path="url(#7667760079)"><path stroke-linecap="butt" transform="matrix(0.75, 0, 0, 0.75, -295.284879, -206.942242)" fill="none" stroke-linejoin="miter" d="M 574.265292 630.589698 C 574.103834 630.006365 574.129876 629.433448 574.348626 628.876156 C 574.567376 628.313656 574.931959 627.876156 575.447584 627.568864 L 588.567377 619.620947 C 589.489252 619.063656 590.489252 618.782406 591.562169 618.777197 C 592.640294 618.771989 593.640294 619.042822 594.562169 619.594906 L 687.093425 675.178243 C 687.723633 675.553243 688.400717 675.844909 689.10905 676.037618 C 689.822592 676.235534 690.54655 676.329284 691.286133 676.329284 C 692.025717 676.324076 692.749675 676.225118 693.458009 676.027201 C 694.17155 675.824076 694.838217 675.532409 695.473634 675.152201 L 782.697598 622.313656 C 783.379889 621.896989 783.999681 621.407406 784.556973 620.829281 C 785.109056 620.256364 785.583015 619.615739 785.97364 618.917822 C 786.364265 618.219905 786.66114 617.48553 786.859056 616.709489 C 787.062181 615.933447 787.16114 615.146989 787.155931 614.344905 C 787.06739 506.792815 786.97364 447.740728 786.874681 437.204269 C 786.822598 430.771977 779.083014 427.10531 774.421556 424.391768 C 733.812178 400.646975 690.723633 375.105306 645.145505 347.771971 C 644.077797 347.136554 642.926755 346.813638 641.681963 346.808429 C 640.437172 346.803221 639.275713 347.115721 638.202797 347.745929 C 598.702794 370.876139 553.025708 397.657391 501.161121 428.079268 C 496.431954 430.850102 494.062162 434.443852 494.062162 438.870935 C 494.09862 532.31365 494.234037 589.94907 494.47362 611.782405 C 494.551745 619.032406 500.036121 621.542822 506.155913 625.131364 C 551.463208 651.730324 596.494461 678.527201 641.249672 705.516786 C 641.650713 705.761578 642.088214 705.88137 642.562172 705.876161 C 643.03613 705.870953 643.478839 705.740745 643.890297 705.490745 L 668.234049 690.756369 C 668.379882 690.667827 668.494465 690.548035 668.577799 690.402202 C 668.661132 690.25116 668.702799 690.09491 668.702799 689.923035 C 668.702799 689.75116 668.661132 689.59491 668.577799 689.443868 C 668.494465 689.298035 668.379882 689.178243 668.234049 689.089702 C 619.510087 659.844908 589.786127 642.33449 579.062168 636.558448 C 576.614251 635.261573 575.020501 633.27199 574.265292 630.589698 " stroke="#858c90" stroke-width="2" stroke-opacity="1" stroke-miterlimit="4"/></g></g><g clip-path="url(#2799e1452a)"><g clip-path="url(#d2bd8bd330)"><path stroke-linecap="butt" transform="matrix(0.75, 0, 0, 0.75, -295.284879, -206.942242)" fill="none" stroke-linejoin="miter" d="M 630.588213 371.553223 C 629.947588 371.167806 629.254879 370.954264 628.504879 370.912598 C 627.754879 370.876139 627.041338 371.011556 626.364254 371.324056 L 611.577795 378.115723 C 610.81217 378.464681 610.192378 378.990723 609.723628 379.68864 C 609.24967 380.386557 608.989253 381.15739 608.947586 382.00114 C 608.90592 382.839682 609.083003 383.631348 609.484045 384.37614 C 609.879878 385.120932 610.442378 385.704265 611.166336 386.131349 L 711.588218 445.225102 C 712.280926 445.626144 713.025718 445.834477 713.822593 445.839686 C 714.624677 445.850102 715.374677 445.662602 716.072593 445.277186 L 728.681969 438.329269 C 729.025719 438.13656 729.343428 437.902185 729.629886 437.626144 C 729.916344 437.350102 730.161136 437.04281 730.364261 436.704269 C 730.567386 436.365727 730.728844 436.001144 730.838219 435.620935 C 730.947594 435.240727 731.004886 434.850102 731.015303 434.454268 C 731.020511 434.058435 730.978844 433.66781 730.885094 433.282393 C 730.786136 432.896977 730.645511 432.527185 730.452803 432.178227 C 730.260094 431.834477 730.030928 431.516768 729.754886 431.23031 C 729.478844 430.943852 729.171553 430.693851 728.833011 430.490726 L 630.588213 371.553223 " stroke="#858c90" stroke-width="2" stroke-opacity="1" stroke-miterlimit="4"/></g></g><g clip-path="url(#62529f7be3)"><g clip-path="url(#89dbe8fb49)"><path stroke-linecap="butt" transform="matrix(0.75, 0, 0, 0.75, -295.284879, -206.942242)" fill="none" stroke-linejoin="miter" d="M 738.723637 486.14698 L 738.723637 592.23032 C 738.723637 593.449071 738.885095 594.646987 739.208012 595.818862 C 739.52572 596.995946 739.999678 598.110529 740.61947 599.157404 C 741.234053 600.209488 741.984053 601.157404 742.859053 602.011571 C 743.734054 602.860529 744.702804 603.57928 745.770512 604.17303 C 746.541345 604.600113 748.853846 605.870946 752.718429 607.990738 C 757.343429 610.553238 759.661138 609.183447 759.661138 603.89178 C 759.62468 562.876152 759.598638 519.126149 759.583013 472.641771 C 759.583013 465.699062 759.916346 461.136562 754.431971 456.14177 C 753.984054 455.730311 753.478846 455.396978 752.916346 455.152186 C 752.359054 454.907395 751.775721 454.751145 751.171554 454.693853 C 750.562179 454.636561 749.963221 454.678228 749.364262 454.813645 C 748.770512 454.95427 748.21322 455.178228 747.692387 455.501145 L 644.374672 518.074066 C 643.452797 518.641774 642.452797 518.928232 641.369463 518.928232 C 640.28613 518.933441 639.280922 518.657399 638.353838 518.100107 L 530.140289 453.115728 C 529.822581 452.92302 529.484039 452.76677 529.124664 452.646978 C 528.770498 452.521978 528.411123 452.438645 528.036123 452.39177 C 527.666331 452.344895 527.291331 452.334478 526.916331 452.365728 C 526.541331 452.39177 526.176748 452.459478 525.817373 452.563645 C 525.457998 452.667811 525.109039 452.808436 524.775706 452.98552 C 524.447581 453.157395 524.135081 453.365728 523.848622 453.605311 C 523.556956 453.844895 523.296539 454.11052 523.062164 454.402186 C 522.827789 454.699061 522.624664 455.011561 522.452789 455.344895 C 521.515289 457.209478 521.056956 460.126145 521.072581 464.11052 C 521.291331 504.355315 521.338206 546.995942 521.197581 592.027195 C 521.166331 599.027196 524.359039 603.990738 530.780915 606.912613 L 533.369456 608.089696 C 539.249665 610.771988 542.187165 608.896988 542.187165 602.454279 L 542.187165 485.735522 C 542.176749 485.532397 542.260082 485.381355 542.437165 485.277188 C 542.60904 485.173022 542.780915 485.173022 542.95279 485.27198 C 571.911126 502.646981 600.916336 519.954274 629.973629 537.18865 C 635.37988 540.365734 638.713213 544.157401 645.296547 540.240734 C 676.218424 521.891774 706.994468 503.646981 737.624678 485.506355 C 737.739261 485.443855 737.859053 485.412605 737.989261 485.412605 C 738.11947 485.412605 738.24447 485.449063 738.353845 485.511563 C 738.468428 485.579272 738.55697 485.667813 738.624678 485.782397 C 738.687178 485.891772 738.723637 486.016772 738.723637 486.14698 " stroke="#858c90" stroke-width="2" stroke-opacity="1" stroke-miterlimit="4"/></g></g><g clip-path="url(#2674466602)"><g clip-path="url(#3b6b7ac43e)"><path stroke-linecap="butt" transform="matrix(0.75, 0, 0, 0.75, -295.284879, -206.942242)" fill="none" stroke-linejoin="miter" d="M 639.431963 580.469903 C 641.051755 580.485528 642.463214 580.146986 643.66113 579.443861 C 654.900714 573.037611 666.155923 566.334485 677.431966 559.329277 C 677.780924 559.110527 678.098633 558.855318 678.390299 558.563652 C 678.676758 558.271985 678.926758 557.949068 679.140299 557.594901 C 679.348633 557.245943 679.520508 556.870943 679.640299 556.480318 C 679.765299 556.089693 679.843424 555.688651 679.869466 555.277193 C 679.900716 554.865735 679.879883 554.459485 679.812174 554.053235 C 679.744466 553.646985 679.629883 553.25636 679.468424 552.876151 C 679.306966 552.501151 679.103841 552.146984 678.859049 551.813651 C 678.614258 551.485526 678.338216 551.188651 678.020508 550.923026 C 676.754882 549.865734 674.041341 547.959484 669.874674 545.209484 C 666.077798 542.699067 662.338215 542.766776 658.650715 545.412609 C 654.770506 548.199068 649.577797 551.464693 643.06738 555.204276 C 641.431963 556.126151 640.249672 556.589693 639.530922 556.589693 C 638.81738 556.589693 637.645505 556.115735 636.020505 555.178235 C 629.546546 551.386568 624.379879 548.079276 620.520504 545.261567 C 616.864254 542.579276 613.12467 542.475109 609.296545 544.954276 C 605.109044 547.667818 602.379878 549.548026 601.098627 550.589693 C 600.780919 550.855318 600.499669 551.146984 600.249669 551.475109 C 600.004877 551.803234 599.801752 552.157401 599.640294 552.537609 C 599.473627 552.91261 599.359044 553.303235 599.286127 553.709485 C 599.218419 554.115735 599.197586 554.521985 599.223627 554.928235 C 599.249669 555.339693 599.322586 555.740735 599.442377 556.136568 C 599.567377 556.527193 599.728836 556.902193 599.942377 557.251151 C 600.150711 557.605318 600.395502 557.928235 600.681961 558.22511 C 600.968419 558.516777 601.286127 558.777193 601.635086 558.995943 C 612.84342 566.10011 624.041337 572.907403 635.228838 579.41782 C 636.405921 580.120945 637.806963 580.469903 639.431963 580.469903 " stroke="#858c90" stroke-width="2" stroke-opacity="1" stroke-miterlimit="4"/></g></g><g clip-path="url(#50a70dfa50)"><g clip-path="url(#2cd599c3b2)"><path fill="#ffffff" d="M 665.628906 -206.941406 L 665.628906 753.972656 L -295.285156 753.972656 L -295.285156 -206.941406 Z M 59.484375 187.320312 C 59.484375 228.511719 59.53125 251.195312 59.617188 255.371094 C 59.695312 259.082031 60.292969 263.464844 62.558594 266.117188 C 64.53125 268.433594 67.855469 270.902344 72.535156 273.515625 C 92.074219 284.445312 126.761719 305.046875 176.601562 335.320312 C 181.769531 338.453125 185.769531 340.988281 190.707031 338.03125 C 214.933594 323.527344 252.691406 301.066406 303.980469 270.652344 C 308.464844 267.984375 310.71875 264.15625 310.746094 259.160156 C 310.808594 245.347656 310.839844 221.402344 310.839844 187.320312 C 310.839844 153.242188 310.808594 129.292969 310.746094 115.484375 C 310.71875 110.484375 308.464844 106.65625 303.980469 103.992188 C 252.691406 73.574219 214.933594 51.113281 190.707031 36.609375 C 185.769531 33.652344 181.769531 36.1875 176.601562 39.320312 C 126.761719 69.597656 92.074219 90.199219 72.535156 101.125 C 67.855469 103.742188 64.53125 106.207031 62.558594 108.527344 C 60.292969 111.179688 59.695312 115.558594 59.617188 119.269531 C 59.53125 123.445312 59.484375 146.128906 59.484375 187.320312 Z M -19.273438 448.824219 C -17.414062 448.824219 -15.882812 447.902344 -14.679688 446.054688 C -3.519531 428.976562 3.335938 418.773438 5.886719 415.441406 C 6.371094 414.8125 6.621094 414.898438 6.632812 415.691406 C 7.109375 435.410156 7.230469 450.636719 7 461.375 C 6.988281 461.898438 7.019531 462.910156 7.09375 464.410156 C 7.101562 464.632812 7.183594 464.824219 7.351562 464.980469 C 7.515625 465.140625 7.710938 465.21875 7.941406 465.21875 L 18.28125 465.21875 C 18.820312 465.21875 19.085938 464.949219 19.085938 464.410156 L 19.085938 390.054688 C 19.085938 389.644531 18.882812 389.4375 18.472656 389.4375 L 9.015625 389.4375 C 8.3125 389.4375 7.773438 389.734375 7.402344 390.324219 C -9.957031 418.011719 -18.664062 431.894531 -18.714844 431.96875 C -18.867188 432.214844 -19.0625 432.335938 -19.292969 432.335938 C -19.535156 432.335938 -19.734375 432.214844 -19.886719 431.96875 C -19.9375 431.894531 -28.675781 418.03125 -46.101562 390.382812 C -46.472656 389.792969 -47.011719 389.496094 -47.714844 389.496094 L -57.171875 389.535156 C -57.582031 389.535156 -57.785156 389.742188 -57.785156 390.152344 L -57.613281 464.507812 C -57.613281 465.042969 -57.34375 465.3125 -56.804688 465.3125 L -46.464844 465.273438 C -46.234375 465.273438 -46.039062 465.195312 -45.875 465.039062 C -45.710938 464.882812 -45.625 464.691406 -45.621094 464.46875 C -45.542969 462.96875 -45.511719 461.957031 -45.523438 461.429688 C -45.78125 450.695312 -45.695312 435.46875 -45.273438 415.75 C -45.261719 414.953125 -45.011719 414.871094 -44.523438 415.5 C -41.960938 418.832031 -35.082031 429.023438 -23.882812 446.074219 C -22.679688 447.90625 -21.140625 448.824219 -19.273438 448.824219 Z M 75.589844 422.320312 C 68.722656 422.320312 61.898438 422.277344 55.121094 422.1875 C 54.9375 422.1875 54.777344 422.121094 54.644531 421.992188 C 54.515625 421.859375 54.449219 421.699219 54.449219 421.515625 L 54.449219 390.804688 C 54.449219 389.917969 54.007812 389.476562 53.125 389.476562 L 43.457031 389.476562 C 42.558594 389.476562 42.109375 389.925781 42.109375 390.824219 C 42.109375 403.085938 42.125 415.261719 42.148438 427.355469 C 42.148438 439.453125 42.15625 451.628906 42.167969 463.890625 C 42.183594 464.789062 42.636719 465.230469 43.535156 465.21875 L 53.199219 465.21875 C 54.085938 465.203125 54.519531 464.753906 54.507812 463.871094 L 54.46875 433.160156 C 54.46875 432.980469 54.53125 432.824219 54.660156 432.691406 C 54.785156 432.5625 54.941406 432.492188 55.121094 432.488281 C 61.898438 432.386719 68.730469 432.335938 75.609375 432.335938 C 82.476562 432.320312 89.296875 432.359375 96.074219 432.449219 C 96.261719 432.449219 96.421875 432.515625 96.550781 432.648438 C 96.683594 432.777344 96.75 432.9375 96.75 433.121094 L 96.75 463.832031 C 96.75 464.71875 97.191406 465.160156 98.074219 465.160156 L 107.742188 465.160156 C 108.636719 465.160156 109.085938 464.710938 109.085938 463.8125 C 109.085938 451.554688 109.074219 439.382812 109.046875 427.300781 C 109.046875 415.203125 109.035156 403.027344 109.011719 390.765625 C 109.011719 389.867188 108.5625 389.421875 107.664062 389.421875 L 97.996094 389.4375 C 97.113281 389.4375 96.671875 389.882812 96.671875 390.765625 L 96.730469 421.476562 C 96.730469 421.660156 96.664062 421.820312 96.53125 421.953125 C 96.402344 422.082031 96.242188 422.148438 96.058594 422.148438 C 89.277344 422.25 82.457031 422.308594 75.589844 422.320312 Z M 263.191406 390.503906 C 263.191406 390.371094 263.164062 390.238281 263.113281 390.117188 C 263.0625 389.992188 262.988281 389.878906 262.890625 389.785156 C 262.796875 389.691406 262.6875 389.617188 262.5625 389.566406 C 262.4375 389.515625 262.304688 389.488281 262.171875 389.488281 L 252.101562 389.507812 C 251.964844 389.507812 251.835938 389.53125 251.710938 389.585938 C 251.585938 389.636719 251.476562 389.710938 251.382812 389.804688 C 251.285156 389.902344 251.210938 390.011719 251.160156 390.136719 C 251.109375 390.261719 251.085938 390.390625 251.085938 390.527344 L 251.210938 464.171875 C 251.210938 464.304688 251.238281 464.4375 251.289062 464.558594 C 251.34375 464.683594 251.417969 464.796875 251.511719 464.890625 C 251.609375 464.984375 251.71875 465.058594 251.84375 465.109375 C 251.96875 465.160156 252.097656 465.1875 252.234375 465.1875 L 262.304688 465.167969 C 262.4375 465.167969 262.570312 465.144531 262.691406 465.089844 C 262.816406 465.039062 262.929688 464.964844 263.023438 464.871094 C 263.117188 464.773438 263.191406 464.664062 263.242188 464.539062 C 263.292969 464.414062 263.320312 464.285156 263.320312 464.148438 Z M 180.464844 438.042969 L 197.085938 438.042969 C 197.734375 438.042969 198.34375 438.191406 198.914062 438.484375 C 199.488281 438.78125 199.960938 439.191406 200.335938 439.714844 L 218.167969 464.738281 C 218.363281 465.007812 218.617188 465.140625 218.9375 465.140625 C 225.84375 465.21875 230.410156 465.25 232.640625 465.234375 C 232.710938 465.242188 232.757812 465.214844 232.792969 465.15625 C 232.824219 465.097656 232.820312 465.039062 232.777344 464.988281 C 228.585938 459.183594 222 450.207031 213.019531 438.0625 C 212.558594 437.445312 212.691406 437.03125 213.421875 436.8125 C 223.992188 433.496094 229.667969 426.980469 230.449219 417.265625 C 231.398438 405.417969 227.226562 397.132812 217.9375 392.417969 C 214.121094 390.472656 207.851562 389.535156 199.125 389.613281 C 195.359375 389.652344 184.953125 389.675781 167.914062 389.6875 C 167.738281 389.6875 167.589844 389.75 167.464844 389.875 C 167.34375 390 167.28125 390.148438 167.28125 390.324219 L 167.28125 463.777344 C 167.28125 464.789062 167.785156 465.292969 168.796875 465.292969 L 177.871094 465.292969 C 178.84375 465.292969 179.328125 464.808594 179.328125 463.832031 L 179.328125 439.175781 C 179.328125 438.421875 179.707031 438.042969 180.464844 438.042969 Z M 286.066406 390.6875 L 286.335938 463.910156 C 286.335938 464.0625 286.367188 464.207031 286.421875 464.34375 C 286.480469 464.484375 286.5625 464.605469 286.667969 464.710938 C 286.777344 464.816406 286.898438 464.898438 287.035156 464.957031 C 287.175781 465.015625 287.320312 465.042969 287.472656 465.042969 L 318.777344 464.929688 C 320.003906 464.925781 321.222656 464.863281 322.441406 464.738281 C 323.660156 464.617188 324.867188 464.441406 326.070312 464.203125 C 327.269531 463.964844 328.453125 463.671875 329.625 463.320312 C 330.792969 462.972656 331.945312 462.566406 333.074219 462.105469 C 334.203125 461.644531 335.308594 461.132812 336.386719 460.566406 C 337.464844 460 338.507812 459.386719 339.527344 458.71875 C 340.542969 458.054688 341.519531 457.339844 342.464844 456.582031 C 343.410156 455.820312 344.3125 455.019531 345.175781 454.171875 C 346.039062 453.328125 346.855469 452.441406 347.628906 451.515625 C 348.402344 450.59375 349.128906 449.632812 349.804688 448.640625 C 350.484375 447.648438 351.109375 446.625 351.683594 445.570312 C 352.253906 444.515625 352.773438 443.4375 353.238281 442.335938 C 353.703125 441.230469 354.113281 440.109375 354.464844 438.96875 C 354.816406 437.824219 355.109375 436.667969 355.34375 435.5 C 355.582031 434.328125 355.757812 433.152344 355.871094 431.964844 C 355.988281 430.777344 356.046875 429.585938 356.042969 428.394531 L 356.042969 425.742188 C 356.039062 424.550781 355.972656 423.359375 355.851562 422.171875 C 355.726562 420.984375 355.542969 419.808594 355.300781 418.636719 C 355.058594 417.46875 354.757812 416.3125 354.398438 415.171875 C 354.039062 414.03125 353.621094 412.910156 353.148438 411.808594 C 352.679688 410.707031 352.152344 409.632812 351.570312 408.582031 C 350.988281 407.53125 350.355469 406.511719 349.671875 405.523438 C 348.988281 404.53125 348.257812 403.578125 347.476562 402.65625 C 346.695312 401.738281 345.871094 400.859375 345 400.015625 C 344.132812 399.175781 343.222656 398.378906 342.273438 397.625 C 341.324219 396.871094 340.335938 396.164062 339.316406 395.503906 C 338.292969 394.847656 337.242188 394.238281 336.160156 393.679688 C 335.078125 393.121094 333.96875 392.613281 332.835938 392.160156 C 331.703125 391.707031 330.546875 391.3125 329.375 390.96875 C 328.199219 390.625 327.011719 390.339844 325.808594 390.113281 C 324.609375 389.882812 323.394531 389.714844 322.175781 389.601562 C 320.957031 389.488281 319.734375 389.433594 318.507812 389.4375 L 287.203125 389.554688 C 287.050781 389.554688 286.90625 389.582031 286.769531 389.640625 C 286.628906 389.699219 286.507812 389.78125 286.398438 389.886719 C 286.292969 389.992188 286.210938 390.117188 286.15625 390.253906 C 286.097656 390.394531 286.066406 390.539062 286.066406 390.6875 Z M 387.984375 420.996094 C 387.851562 420.996094 387.722656 420.96875 387.601562 420.917969 C 387.476562 420.867188 387.371094 420.796875 387.277344 420.703125 C 387.183594 420.609375 387.109375 420.5 387.058594 420.378906 C 387.007812 420.257812 386.984375 420.128906 386.984375 419.996094 L 386.867188 400.738281 C 386.867188 400.605469 386.894531 400.480469 386.945312 400.355469 C 386.996094 400.234375 387.066406 400.125 387.160156 400.03125 C 387.253906 399.9375 387.363281 399.867188 387.484375 399.816406 C 387.605469 399.765625 387.734375 399.742188 387.867188 399.742188 L 428.589844 399.644531 C 428.722656 399.644531 428.851562 399.617188 428.972656 399.566406 C 429.09375 399.515625 429.203125 399.445312 429.296875 399.351562 C 429.390625 399.257812 429.464844 399.148438 429.515625 399.027344 C 429.566406 398.90625 429.589844 398.777344 429.589844 398.644531 L 429.53125 390.707031 C 429.53125 390.574219 429.507812 390.449219 429.457031 390.324219 C 429.40625 390.203125 429.332031 390.09375 429.238281 390 C 429.144531 389.90625 429.039062 389.835938 428.914062 389.785156 C 428.792969 389.734375 428.664062 389.707031 428.53125 389.707031 L 375.875 389.632812 C 375.742188 389.632812 375.613281 389.65625 375.492188 389.707031 C 375.371094 389.757812 375.261719 389.832031 375.167969 389.925781 C 375.074219 390.019531 375.003906 390.125 374.953125 390.25 C 374.902344 390.371094 374.875 390.5 374.875 390.632812 L 375.066406 464.160156 C 375.066406 464.292969 375.09375 464.421875 375.144531 464.542969 C 375.195312 464.664062 375.265625 464.773438 375.359375 464.867188 C 375.453125 464.960938 375.5625 465.03125 375.683594 465.082031 C 375.808594 465.132812 375.933594 465.160156 376.066406 465.160156 L 428.550781 465.121094 C 428.824219 465.121094 429.058594 465.027344 429.253906 464.835938 C 429.445312 464.644531 429.546875 464.414062 429.550781 464.140625 L 429.6875 456.089844 C 429.6875 455.953125 429.664062 455.824219 429.617188 455.699219 C 429.566406 455.574219 429.496094 455.464844 429.402344 455.371094 C 429.304688 455.273438 429.199219 455.199219 429.074219 455.148438 C 428.949219 455.09375 428.820312 455.070312 428.6875 455.070312 L 388.15625 454.972656 C 388.023438 454.972656 387.894531 454.949219 387.773438 454.898438 C 387.652344 454.847656 387.542969 454.773438 387.449219 454.679688 C 387.355469 454.585938 387.28125 454.480469 387.230469 454.355469 C 387.179688 454.234375 387.15625 454.105469 387.15625 453.972656 L 387.039062 431.988281 C 387.039062 431.855469 387.066406 431.730469 387.117188 431.605469 C 387.167969 431.484375 387.238281 431.375 387.332031 431.28125 C 387.425781 431.1875 387.535156 431.117188 387.65625 431.066406 C 387.78125 431.015625 387.90625 430.988281 388.039062 430.988281 L 424.285156 431.125 C 424.417969 431.125 424.546875 431.097656 424.667969 431.046875 C 424.789062 430.996094 424.898438 430.925781 424.992188 430.832031 C 425.085938 430.738281 425.160156 430.628906 425.210938 430.507812 C 425.261719 430.382812 425.285156 430.257812 425.285156 430.125 L 425.363281 422.089844 C 425.363281 421.957031 425.335938 421.832031 425.285156 421.707031 C 425.234375 421.585938 425.164062 421.476562 425.070312 421.382812 C 424.976562 421.289062 424.867188 421.21875 424.746094 421.167969 C 424.621094 421.117188 424.496094 421.09375 424.363281 421.09375 Z M 387.984375 420.996094 " fill-opacity="1" fill-rule="nonzero"/></g></g><g clip-path="url(#997b329466)"><g clip-path="url(#bf6ea5cfc2)"><path fill="#e92026" d="M 310.839844 187.320312 C 310.839844 221.402344 310.808594 245.347656 310.746094 259.160156 C 310.71875 264.15625 308.464844 267.984375 303.980469 270.652344 C 252.691406 301.066406 214.933594 323.527344 190.707031 338.03125 C 185.769531 340.988281 181.769531 338.453125 176.601562 335.320312 C 126.761719 305.046875 92.074219 284.445312 72.535156 273.515625 C 67.855469 270.902344 64.53125 268.433594 62.558594 266.117188 C 60.292969 263.464844 59.695312 259.082031 59.617188 255.371094 C 59.53125 251.195312 59.484375 228.511719 59.484375 187.320312 C 59.484375 146.128906 59.53125 123.445312 59.617188 119.269531 C 59.695312 115.558594 60.292969 111.179688 62.558594 108.527344 C 64.53125 106.207031 67.855469 103.742188 72.535156 101.125 C 92.074219 90.199219 126.761719 69.597656 176.601562 39.320312 C 181.769531 36.1875 185.769531 33.652344 190.707031 36.609375 C 214.933594 51.113281 252.691406 73.574219 303.980469 103.992188 C 308.464844 106.65625 310.71875 110.484375 310.746094 115.484375 C 310.808594 129.292969 310.839844 153.242188 310.839844 187.320312 Z M 135.414062 266 C 135.292969 265.5625 135.3125 265.132812 135.476562 264.714844 C 135.640625 264.292969 135.914062 263.964844 136.300781 263.734375 L 146.140625 257.773438 C 146.832031 257.355469 147.582031 257.144531 148.386719 257.140625 C 149.195312 257.136719 149.945312 257.339844 150.636719 257.753906 L 220.035156 299.441406 C 220.507812 299.722656 221.015625 299.941406 221.546875 300.085938 C 222.082031 300.234375 222.625 300.304688 223.179688 300.304688 C 223.734375 300.300781 224.277344 300.226562 224.808594 300.078125 C 225.34375 299.925781 225.84375 299.707031 226.320312 299.421875 L 291.738281 259.792969 C 292.25 259.480469 292.714844 259.113281 293.132812 258.679688 C 293.546875 258.25 293.902344 257.769531 294.195312 257.246094 C 294.488281 256.722656 294.710938 256.171875 294.859375 255.589844 C 295.011719 255.007812 295.085938 254.417969 295.082031 253.816406 C 295.015625 173.152344 294.945312 128.863281 294.871094 120.960938 C 294.832031 116.136719 289.027344 113.386719 285.53125 111.351562 C 255.074219 93.542969 222.757812 74.386719 188.574219 53.886719 C 187.773438 53.410156 186.910156 53.167969 185.976562 53.164062 C 185.042969 53.160156 184.171875 53.394531 183.367188 53.867188 C 153.742188 71.214844 119.484375 91.300781 80.585938 114.117188 C 77.039062 116.195312 75.261719 118.890625 75.261719 122.210938 C 75.289062 192.292969 75.390625 235.519531 75.570312 251.894531 C 75.628906 257.332031 79.742188 259.214844 84.332031 261.90625 C 118.3125 281.855469 152.085938 301.953125 185.652344 322.195312 C 185.953125 322.378906 186.28125 322.46875 186.636719 322.464844 C 186.992188 322.460938 187.324219 322.363281 187.632812 322.175781 L 205.890625 311.125 C 206 311.058594 206.085938 310.96875 206.148438 310.859375 C 206.210938 310.746094 206.242188 310.628906 206.242188 310.5 C 206.242188 310.371094 206.210938 310.253906 206.148438 310.140625 C 206.085938 310.03125 206 309.941406 205.890625 309.875 C 169.347656 287.941406 147.054688 274.808594 139.011719 270.476562 C 137.175781 269.503906 135.980469 268.011719 135.414062 266 Z M 135.414062 266 " fill-opacity="1" fill-rule="nonzero"/></g></g><g clip-path="url(#c38f03c797)"><g clip-path="url(#fab93a480b)"><path fill="#ffffff" d="M 135.414062 266 C 135.980469 268.011719 137.175781 269.503906 139.011719 270.476562 C 147.054688 274.808594 169.347656 287.941406 205.890625 309.875 C 206 309.941406 206.085938 310.03125 206.148438 310.140625 C 206.210938 310.253906 206.242188 310.371094 206.242188 310.5 C 206.242188 310.628906 206.210938 310.746094 206.148438 310.859375 C 206.085938 310.96875 206 311.058594 205.890625 311.125 L 187.632812 322.175781 C 187.324219 322.363281 186.992188 322.460938 186.636719 322.464844 C 186.28125 322.46875 185.953125 322.378906 185.652344 322.195312 C 152.085938 301.953125 118.3125 281.855469 84.332031 261.90625 C 79.742188 259.214844 75.628906 257.332031 75.570312 251.894531 C 75.390625 235.519531 75.289062 192.292969 75.261719 122.210938 C 75.261719 118.890625 77.039062 116.195312 80.585938 114.117188 C 119.484375 91.300781 153.742188 71.214844 183.367188 53.867188 C 184.171875 53.394531 185.042969 53.160156 185.976562 53.164062 C 186.910156 53.167969 187.773438 53.410156 188.574219 53.886719 C 222.757812 74.386719 255.074219 93.542969 285.53125 111.351562 C 289.027344 113.386719 294.832031 116.136719 294.871094 120.960938 C 294.945312 128.863281 295.015625 173.152344 295.082031 253.816406 C 295.085938 254.417969 295.011719 255.007812 294.859375 255.589844 C 294.710938 256.171875 294.488281 256.722656 294.195312 257.246094 C 293.902344 257.769531 293.546875 258.25 293.132812 258.679688 C 292.714844 259.113281 292.25 259.480469 291.738281 259.792969 L 226.320312 299.421875 C 225.84375 299.707031 225.339844 299.925781 224.808594 300.078125 C 224.277344 300.226562 223.734375 300.300781 223.179688 300.304688 C 222.625 300.304688 222.082031 300.234375 221.546875 300.085938 C 221.015625 299.941406 220.507812 299.722656 220.035156 299.441406 L 150.636719 257.753906 C 149.945312 257.339844 149.195312 257.136719 148.386719 257.140625 C 147.582031 257.144531 146.832031 257.355469 146.140625 257.773438 L 136.300781 263.734375 C 135.914062 263.964844 135.640625 264.292969 135.476562 264.714844 C 135.3125 265.132812 135.292969 265.5625 135.414062 266 Z M 177.65625 71.722656 C 177.175781 71.433594 176.65625 71.273438 176.09375 71.242188 C 175.53125 71.214844 174.996094 71.316406 174.488281 71.550781 L 163.398438 76.644531 C 162.824219 76.90625 162.359375 77.300781 162.007812 77.824219 C 161.652344 78.347656 161.457031 78.925781 161.425781 79.558594 C 161.394531 80.1875 161.527344 80.78125 161.828125 81.339844 C 162.125 81.898438 162.546875 82.335938 163.089844 82.65625 L 238.40625 126.976562 C 238.925781 127.277344 239.484375 127.433594 240.082031 127.4375 C 240.683594 127.445312 241.246094 127.304688 241.769531 127.015625 L 251.226562 121.804688 C 251.484375 121.660156 251.722656 121.484375 251.9375 121.277344 C 252.152344 121.070312 252.335938 120.839844 252.488281 120.585938 C 252.640625 120.332031 252.761719 120.058594 252.84375 119.773438 C 252.925781 119.488281 252.96875 119.195312 252.976562 118.898438 C 252.980469 118.601562 252.949219 118.308594 252.878906 118.019531 C 252.804688 117.730469 252.699219 117.453125 252.554688 117.191406 C 252.410156 116.933594 252.238281 116.695312 252.03125 116.480469 C 251.824219 116.265625 251.59375 116.078125 251.339844 115.925781 Z M 258.757812 157.667969 L 258.757812 237.230469 C 258.757812 238.144531 258.878906 239.042969 259.121094 239.921875 C 259.359375 240.804688 259.714844 241.640625 260.179688 242.425781 C 260.640625 243.214844 261.203125 243.925781 261.859375 244.566406 C 262.515625 245.203125 263.242188 245.742188 264.042969 246.1875 C 264.621094 246.507812 266.355469 247.460938 269.253906 249.050781 C 272.722656 250.972656 274.460938 249.945312 274.460938 245.976562 C 274.433594 215.210938 274.414062 182.402344 274.402344 147.539062 C 274.402344 142.332031 274.652344 138.910156 270.539062 135.164062 C 270.203125 134.855469 269.824219 134.605469 269.402344 134.421875 C 268.984375 134.238281 268.546875 134.121094 268.09375 134.078125 C 267.636719 134.035156 267.1875 134.066406 266.738281 134.167969 C 266.292969 134.273438 265.875 134.441406 265.484375 134.683594 L 187.996094 181.613281 C 187.304688 182.039062 186.554688 182.253906 185.742188 182.253906 C 184.929688 182.257812 184.175781 182.050781 183.480469 181.632812 L 102.320312 132.894531 C 102.082031 132.75 101.828125 132.632812 101.558594 132.542969 C 101.292969 132.449219 101.023438 132.386719 100.742188 132.351562 C 100.464844 132.316406 100.183594 132.308594 99.902344 132.332031 C 99.621094 132.351562 99.347656 132.402344 99.078125 132.480469 C 98.808594 132.558594 98.546875 132.664062 98.296875 132.796875 C 98.050781 132.925781 97.816406 133.082031 97.601562 133.261719 C 97.382812 133.441406 97.1875 133.640625 97.011719 133.859375 C 96.835938 134.082031 96.683594 134.316406 96.554688 134.566406 C 95.851562 135.964844 95.507812 138.152344 95.519531 141.140625 C 95.683594 171.324219 95.71875 203.304688 95.613281 237.078125 C 95.589844 242.328125 97.984375 246.050781 102.800781 248.242188 L 104.742188 249.125 C 109.152344 251.136719 111.355469 249.730469 111.355469 244.898438 L 111.355469 157.359375 C 111.347656 157.207031 111.410156 157.09375 111.542969 157.015625 C 111.671875 156.9375 111.800781 156.9375 111.929688 157.011719 C 133.648438 170.042969 155.402344 183.023438 177.195312 195.949219 C 181.25 198.332031 183.75 201.175781 188.6875 198.238281 C 211.878906 184.476562 234.960938 170.792969 257.933594 157.1875 C 258.019531 157.140625 258.109375 157.117188 258.207031 157.117188 C 258.304688 157.117188 258.398438 157.144531 258.480469 157.191406 C 258.566406 157.242188 258.632812 157.308594 258.683594 157.394531 C 258.730469 157.476562 258.757812 157.570312 258.757812 157.667969 Z M 184.289062 228.410156 C 185.503906 228.421875 186.5625 228.167969 187.460938 227.640625 C 195.890625 222.835938 204.332031 217.808594 212.789062 212.554688 C 213.050781 212.390625 213.289062 212.199219 213.507812 211.980469 C 213.722656 211.761719 213.910156 211.519531 214.070312 211.253906 C 214.226562 210.992188 214.355469 210.710938 214.445312 210.417969 C 214.539062 210.125 214.597656 209.824219 214.617188 209.515625 C 214.640625 209.207031 214.625 208.902344 214.574219 208.597656 C 214.523438 208.292969 214.4375 208 214.316406 207.714844 C 214.195312 207.433594 214.042969 207.167969 213.859375 206.917969 C 213.675781 206.671875 213.46875 206.449219 213.230469 206.25 C 212.28125 205.457031 210.246094 204.027344 207.121094 201.964844 C 204.273438 200.082031 201.46875 200.132812 198.703125 202.117188 C 195.792969 204.207031 191.898438 206.65625 187.015625 209.460938 C 185.789062 210.152344 184.902344 210.496094 184.363281 210.496094 C 183.828125 210.496094 182.949219 210.144531 181.730469 209.441406 C 176.875 206.597656 173 204.117188 170.105469 202.003906 C 167.363281 199.992188 164.558594 199.914062 161.6875 201.773438 C 158.546875 203.808594 156.5 205.21875 155.539062 206 C 155.300781 206.199219 155.089844 206.417969 154.902344 206.664062 C 154.71875 206.910156 154.566406 207.175781 154.445312 207.460938 C 154.320312 207.742188 154.234375 208.035156 154.179688 208.339844 C 154.128906 208.644531 154.113281 208.949219 154.132812 209.253906 C 154.152344 209.5625 154.207031 209.863281 154.296875 210.160156 C 154.390625 210.453125 154.511719 210.734375 154.671875 210.996094 C 154.828125 211.261719 155.011719 211.503906 155.226562 211.726562 C 155.441406 211.945312 155.679688 212.140625 155.941406 212.304688 C 164.347656 217.632812 172.746094 222.738281 181.136719 227.621094 C 182.019531 228.148438 183.070312 228.410156 184.289062 228.410156 Z M 184.289062 228.410156 " fill-opacity="1" fill-rule="nonzero"/></g></g><g clip-path="url(#488c556861)"><g clip-path="url(#09416cea85)"><path fill="#e92026" d="M 177.65625 71.722656 L 251.339844 115.925781 C 251.59375 116.078125 251.824219 116.265625 252.03125 116.480469 C 252.238281 116.695312 252.410156 116.933594 252.554688 117.191406 C 252.699219 117.453125 252.804688 117.730469 252.878906 118.019531 C 252.949219 118.308594 252.980469 118.601562 252.976562 118.898438 C 252.96875 119.195312 252.925781 119.488281 252.84375 119.773438 C 252.761719 120.058594 252.640625 120.332031 252.488281 120.585938 C 252.335938 120.839844 252.152344 121.070312 251.9375 121.277344 C 251.722656 121.484375 251.484375 121.660156 251.226562 121.804688 L 241.769531 127.015625 C 241.246094 127.304688 240.683594 127.445312 240.082031 127.4375 C 239.484375 127.433594 238.925781 127.277344 238.40625 126.976562 L 163.089844 82.65625 C 162.546875 82.335938 162.125 81.898438 161.828125 81.339844 C 161.527344 80.78125 161.394531 80.1875 161.425781 79.558594 C 161.457031 78.925781 161.652344 78.347656 162.007812 77.824219 C 162.359375 77.300781 162.824219 76.90625 163.398438 76.644531 L 174.488281 71.550781 C 174.996094 71.316406 175.53125 71.214844 176.09375 71.242188 C 176.65625 71.273438 177.175781 71.433594 177.65625 71.722656 Z M 177.65625 71.722656 " fill-opacity="1" fill-rule="nonzero"/></g></g><g clip-path="url(#ab083cbfbf)"><g clip-path="url(#3556471149)"><path fill="#e92026" d="M 258.757812 157.667969 C 258.757812 157.570312 258.730469 157.476562 258.683594 157.394531 C 258.632812 157.308594 258.566406 157.242188 258.480469 157.191406 C 258.398438 157.144531 258.304688 157.117188 258.207031 157.117188 C 258.109375 157.117188 258.019531 157.140625 257.933594 157.1875 C 234.960938 170.792969 211.878906 184.476562 188.6875 198.238281 C 183.75 201.175781 181.25 198.332031 177.195312 195.949219 C 155.402344 183.023438 133.648438 170.042969 111.929688 157.011719 C 111.800781 156.9375 111.671875 156.9375 111.542969 157.015625 C 111.410156 157.09375 111.347656 157.207031 111.355469 157.359375 L 111.355469 244.898438 C 111.355469 249.730469 109.152344 251.136719 104.742188 249.125 L 102.800781 248.242188 C 97.984375 246.050781 95.589844 242.328125 95.613281 237.078125 C 95.71875 203.304688 95.683594 171.324219 95.519531 141.140625 C 95.507812 138.152344 95.851562 135.964844 96.554688 134.566406 C 96.683594 134.316406 96.835938 134.082031 97.011719 133.859375 C 97.1875 133.640625 97.382812 133.441406 97.601562 133.261719 C 97.816406 133.082031 98.050781 132.925781 98.296875 132.796875 C 98.546875 132.664062 98.808594 132.558594 99.078125 132.480469 C 99.347656 132.402344 99.621094 132.351562 99.902344 132.332031 C 100.183594 132.308594 100.464844 132.316406 100.742188 132.351562 C 101.023438 132.386719 101.292969 132.449219 101.558594 132.542969 C 101.828125 132.632812 102.082031 132.75 102.320312 132.894531 L 183.480469 181.632812 C 184.175781 182.050781 184.929688 182.257812 185.742188 182.253906 C 186.554688 182.253906 187.304688 182.039062 187.996094 181.613281 L 265.484375 134.683594 C 265.875 134.441406 266.292969 134.273438 266.738281 134.167969 C 267.1875 134.066406 267.636719 134.035156 268.09375 134.078125 C 268.546875 134.121094 268.984375 134.238281 269.402344 134.421875 C 269.824219 134.605469 270.203125 134.855469 270.539062 135.164062 C 274.652344 138.910156 274.402344 142.332031 274.402344 147.539062 C 274.414062 182.402344 274.433594 215.210938 274.460938 245.976562 C 274.460938 249.945312 272.722656 250.972656 269.253906 249.050781 C 266.355469 247.460938 264.621094 246.507812 264.042969 246.1875 C 263.242188 245.742188 262.515625 245.203125 261.859375 244.566406 C 261.203125 243.925781 260.640625 243.214844 260.179688 242.425781 C 259.714844 241.640625 259.359375 240.804688 259.121094 239.921875 C 258.878906 239.042969 258.757812 238.144531 258.757812 237.230469 Z M 258.757812 157.667969 " fill-opacity="1" fill-rule="nonzero"/></g></g><g clip-path="url(#6c362a4d8c)"><g clip-path="url(#f7a30bca2e)"><path fill="#e92026" d="M 184.363281 210.496094 C 184.902344 210.496094 185.789062 210.152344 187.015625 209.460938 C 191.898438 206.65625 195.792969 204.207031 198.703125 202.117188 C 201.46875 200.132812 204.273438 200.082031 207.121094 201.964844 C 210.246094 204.027344 212.28125 205.457031 213.230469 206.25 C 213.46875 206.449219 213.675781 206.671875 213.859375 206.917969 C 214.042969 207.167969 214.195312 207.433594 214.316406 207.714844 C 214.4375 208 214.523438 208.292969 214.574219 208.597656 C 214.625 208.902344 214.640625 209.207031 214.617188 209.515625 C 214.597656 209.824219 214.539062 210.125 214.445312 210.417969 C 214.355469 210.710938 214.226562 210.992188 214.070312 211.253906 C 213.910156 211.519531 213.722656 211.761719 213.507812 211.980469 C 213.289062 212.199219 213.050781 212.390625 212.789062 212.554688 C 204.332031 217.808594 195.890625 222.835938 187.460938 227.640625 C 186.5625 228.167969 185.503906 228.421875 184.289062 228.410156 C 183.070312 228.410156 182.019531 228.148438 181.136719 227.621094 C 172.746094 222.738281 164.347656 217.632812 155.941406 212.304688 C 155.679688 212.140625 155.441406 211.945312 155.226562 211.726562 C 155.011719 211.503906 154.828125 211.261719 154.671875 210.996094 C 154.511719 210.734375 154.390625 210.453125 154.296875 210.160156 C 154.207031 209.863281 154.152344 209.5625 154.132812 209.253906 C 154.113281 208.949219 154.128906 208.644531 154.179688 208.339844 C 154.234375 208.035156 154.320312 207.742188 154.445312 207.460938 C 154.566406 207.175781 154.71875 206.910156 154.902344 206.664062 C 155.089844 206.417969 155.300781 206.199219 155.539062 206 C 156.5 205.21875 158.546875 203.808594 161.6875 201.773438 C 164.558594 199.914062 167.363281 199.992188 170.105469 202.003906 C 173 204.117188 176.875 206.597656 181.730469 209.441406 C 182.949219 210.144531 183.828125 210.496094 184.363281 210.496094 Z M 184.363281 210.496094 " fill-opacity="1" fill-rule="nonzero"/></g></g><g clip-path="url(#b5200708f8)"><path stroke-linecap="butt" transform="matrix(0.75, 0, 0, 0.75, -294.774233, -208.211778)" fill="none" stroke-linejoin="miter" d="M 473.027133 525.683446 C 473.027133 580.605325 473.084425 610.850118 473.204217 616.417827 C 473.308383 621.365744 474.10005 627.209495 477.126092 630.745953 C 479.7563 633.834495 484.188592 637.126162 490.422968 640.610537 C 516.475053 655.183455 562.730264 682.652207 629.183394 723.016793 C 636.074019 727.193876 641.402144 730.574085 647.990686 726.631376 C 680.292772 707.292833 730.636525 677.344915 799.016738 636.792829 C 804.995905 633.235537 808.006322 628.13137 808.037572 621.469911 C 808.126114 603.053243 808.16778 571.126158 808.16778 525.683446 C 808.16778 480.245943 808.126114 448.313649 808.037572 429.90219 C 808.006322 423.235523 804.995905 418.131356 799.016738 414.579272 C 730.636525 374.021978 680.292772 344.074059 647.990686 324.735516 C 641.402144 320.792808 636.074019 324.173016 629.183394 328.3501 C 562.730264 368.719894 516.475053 396.188646 490.422968 410.756355 C 484.188592 414.245939 479.7563 417.532397 477.126092 420.626148 C 474.10005 424.162606 473.308383 430.001148 473.204217 434.949065 C 473.084425 440.516774 473.027133 470.761568 473.027133 525.683446 " stroke="#858c90" stroke-width="2" stroke-opacity="1" stroke-miterlimit="4"/><path stroke-linecap="butt" transform="matrix(0.75, 0, 0, 0.75, -294.774233, -208.211778)" fill="none" stroke-linejoin="miter" d="M 574.266723 630.589703 C 574.105265 630.00637 574.131307 629.433453 574.350057 628.876161 C 574.568807 628.313661 574.93339 627.876161 575.449015 627.56887 L 588.568808 619.620952 C 589.490683 619.063661 590.485474 618.782411 591.563599 618.777202 C 592.641725 618.771994 593.641725 619.042827 594.5636 619.594911 L 687.089647 675.178248 C 687.725064 675.553248 688.396939 675.844914 689.110481 676.037623 C 689.824023 676.235539 690.547981 676.329289 691.287564 676.329289 C 692.021939 676.324081 692.745898 676.225123 693.459439 676.021998 C 694.167773 675.824081 694.839648 675.532414 695.469856 675.152206 L 782.699029 622.313661 C 783.38132 621.896994 784.001112 621.407411 784.553195 620.829286 C 785.110487 620.256369 785.584446 619.615744 785.975071 618.917827 C 786.365696 618.219911 786.662571 617.485536 786.860487 616.709494 C 787.058404 615.933452 787.157362 615.146994 787.157362 614.34491 C 787.068821 506.79282 786.975071 447.740733 786.870904 437.204274 C 786.824029 430.771982 779.084445 427.105315 774.417778 424.391773 C 733.813609 400.64698 690.719856 375.105311 645.146936 347.771976 C 644.079228 347.136559 642.922978 346.813643 641.678186 346.808434 C 640.433394 346.803226 639.277144 347.115726 638.199019 347.745935 C 598.704225 370.876144 553.027139 397.657396 501.162552 428.079273 C 496.428177 430.850107 494.063593 434.443857 494.063593 438.870941 C 494.100051 532.313655 494.235468 589.949075 494.475051 611.78241 C 494.547968 619.032411 500.032343 621.542828 506.157344 625.131369 C 551.464638 651.73033 596.490683 678.527206 641.251103 705.516791 C 641.652144 705.761583 642.084436 705.881375 642.563603 705.876166 C 643.037561 705.870958 643.48027 705.74075 643.891728 705.49075 L 668.230271 690.756374 C 668.376104 690.667832 668.490688 690.54804 668.574021 690.402207 C 668.657354 690.251165 668.70423 690.094915 668.699021 689.92304 C 668.70423 689.751165 668.657354 689.594915 668.574021 689.443874 C 668.490688 689.29804 668.376104 689.178249 668.230271 689.089707 C 619.511518 659.844913 589.787558 642.334496 579.05839 636.558454 C 576.615682 635.261578 575.021932 633.271995 574.266723 630.589703 " stroke="#858c90" stroke-width="2" stroke-opacity="1" stroke-miterlimit="4"/></g><g clip-path="url(#8f3eabe1d9)"><path stroke-linecap="butt" transform="matrix(0.75, 0, 0, 0.75, -294.774233, -208.211778)" fill="none" stroke-linejoin="miter" d="M 630.589644 371.553228 C 629.949019 371.167811 629.251102 370.954269 628.50631 370.912603 C 627.75631 370.876144 627.042768 371.011561 626.360477 371.324061 L 611.579226 378.115728 C 610.813601 378.464687 610.193809 378.990728 609.719851 379.688645 C 609.251101 380.386562 608.990684 381.157395 608.949017 382.001145 C 608.907351 382.839687 609.084434 383.631354 609.480267 384.376145 C 609.881309 385.120937 610.443809 385.70427 611.167767 386.131354 L 711.589649 445.225108 C 712.277149 445.626149 713.027149 445.834483 713.824024 445.839691 C 714.626108 445.850108 715.376108 445.662608 716.074024 445.277191 L 728.678192 438.329274 C 729.02715 438.136565 729.344858 437.90219 729.631317 437.626149 C 729.912567 437.350107 730.157359 437.042815 730.365692 436.704274 C 730.568817 436.365732 730.725067 436.001149 730.834442 435.62094 C 730.949025 435.240732 731.006317 434.850107 731.011525 434.454274 C 731.021942 434.05844 730.975067 433.667815 730.881317 433.282398 C 730.787567 432.896982 730.646942 432.52719 730.454234 432.178232 C 730.261525 431.834482 730.02715 431.516773 729.756317 431.230315 C 729.480275 430.943857 729.172983 430.693857 728.834442 430.490732 L 630.589644 371.553228 " stroke="#858c90" stroke-width="2" stroke-opacity="1" stroke-miterlimit="4"/></g><g clip-path="url(#7115e55d28)"><path stroke-linecap="butt" transform="matrix(0.75, 0, 0, 0.75, -294.774233, -208.211778)" fill="none" stroke-linejoin="miter" d="M 738.725067 486.146985 L 738.725067 592.230326 C 738.725067 593.449076 738.886526 594.646992 739.204234 595.818867 C 739.527151 596.995951 739.995901 598.110534 740.615693 599.157409 C 741.235484 600.209493 741.985484 601.15741 742.860484 602.011576 C 743.730276 602.860535 744.704234 603.579285 745.771943 604.173035 C 746.542776 604.600118 748.855276 605.870951 752.714652 607.990743 C 757.34486 610.553243 759.662569 609.183452 759.662569 603.891785 C 759.62611 562.876157 759.600069 519.126154 759.584444 472.641776 C 759.584444 465.699067 759.917777 461.136567 754.433402 456.141775 C 753.980277 455.730317 753.475068 455.396983 752.917777 455.152192 C 752.360485 454.9074 751.777152 454.75115 751.167777 454.693858 C 750.56361 454.636567 749.959443 454.678233 749.365693 454.81365 C 748.771943 454.954275 748.214651 455.178233 747.693818 455.50115 L 644.376103 518.074071 C 643.454228 518.641779 642.449019 518.928237 641.370894 518.928237 C 640.287561 518.933446 639.282353 518.657404 638.355269 518.100112 L 530.14172 453.115733 C 529.818804 452.923025 529.480262 452.766775 529.126095 452.646983 C 528.771929 452.521983 528.407345 452.43865 528.037554 452.391775 C 527.662554 452.3449 527.292762 452.334483 526.917762 452.365733 C 526.542762 452.391775 526.178178 452.459483 525.813595 452.56365 C 525.45422 452.667816 525.11047 452.808441 524.777137 452.985525 C 524.449012 453.1574 524.136512 453.365733 523.844845 453.605316 C 523.558387 453.8449 523.29797 454.110525 523.063595 454.402192 C 522.82922 454.699067 522.626095 455.011567 522.45422 455.3449 C 521.51672 457.209483 521.053178 460.12615 521.074011 464.110526 C 521.292761 504.35532 521.334428 546.995948 521.199011 592.027201 C 521.167761 599.027201 524.36047 603.990743 530.782345 606.912618 L 533.370887 608.089702 C 539.245888 610.771993 542.188596 608.896993 542.188596 602.454285 L 542.188596 485.735527 C 542.17818 485.532402 542.261513 485.38136 542.433388 485.277194 C 542.605263 485.173027 542.782346 485.173027 542.954221 485.271985 C 571.912556 502.646986 600.917767 519.954279 629.97506 537.188655 C 635.381311 540.365739 638.714644 544.157406 645.297978 540.240739 C 676.219855 521.891779 706.995899 503.646986 737.620901 485.50636 C 737.735484 485.44386 737.860484 485.41261 737.990692 485.41261 C 738.120901 485.41261 738.240692 485.449069 738.355276 485.511569 C 738.469859 485.579277 738.558401 485.667819 738.626109 485.782402 C 738.688609 485.891777 738.725067 486.016777 738.725067 486.146985 " stroke="#858c90" stroke-width="2" stroke-opacity="1" stroke-miterlimit="4"/></g><path stroke-linecap="butt" transform="matrix(0.75, 0, 0, 0.75, -294.774233, -208.211778)" fill="none" stroke-linejoin="miter" d="M 639.428186 580.469908 C 641.053186 580.485533 642.464644 580.146991 643.657353 579.443866 C 654.896937 573.037616 666.157354 566.334491 677.433397 559.329282 C 677.782355 559.110532 678.100063 558.855323 678.386522 558.563657 C 678.678188 558.27199 678.928189 557.949073 679.136522 557.594907 C 679.350064 557.245948 679.51673 556.870948 679.64173 556.480323 C 679.76673 556.089698 679.844855 555.688657 679.870897 555.277198 C 679.902147 554.86574 679.881314 554.45949 679.813605 554.05324 C 679.745897 553.64699 679.631314 553.256365 679.469855 552.876156 C 679.308397 552.501156 679.105272 552.14699 678.86048 551.813656 C 678.615688 551.485531 678.334438 551.188656 678.021938 550.923031 C 676.756313 549.865739 674.042772 547.959489 669.870896 545.209489 C 666.079229 542.699072 662.339646 542.766781 658.646937 545.412614 C 654.771937 548.199073 649.579228 551.464698 643.068811 555.204281 C 641.428186 556.126157 640.251103 556.589698 639.532353 556.589698 C 638.813603 556.589698 637.646936 556.11574 636.021936 555.17824 C 629.547977 551.386573 624.38131 548.079281 620.521935 545.261573 C 616.865684 542.579281 613.120893 542.475114 609.297976 544.954281 C 605.110475 547.667823 602.3761 549.548031 601.09485 550.589698 C 600.78235 550.855323 600.5011 551.14699 600.2511 551.475115 C 600.006308 551.80324 599.803183 552.157406 599.636517 552.537615 C 599.475058 552.912615 599.360475 553.30324 599.287558 553.70949 C 599.21985 554.11574 599.193808 554.52199 599.21985 554.92824 C 599.245892 555.339698 599.324017 555.74074 599.443808 556.136573 C 599.5636 556.527198 599.730267 556.902198 599.9386 557.251157 C 600.152142 557.605323 600.396933 557.92824 600.683392 558.225115 C 600.96985 558.516782 601.287558 558.777198 601.636517 558.995948 C 612.839643 566.100116 624.03756 572.907408 635.230269 579.417825 C 636.407352 580.12095 637.808394 580.469908 639.428186 580.469908 " stroke="#858c90" stroke-width="2" stroke-opacity="1" stroke-miterlimit="4"/><g clip-path="url(#beabf80245)"><path fill="#ffffff" d="M 666.140625 -208.210938 L 666.140625 752.703125 L -294.773438 752.703125 L -294.773438 -208.210938 Z M 59.996094 186.050781 C 59.996094 227.242188 60.039062 249.925781 60.128906 254.101562 C 60.207031 257.8125 60.800781 262.195312 63.070312 264.847656 C 65.042969 267.164062 68.367188 269.632812 73.042969 272.246094 C 92.582031 283.175781 127.273438 303.777344 177.113281 334.050781 C 182.28125 337.183594 186.277344 339.71875 191.21875 336.761719 C 215.445312 322.257812 253.203125 299.796875 304.488281 269.382812 C 308.972656 266.714844 311.230469 262.886719 311.253906 257.890625 C 311.320312 244.078125 311.351562 220.132812 311.351562 186.050781 C 311.351562 151.972656 311.320312 128.023438 311.253906 114.214844 C 311.230469 109.214844 308.972656 105.386719 304.488281 102.722656 C 253.203125 72.304688 215.445312 49.84375 191.21875 35.339844 C 186.277344 32.382812 182.28125 34.917969 177.113281 38.050781 C 127.273438 68.328125 92.582031 88.929688 73.042969 99.855469 C 68.367188 102.472656 65.042969 104.9375 63.070312 107.257812 C 60.800781 109.910156 60.207031 114.289062 60.128906 118 C 60.039062 122.175781 59.996094 144.859375 59.996094 186.050781 Z M -18.761719 447.554688 C -16.902344 447.554688 -15.371094 446.632812 -14.167969 444.785156 C -3.007812 427.707031 3.847656 417.503906 6.394531 414.171875 C 6.882812 413.542969 7.132812 413.628906 7.144531 414.421875 C 7.617188 434.140625 7.742188 449.367188 7.511719 460.105469 C 7.496094 460.628906 7.53125 461.640625 7.605469 463.140625 C 7.613281 463.363281 7.695312 463.554688 7.859375 463.710938 C 8.023438 463.871094 8.222656 463.949219 8.453125 463.949219 L 18.792969 463.949219 C 19.328125 463.949219 19.597656 463.679688 19.597656 463.140625 L 19.597656 388.785156 C 19.597656 388.375 19.394531 388.167969 18.984375 388.167969 L 9.527344 388.167969 C 8.824219 388.167969 8.285156 388.464844 7.914062 389.054688 C -9.445312 416.742188 -18.152344 430.625 -18.203125 430.699219 C -18.359375 430.945312 -18.550781 431.066406 -18.78125 431.066406 C -19.023438 431.066406 -19.222656 430.945312 -19.375 430.699219 C -19.425781 430.625 -28.164062 416.761719 -45.589844 389.113281 C -45.960938 388.523438 -46.5 388.226562 -47.203125 388.226562 L -56.660156 388.265625 C -57.070312 388.265625 -57.273438 388.472656 -57.273438 388.882812 L -57.101562 463.238281 C -57.101562 463.773438 -56.832031 464.042969 -56.292969 464.042969 L -45.957031 464.003906 C -45.726562 464.003906 -45.527344 463.925781 -45.363281 463.769531 C -45.199219 463.613281 -45.113281 463.421875 -45.109375 463.199219 C -45.03125 461.699219 -45 460.6875 -45.011719 460.160156 C -45.269531 449.425781 -45.1875 434.199219 -44.761719 414.480469 C -44.75 413.683594 -44.5 413.601562 -44.015625 414.230469 C -41.453125 417.5625 -34.570312 427.753906 -23.375 444.804688 C -22.167969 446.636719 -20.632812 447.554688 -18.761719 447.554688 Z M 76.101562 421.050781 C 69.234375 421.050781 62.410156 421.007812 55.632812 420.917969 C 55.445312 420.917969 55.289062 420.851562 55.15625 420.722656 C 55.027344 420.589844 54.960938 420.429688 54.960938 420.246094 L 54.960938 389.535156 C 54.960938 388.648438 54.519531 388.207031 53.632812 388.207031 L 43.96875 388.207031 C 43.070312 388.207031 42.621094 388.65625 42.621094 389.554688 C 42.621094 401.816406 42.632812 413.992188 42.660156 426.085938 C 42.660156 438.183594 42.667969 450.359375 42.679688 462.621094 C 42.691406 463.519531 43.148438 463.960938 44.042969 463.949219 L 53.710938 463.949219 C 54.59375 463.933594 55.03125 463.484375 55.019531 462.601562 L 54.980469 431.890625 C 54.980469 431.710938 55.042969 431.554688 55.167969 431.421875 C 55.296875 431.292969 55.449219 431.222656 55.632812 431.21875 C 62.410156 431.117188 69.238281 431.066406 76.121094 431.066406 C 82.988281 431.050781 89.808594 431.089844 96.585938 431.179688 C 96.773438 431.179688 96.929688 431.246094 97.0625 431.378906 C 97.195312 431.507812 97.257812 431.667969 97.257812 431.851562 L 97.257812 462.5625 C 97.257812 463.449219 97.703125 463.890625 98.585938 463.890625 L 108.253906 463.890625 C 109.148438 463.890625 109.597656 463.441406 109.597656 462.542969 C 109.597656 450.285156 109.585938 438.113281 109.558594 426.03125 C 109.558594 413.933594 109.546875 401.757812 109.519531 389.496094 C 109.519531 388.597656 109.074219 388.152344 108.175781 388.152344 L 98.507812 388.167969 C 97.625 388.167969 97.183594 388.613281 97.183594 389.496094 L 97.238281 420.207031 C 97.242188 420.390625 97.175781 420.550781 97.042969 420.683594 C 96.910156 420.8125 96.753906 420.878906 96.566406 420.878906 C 89.789062 420.980469 82.96875 421.039062 76.101562 421.050781 Z M 263.703125 389.234375 C 263.703125 389.101562 263.675781 388.96875 263.625 388.847656 C 263.570312 388.722656 263.5 388.609375 263.402344 388.515625 C 263.308594 388.421875 263.195312 388.347656 263.070312 388.296875 C 262.945312 388.246094 262.816406 388.21875 262.683594 388.21875 L 252.613281 388.238281 C 252.476562 388.238281 252.347656 388.261719 252.222656 388.316406 C 252.097656 388.367188 251.988281 388.441406 251.890625 388.535156 C 251.796875 388.632812 251.722656 388.742188 251.671875 388.867188 C 251.621094 388.992188 251.59375 389.121094 251.59375 389.257812 L 251.722656 462.902344 C 251.722656 463.035156 251.75 463.167969 251.800781 463.289062 C 251.851562 463.414062 251.925781 463.527344 252.023438 463.621094 C 252.117188 463.714844 252.230469 463.789062 252.355469 463.839844 C 252.480469 463.890625 252.609375 463.917969 252.742188 463.917969 L 262.8125 463.898438 C 262.949219 463.898438 263.078125 463.875 263.203125 463.820312 C 263.328125 463.769531 263.4375 463.695312 263.535156 463.601562 C 263.628906 463.503906 263.703125 463.394531 263.753906 463.269531 C 263.804688 463.144531 263.832031 463.015625 263.832031 462.878906 Z M 180.972656 436.773438 L 197.597656 436.773438 C 198.242188 436.773438 198.851562 436.921875 199.425781 437.214844 C 200 437.511719 200.472656 437.921875 200.847656 438.445312 L 218.679688 463.46875 C 218.871094 463.738281 219.128906 463.871094 219.449219 463.871094 C 226.355469 463.949219 230.921875 463.980469 233.152344 463.964844 C 233.21875 463.972656 233.269531 463.945312 233.300781 463.886719 C 233.335938 463.828125 233.328125 463.769531 233.285156 463.71875 C 229.097656 457.914062 222.511719 448.9375 213.53125 436.792969 C 213.070312 436.175781 213.203125 435.761719 213.933594 435.542969 C 224.503906 432.222656 230.179688 425.710938 230.960938 415.996094 C 231.910156 404.148438 227.738281 395.863281 218.449219 391.148438 C 214.632812 389.203125 208.359375 388.265625 199.636719 388.34375 C 195.867188 388.382812 185.464844 388.40625 168.425781 388.417969 C 168.25 388.417969 168.101562 388.480469 167.976562 388.605469 C 167.851562 388.730469 167.789062 388.878906 167.789062 389.054688 L 167.789062 462.507812 C 167.789062 463.519531 168.296875 464.023438 169.308594 464.023438 L 178.378906 464.023438 C 179.355469 464.023438 179.839844 463.539062 179.839844 462.5625 L 179.839844 437.90625 C 179.839844 437.152344 180.21875 436.773438 180.972656 436.773438 Z M 286.578125 389.417969 L 286.847656 462.640625 C 286.847656 462.792969 286.875 462.9375 286.933594 463.074219 C 286.992188 463.214844 287.074219 463.335938 287.179688 463.441406 C 287.285156 463.546875 287.410156 463.628906 287.546875 463.6875 C 287.6875 463.746094 287.832031 463.773438 287.980469 463.773438 L 319.289062 463.660156 C 320.511719 463.65625 321.734375 463.59375 322.953125 463.46875 C 324.171875 463.347656 325.378906 463.171875 326.578125 462.933594 C 327.777344 462.695312 328.964844 462.402344 330.132812 462.050781 C 331.304688 461.703125 332.453125 461.296875 333.585938 460.835938 C 334.714844 460.375 335.816406 459.863281 336.894531 459.296875 C 337.972656 458.730469 339.019531 458.117188 340.035156 457.449219 C 341.050781 456.785156 342.03125 456.070312 342.976562 455.3125 C 343.917969 454.550781 344.824219 453.75 345.6875 452.902344 C 346.546875 452.058594 347.367188 451.171875 348.140625 450.246094 C 348.914062 449.324219 349.640625 448.363281 350.316406 447.371094 C 350.992188 446.378906 351.617188 445.355469 352.191406 444.300781 C 352.765625 443.246094 353.285156 442.167969 353.75 441.066406 C 354.214844 439.960938 354.625 438.839844 354.976562 437.699219 C 355.328125 436.554688 355.621094 435.398438 355.855469 434.230469 C 356.089844 433.058594 356.265625 431.882812 356.382812 430.695312 C 356.5 429.507812 356.554688 428.316406 356.550781 427.125 L 356.550781 424.472656 C 356.550781 423.28125 356.484375 422.089844 356.363281 420.902344 C 356.238281 419.714844 356.054688 418.539062 355.8125 417.367188 C 355.570312 416.199219 355.269531 415.042969 354.910156 413.902344 C 354.550781 412.761719 354.132812 411.640625 353.660156 410.539062 C 353.1875 409.4375 352.660156 408.363281 352.082031 407.3125 C 351.5 406.261719 350.867188 405.242188 350.183594 404.253906 C 349.5 403.261719 348.765625 402.308594 347.984375 401.386719 C 347.207031 400.46875 346.382812 399.589844 345.511719 398.746094 C 344.640625 397.90625 343.734375 397.109375 342.78125 396.355469 C 341.832031 395.601562 340.847656 394.894531 339.828125 394.234375 C 338.804688 393.578125 337.753906 392.96875 336.671875 392.410156 C 335.589844 391.851562 334.480469 391.34375 333.347656 390.890625 C 332.214844 390.4375 331.058594 390.042969 329.886719 389.699219 C 328.710938 389.355469 327.523438 389.070312 326.320312 388.84375 C 325.117188 388.613281 323.90625 388.445312 322.6875 388.332031 C 321.46875 388.21875 320.246094 388.164062 319.019531 388.167969 L 287.710938 388.285156 C 287.5625 388.285156 287.417969 388.3125 287.277344 388.371094 C 287.140625 388.429688 287.015625 388.511719 286.910156 388.617188 C 286.804688 388.722656 286.722656 388.847656 286.664062 388.984375 C 286.609375 389.125 286.578125 389.269531 286.578125 389.417969 Z M 388.492188 419.726562 C 388.359375 419.726562 388.234375 419.699219 388.109375 419.648438 C 387.988281 419.597656 387.878906 419.527344 387.785156 419.433594 C 387.691406 419.339844 387.621094 419.230469 387.570312 419.109375 C 387.519531 418.988281 387.492188 418.859375 387.492188 418.726562 L 387.378906 399.46875 C 387.378906 399.335938 387.402344 399.210938 387.453125 399.085938 C 387.503906 398.964844 387.578125 398.855469 387.671875 398.761719 C 387.765625 398.667969 387.871094 398.597656 387.996094 398.546875 C 388.117188 398.496094 388.246094 398.472656 388.378906 398.472656 L 429.101562 398.375 C 429.234375 398.375 429.363281 398.347656 429.484375 398.296875 C 429.605469 398.246094 429.714844 398.175781 429.808594 398.082031 C 429.902344 397.988281 429.972656 397.878906 430.023438 397.757812 C 430.074219 397.636719 430.101562 397.507812 430.101562 397.375 L 430.042969 389.4375 C 430.042969 389.304688 430.019531 389.179688 429.96875 389.054688 C 429.917969 388.933594 429.84375 388.824219 429.75 388.730469 C 429.65625 388.636719 429.546875 388.566406 429.425781 388.515625 C 429.304688 388.464844 429.175781 388.4375 429.042969 388.4375 L 376.386719 388.363281 C 376.253906 388.363281 376.125 388.386719 376.003906 388.4375 C 375.882812 388.488281 375.773438 388.5625 375.679688 388.65625 C 375.585938 388.75 375.511719 388.855469 375.460938 388.980469 C 375.410156 389.101562 375.386719 389.230469 375.386719 389.363281 L 375.578125 462.890625 C 375.578125 463.023438 375.605469 463.152344 375.65625 463.273438 C 375.707031 463.394531 375.777344 463.503906 375.871094 463.597656 C 375.964844 463.691406 376.074219 463.761719 376.195312 463.8125 C 376.316406 463.863281 376.445312 463.890625 376.578125 463.890625 L 429.0625 463.851562 C 429.335938 463.851562 429.570312 463.757812 429.761719 463.566406 C 429.957031 463.375 430.058594 463.144531 430.0625 462.871094 L 430.195312 454.820312 C 430.199219 454.683594 430.175781 454.554688 430.125 454.429688 C 430.078125 454.304688 430.003906 454.195312 429.910156 454.101562 C 429.816406 454.003906 429.707031 453.929688 429.585938 453.878906 C 429.460938 453.824219 429.332031 453.800781 429.199219 453.800781 L 388.667969 453.703125 C 388.535156 453.703125 388.40625 453.679688 388.285156 453.628906 C 388.160156 453.578125 388.054688 453.503906 387.960938 453.410156 C 387.867188 453.316406 387.792969 453.210938 387.742188 453.085938 C 387.691406 452.964844 387.667969 452.835938 387.667969 452.703125 L 387.550781 430.71875 C 387.550781 430.585938 387.578125 430.460938 387.628906 430.335938 C 387.679688 430.214844 387.75 430.105469 387.84375 430.011719 C 387.9375 429.917969 388.046875 429.847656 388.167969 429.796875 C 388.289062 429.746094 388.417969 429.71875 388.550781 429.71875 L 424.796875 429.855469 C 424.929688 429.855469 425.054688 429.828125 425.179688 429.777344 C 425.300781 429.726562 425.410156 429.65625 425.503906 429.5625 C 425.597656 429.46875 425.667969 429.359375 425.71875 429.238281 C 425.769531 429.113281 425.796875 428.988281 425.796875 428.855469 L 425.871094 420.820312 C 425.871094 420.6875 425.847656 420.5625 425.796875 420.4375 C 425.746094 420.316406 425.671875 420.207031 425.578125 420.113281 C 425.484375 420.019531 425.378906 419.949219 425.253906 419.898438 C 425.132812 419.847656 425.007812 419.824219 424.875 419.824219 Z M 388.492188 419.726562 " fill-opacity="1" fill-rule="nonzero"/><path fill="#000000" d="M 311.351562 186.050781 C 311.351562 220.132812 311.320312 244.078125 311.253906 257.890625 C 311.230469 262.886719 308.972656 266.714844 304.488281 269.382812 C 253.203125 299.796875 215.445312 322.257812 191.21875 336.761719 C 186.277344 339.71875 182.28125 337.183594 177.113281 334.050781 C 127.273438 303.777344 92.582031 283.175781 73.042969 272.246094 C 68.367188 269.632812 65.042969 267.164062 63.070312 264.847656 C 60.800781 262.195312 60.207031 257.8125 60.128906 254.101562 C 60.039062 249.925781 59.996094 227.242188 59.996094 186.050781 C 59.996094 144.859375 60.039062 122.175781 60.128906 118 C 60.207031 114.289062 60.800781 109.910156 63.070312 107.257812 C 65.042969 104.9375 68.367188 102.472656 73.042969 99.855469 C 92.582031 88.929688 127.273438 68.328125 177.113281 38.050781 C 182.28125 34.917969 186.277344 32.382812 191.21875 35.339844 C 215.445312 49.84375 253.203125 72.304688 304.488281 102.722656 C 308.972656 105.386719 311.230469 109.214844 311.253906 114.214844 C 311.320312 128.023438 311.351562 151.972656 311.351562 186.050781 Z M 135.925781 264.730469 C 135.804688 264.292969 135.824219 263.863281 135.988281 263.445312 C 136.152344 263.023438 136.425781 262.695312 136.8125 262.464844 L 146.652344 256.503906 C 147.34375 256.085938 148.089844 255.875 148.898438 255.871094 C 149.707031 255.867188 150.457031 256.070312 151.148438 256.484375 L 220.542969 298.171875 C 221.019531 298.453125 221.523438 298.671875 222.058594 298.816406 C 222.59375 298.964844 223.136719 299.035156 223.691406 299.035156 C 224.242188 299.03125 224.785156 298.957031 225.320312 298.808594 C 225.851562 298.65625 226.355469 298.4375 226.828125 298.152344 L 292.25 258.523438 C 292.761719 258.210938 293.226562 257.84375 293.640625 257.410156 C 294.058594 256.980469 294.414062 256.5 294.707031 255.976562 C 295 255.453125 295.222656 254.902344 295.371094 254.320312 C 295.519531 253.738281 295.59375 253.148438 295.59375 252.546875 C 295.527344 171.882812 295.457031 127.59375 295.378906 119.691406 C 295.34375 114.867188 289.539062 112.117188 286.039062 110.082031 C 255.585938 92.273438 223.265625 73.117188 189.085938 52.617188 C 188.285156 52.140625 187.417969 51.898438 186.484375 51.894531 C 185.550781 51.890625 184.683594 52.125 183.875 52.597656 C 154.253906 69.945312 119.996094 90.03125 81.097656 112.847656 C 77.546875 114.925781 75.773438 117.621094 75.773438 120.941406 C 75.800781 191.023438 75.902344 234.25 76.082031 250.625 C 76.136719 256.0625 80.25 257.945312 84.84375 260.636719 C 118.824219 280.585938 152.59375 300.683594 186.164062 320.925781 C 186.464844 321.109375 186.789062 321.199219 187.148438 321.195312 C 187.503906 321.191406 187.835938 321.09375 188.144531 320.90625 L 206.398438 309.855469 C 206.507812 309.789062 206.59375 309.699219 206.65625 309.589844 C 206.71875 309.476562 206.75 309.359375 206.75 309.230469 C 206.75 309.101562 206.71875 308.984375 206.65625 308.871094 C 206.59375 308.761719 206.507812 308.671875 206.398438 308.605469 C 169.859375 286.671875 147.566406 273.539062 139.519531 269.207031 C 137.6875 268.234375 136.492188 266.742188 135.925781 264.730469 Z M 135.925781 264.730469 " fill-opacity="1" fill-rule="nonzero"/><path fill="#ffffff" d="M 135.925781 264.730469 C 136.492188 266.742188 137.6875 268.234375 139.519531 269.207031 C 147.566406 273.539062 169.859375 286.671875 206.398438 308.605469 C 206.507812 308.671875 206.59375 308.761719 206.65625 308.871094 C 206.71875 308.984375 206.753906 309.101562 206.753906 309.230469 C 206.753906 309.359375 206.71875 309.476562 206.65625 309.589844 C 206.59375 309.699219 206.507812 309.789062 206.398438 309.855469 L 188.144531 320.90625 C 187.835938 321.09375 187.503906 321.191406 187.148438 321.195312 C 186.789062 321.199219 186.464844 321.109375 186.164062 320.925781 C 152.59375 300.683594 118.824219 280.585938 84.84375 260.636719 C 80.25 257.945312 76.136719 256.0625 76.082031 250.625 C 75.902344 234.25 75.800781 191.023438 75.773438 120.941406 C 75.773438 117.621094 77.546875 114.925781 81.097656 112.847656 C 119.996094 90.03125 154.253906 69.945312 183.875 52.597656 C 184.683594 52.125 185.550781 51.890625 186.484375 51.894531 C 187.417969 51.898438 188.285156 52.140625 189.085938 52.617188 C 223.265625 73.117188 255.585938 92.273438 286.039062 110.082031 C 289.539062 112.117188 295.34375 114.867188 295.378906 119.691406 C 295.457031 127.59375 295.527344 171.882812 295.59375 252.546875 C 295.59375 253.148438 295.519531 253.738281 295.371094 254.320312 C 295.222656 254.902344 295 255.453125 294.707031 255.976562 C 294.414062 256.5 294.058594 256.980469 293.640625 257.410156 C 293.226562 257.84375 292.761719 258.210938 292.25 258.523438 L 226.828125 298.152344 C 226.355469 298.4375 225.851562 298.65625 225.320312 298.808594 C 224.785156 298.957031 224.242188 299.03125 223.691406 299.035156 C 223.136719 299.035156 222.59375 298.964844 222.058594 298.816406 C 221.523438 298.671875 221.019531 298.453125 220.542969 298.171875 L 151.148438 256.484375 C 150.457031 256.070312 149.707031 255.867188 148.898438 255.871094 C 148.089844 255.875 147.34375 256.085938 146.652344 256.503906 L 136.8125 262.464844 C 136.425781 262.695312 136.152344 263.023438 135.988281 263.445312 C 135.824219 263.863281 135.804688 264.292969 135.925781 264.730469 Z M 178.167969 70.453125 C 177.6875 70.164062 177.164062 70.003906 176.605469 69.972656 C 176.042969 69.945312 175.507812 70.046875 174.996094 70.28125 L 163.910156 75.375 C 163.335938 75.636719 162.871094 76.03125 162.515625 76.554688 C 162.164062 77.078125 161.96875 77.65625 161.9375 78.289062 C 161.90625 78.917969 162.039062 79.511719 162.335938 80.070312 C 162.636719 80.628906 163.058594 81.066406 163.601562 81.386719 L 238.917969 125.707031 C 239.433594 126.007812 239.996094 126.164062 240.59375 126.167969 C 241.195312 126.175781 241.757812 126.035156 242.28125 125.746094 L 251.734375 120.535156 C 251.996094 120.390625 252.234375 120.214844 252.449219 120.007812 C 252.660156 119.800781 252.84375 119.570312 253 119.316406 C 253.152344 119.0625 253.269531 118.789062 253.351562 118.503906 C 253.4375 118.21875 253.480469 117.925781 253.484375 117.628906 C 253.492188 117.332031 253.457031 117.039062 253.386719 116.75 C 253.316406 116.460938 253.210938 116.183594 253.066406 115.921875 C 252.921875 115.664062 252.746094 115.425781 252.542969 115.210938 C 252.335938 114.996094 252.105469 114.808594 251.851562 114.65625 Z M 259.269531 156.398438 L 259.269531 235.960938 C 259.269531 236.875 259.390625 237.773438 259.628906 238.652344 C 259.871094 239.535156 260.222656 240.371094 260.6875 241.15625 C 261.152344 241.945312 261.714844 242.65625 262.371094 243.296875 C 263.023438 243.933594 263.753906 244.472656 264.554688 244.917969 C 265.132812 245.238281 266.867188 246.191406 269.761719 247.78125 C 273.234375 249.703125 274.972656 248.675781 274.972656 244.707031 C 274.945312 213.941406 274.925781 181.132812 274.914062 146.269531 C 274.914062 141.0625 275.164062 137.640625 271.050781 133.894531 C 270.710938 133.585938 270.332031 133.335938 269.914062 133.152344 C 269.496094 132.96875 269.058594 132.851562 268.601562 132.808594 C 268.148438 132.765625 267.695312 132.796875 267.25 132.898438 C 266.804688 133.003906 266.386719 133.171875 265.996094 133.414062 L 188.507812 180.34375 C 187.816406 180.769531 187.0625 180.984375 186.253906 180.984375 C 185.441406 180.988281 184.6875 180.78125 183.992188 180.363281 L 102.832031 131.625 C 102.589844 131.480469 102.335938 131.363281 102.070312 131.273438 C 101.804688 131.179688 101.53125 131.117188 101.253906 131.082031 C 100.972656 131.046875 100.695312 131.039062 100.414062 131.0625 C 100.132812 131.082031 99.859375 131.132812 99.585938 131.210938 C 99.316406 131.289062 99.058594 131.394531 98.808594 131.527344 C 98.5625 131.65625 98.328125 131.8125 98.109375 131.992188 C 97.894531 132.171875 97.699219 132.371094 97.523438 132.589844 C 97.347656 132.8125 97.195312 133.046875 97.066406 133.296875 C 96.363281 134.695312 96.015625 136.882812 96.03125 139.871094 C 96.195312 170.054688 96.226562 202.035156 96.125 235.808594 C 96.101562 241.058594 98.496094 244.78125 103.3125 246.972656 L 105.253906 247.855469 C 109.660156 249.867188 111.867188 248.460938 111.867188 243.628906 L 111.867188 156.089844 C 111.859375 155.9375 111.921875 155.824219 112.050781 155.746094 C 112.179688 155.667969 112.3125 155.667969 112.441406 155.742188 C 134.160156 168.773438 155.914062 181.753906 177.707031 194.679688 C 181.761719 197.0625 184.261719 199.90625 189.199219 196.96875 C 212.390625 183.207031 235.472656 169.523438 258.441406 155.917969 C 258.527344 155.871094 258.621094 155.847656 258.71875 155.847656 C 258.816406 155.847656 258.90625 155.875 258.992188 155.921875 C 259.078125 155.972656 259.144531 156.039062 259.195312 156.125 C 259.242188 156.207031 259.269531 156.300781 259.269531 156.398438 Z M 184.796875 227.140625 C 186.015625 227.152344 187.074219 226.898438 187.96875 226.371094 C 196.398438 221.566406 204.84375 216.539062 213.300781 211.285156 C 213.5625 211.121094 213.800781 210.929688 214.015625 210.710938 C 214.234375 210.492188 214.421875 210.25 214.578125 209.984375 C 214.738281 209.722656 214.863281 209.441406 214.957031 209.148438 C 215.050781 208.855469 215.109375 208.554688 215.128906 208.246094 C 215.152344 207.9375 215.136719 207.632812 215.085938 207.328125 C 215.035156 207.023438 214.949219 206.730469 214.828125 206.445312 C 214.707031 206.164062 214.554688 205.898438 214.371094 205.648438 C 214.1875 205.402344 213.976562 205.179688 213.742188 204.980469 C 212.792969 204.1875 210.757812 202.757812 207.628906 200.695312 C 204.785156 198.8125 201.980469 198.863281 199.210938 200.847656 C 196.304688 202.9375 192.410156 205.386719 187.527344 208.191406 C 186.296875 208.882812 185.414062 209.226562 184.875 209.226562 C 184.335938 209.226562 183.460938 208.875 182.242188 208.171875 C 177.386719 205.328125 173.511719 202.847656 170.617188 200.734375 C 167.875 198.722656 165.066406 198.644531 162.199219 200.503906 C 159.058594 202.539062 157.007812 203.949219 156.046875 204.730469 C 155.8125 204.929688 155.601562 205.148438 155.414062 205.394531 C 155.230469 205.640625 155.078125 205.90625 154.953125 206.191406 C 154.832031 206.472656 154.746094 206.765625 154.691406 207.070312 C 154.640625 207.375 154.621094 207.679688 154.640625 207.984375 C 154.660156 208.292969 154.71875 208.59375 154.808594 208.890625 C 154.898438 209.183594 155.023438 209.464844 155.179688 209.726562 C 155.339844 209.992188 155.523438 210.234375 155.738281 210.457031 C 155.953125 210.675781 156.191406 210.871094 156.453125 211.035156 C 164.855469 216.363281 173.253906 221.46875 181.648438 226.351562 C 182.53125 226.878906 183.582031 227.140625 184.796875 227.140625 Z M 184.796875 227.140625 " fill-opacity="1" fill-rule="nonzero"/></g><path fill="#000000" d="M 259.269531 156.398438 C 259.269531 156.300781 259.242188 156.207031 259.195312 156.125 C 259.144531 156.039062 259.078125 155.972656 258.992188 155.921875 C 258.90625 155.875 258.816406 155.847656 258.71875 155.847656 C 258.621094 155.847656 258.527344 155.871094 258.441406 155.917969 C 235.472656 169.523438 212.390625 183.207031 189.199219 196.96875 C 184.261719 199.90625 181.761719 197.0625 177.707031 194.679688 C 155.914062 181.753906 134.160156 168.773438 112.441406 155.742188 C 112.3125 155.667969 112.179688 155.667969 112.050781 155.746094 C 111.921875 155.824219 111.859375 155.9375 111.867188 156.089844 L 111.867188 243.628906 C 111.867188 248.460938 109.660156 249.867188 105.253906 247.855469 L 103.3125 246.972656 C 98.496094 244.78125 96.101562 241.058594 96.125 235.808594 C 96.226562 202.035156 96.195312 170.054688 96.03125 139.871094 C 96.015625 136.882812 96.363281 134.695312 97.066406 133.296875 C 97.195312 133.046875 97.347656 132.8125 97.523438 132.589844 C 97.699219 132.371094 97.894531 132.171875 98.109375 131.992188 C 98.328125 131.8125 98.5625 131.65625 98.808594 131.527344 C 99.058594 131.394531 99.316406 131.289062 99.585938 131.210938 C 99.859375 131.132812 100.132812 131.082031 100.414062 131.0625 C 100.695312 131.039062 100.972656 131.046875 101.253906 131.082031 C 101.53125 131.117188 101.804688 131.179688 102.070312 131.273438 C 102.335938 131.363281 102.589844 131.480469 102.832031 131.625 L 183.992188 180.363281 C 184.6875 180.78125 185.441406 180.988281 186.253906 180.984375 C 187.0625 180.984375 187.816406 180.769531 188.507812 180.34375 L 265.996094 133.414062 C 266.386719 133.171875 266.804688 133.003906 267.25 132.898438 C 267.695312 132.796875 268.148438 132.765625 268.601562 132.808594 C 269.058594 132.851562 269.496094 132.96875 269.914062 133.152344 C 270.332031 133.335938 270.710938 133.585938 271.050781 133.894531 C 275.164062 137.640625 274.914062 141.0625 274.914062 146.269531 C 274.925781 181.132812 274.945312 213.941406 274.972656 244.707031 C 274.972656 248.675781 273.234375 249.703125 269.761719 247.78125 C 266.867188 246.191406 265.132812 245.238281 264.554688 244.917969 C 263.753906 244.472656 263.023438 243.933594 262.371094 243.296875 C 261.714844 242.65625 261.152344 241.945312 260.6875 241.15625 C 260.222656 240.371094 259.871094 239.535156 259.628906 238.652344 C 259.390625 237.773438 259.269531 236.875 259.269531 235.960938 Z M 259.269531 156.398438 " fill-opacity="1" fill-rule="nonzero"/><path fill="#000000" d="M 184.875 209.226562 C 185.414062 209.226562 186.296875 208.882812 187.527344 208.191406 C 192.410156 205.386719 196.304688 202.9375 199.210938 200.847656 C 201.980469 198.863281 204.785156 198.8125 207.628906 200.695312 C 210.757812 202.757812 212.792969 204.1875 213.742188 204.980469 C 213.976562 205.179688 214.1875 205.402344 214.371094 205.648438 C 214.554688 205.898438 214.707031 206.164062 214.828125 206.445312 C 214.949219 206.730469 215.035156 207.023438 215.085938 207.328125 C 215.136719 207.632812 215.152344 207.9375 215.128906 208.246094 C 215.109375 208.554688 215.050781 208.855469 214.957031 209.148438 C 214.863281 209.441406 214.738281 209.722656 214.578125 209.984375 C 214.421875 210.25 214.234375 210.492188 214.015625 210.710938 C 213.800781 210.929688 213.5625 211.121094 213.300781 211.285156 C 204.84375 216.539062 196.398438 221.566406 187.96875 226.371094 C 187.074219 226.898438 186.015625 227.152344 184.796875 227.140625 C 183.582031 227.140625 182.53125 226.878906 181.648438 226.351562 C 173.253906 221.46875 164.855469 216.363281 156.453125 211.035156 C 156.191406 210.871094 155.953125 210.675781 155.738281 210.457031 C 155.523438 210.234375 155.339844 209.992188 155.179688 209.726562 C 155.023438 209.464844 154.898438 209.183594 154.808594 208.890625 C 154.71875 208.59375 154.660156 208.292969 154.640625 207.984375 C 154.621094 207.679688 154.640625 207.375 154.691406 207.070312 C 154.746094 206.765625 154.832031 206.472656 154.953125 206.191406 C 155.078125 205.90625 155.230469 205.640625 155.414062 205.394531 C 155.601562 205.148438 155.8125 204.929688 156.046875 204.730469 C 157.007812 203.949219 159.058594 202.539062 162.199219 200.503906 C 165.066406 198.644531 167.875 198.722656 170.617188 200.734375 C 173.511719 202.847656 177.386719 205.328125 182.242188 208.171875 C 183.460938 208.875 184.335938 209.226562 184.875 209.226562 Z M 184.875 209.226562 " fill-opacity="1" fill-rule="nonzero"/></svg>